  0
SECTION
  2
HEADER
  9
$ACADVER
  1
AC1009
  9
$EXTMIN
 10
0.0
 20
0.0
 30
0.0
  9
$EXTMAX
 10
1000.0
 20
1000.0
 30
0.0
  9
$FILLMODE
 70
 0
  9
$SPLFRAME
 70
 1
  0
ENDSEC
  0
SECTION
  2
TABLES
  0
TABLE
  2
LAYER
 70
1
  0
LAYER
  2
0
 70
     0
 62
     7
  6
CONTINUOUS
  0
ENDTAB
  0
ENDSEC
  0
SECTION
  2
ENTITIES
  0
LINE
  8
0
 62
     1
 10
180.976
 20
147.968
 30
0.0
 11
180.976
 21
135.919
 31
0.0
  0
LINE
  8
0
 62
     1
 10
180.976
 20
135.919
 30
0.0
 11
12.1447
 21
135.919
 31
0.0
  0
LINE
  8
0
 62
     1
 10
12.1447
 20
135.919
 30
0.0
 11
12.1447
 21
12.1405
 31
0.0
  0
LINE
  8
0
 62
     1
 10
12.1447
 20
12.1405
 30
0.0
 11
359.759
 21
12.1405
 31
0.0
  0
LINE
  8
0
 62
     1
 10
359.759
 20
12.1405
 30
0.0
 11
359.759
 21
135.919
 31
0.0
  0
LINE
  8
0
 62
     1
 10
359.759
 20
135.919
 30
0.0
 11
190.926
 21
135.919
 31
0.0
  0
LINE
  8
0
 62
     1
 10
190.926
 20
135.919
 30
0.0
 11
190.926
 21
147.967
 31
0.0
  0
LINE
  8
0
 62
     1
 10
190.926
 20
147.967
 30
0.0
 11
365.806
 21
147.967
 31
0.0
  0
LINE
  8
0
 62
     1
 10
365.806
 20
147.967
 30
0.0
 11
366.279
 21
147.949
 31
0.0
  0
LINE
  8
0
 62
     1
 10
366.279
 20
147.949
 30
0.0
 11
366.748
 21
147.894
 31
0.0
  0
LINE
  8
0
 62
     1
 10
366.748
 20
147.894
 30
0.0
 11
367.21
 21
147.803
 31
0.0
  0
LINE
  8
0
 62
     1
 10
367.21
 20
147.803
 30
0.0
 11
367.661
 21
147.675
 31
0.0
  0
LINE
  8
0
 62
     1
 10
367.661
 20
147.675
 30
0.0
 11
368.106
 21
147.511
 31
0.0
  0
LINE
  8
0
 62
     1
 10
368.106
 20
147.511
 30
0.0
 11
368.533
 21
147.314
 31
0.0
  0
LINE
  8
0
 62
     1
 10
368.533
 20
147.314
 30
0.0
 11
368.942
 21
147.085
 31
0.0
  0
LINE
  8
0
 62
     1
 10
368.942
 20
147.085
 30
0.0
 11
369.334
 21
146.822
 31
0.0
  0
LINE
  8
0
 62
     1
 10
369.334
 20
146.822
 30
0.0
 11
369.704
 21
146.529
 31
0.0
  0
LINE
  8
0
 62
     1
 10
369.704
 20
146.529
 30
0.0
 11
370.05
 21
146.21
 31
0.0
  0
LINE
  8
0
 62
     1
 10
370.05
 20
146.21
 30
0.0
 11
370.371
 21
145.865
 31
0.0
  0
LINE
  8
0
 62
     1
 10
370.371
 20
145.865
 30
0.0
 11
370.664
 21
145.495
 31
0.0
  0
LINE
  8
0
 62
     1
 10
370.664
 20
145.495
 30
0.0
 11
370.925
 21
145.102
 31
0.0
  0
LINE
  8
0
 62
     1
 10
370.925
 20
145.102
 30
0.0
 11
371.154
 21
144.691
 31
0.0
  0
LINE
  8
0
 62
     1
 10
371.154
 20
144.691
 30
0.0
 11
371.352
 21
144.264
 31
0.0
  0
LINE
  8
0
 62
     1
 10
371.352
 20
144.264
 30
0.0
 11
371.514
 21
143.822
 31
0.0
  0
LINE
  8
0
 62
     1
 10
371.514
 20
143.822
 30
0.0
 11
371.641
 21
143.368
 31
0.0
  0
LINE
  8
0
 62
     1
 10
371.641
 20
143.368
 30
0.0
 11
371.733
 21
142.907
 31
0.0
  0
LINE
  8
0
 62
     1
 10
371.733
 20
142.907
 30
0.0
 11
371.789
 21
142.44
 31
0.0
  0
LINE
  8
0
 62
     1
 10
371.789
 20
142.44
 30
0.0
 11
371.807
 21
141.967
 31
0.0
  0
LINE
  8
0
 62
     1
 10
371.807
 20
141.967
 30
0.0
 11
371.807
 21
6.09092
 31
0.0
  0
LINE
  8
0
 62
     1
 10
371.807
 20
6.09092
 30
0.0
 11
371.789
 21
5.62102
 31
0.0
  0
LINE
  8
0
 62
     1
 10
371.789
 20
5.62102
 30
0.0
 11
371.733
 21
5.15387
 31
0.0
  0
LINE
  8
0
 62
     1
 10
371.733
 20
5.15387
 30
0.0
 11
371.641
 21
4.69085
 31
0.0
  0
LINE
  8
0
 62
     1
 10
371.641
 20
4.69085
 30
0.0
 11
371.514
 21
4.23746
 31
0.0
  0
LINE
  8
0
 62
     1
 10
371.514
 20
4.23746
 30
0.0
 11
371.352
 21
3.79511
 31
0.0
  0
LINE
  8
0
 62
     1
 10
371.352
 20
3.79511
 30
0.0
 11
371.154
 21
3.36793
 31
0.0
  0
LINE
  8
0
 62
     1
 10
371.154
 20
3.36793
 30
0.0
 11
370.925
 21
2.95727
 31
0.0
  0
LINE
  8
0
 62
     1
 10
370.925
 20
2.95727
 30
0.0
 11
370.664
 21
2.56453
 31
0.0
  0
LINE
  8
0
 62
     1
 10
370.664
 20
2.56453
 30
0.0
 11
370.371
 21
2.19659
 31
0.0
  0
LINE
  8
0
 62
     1
 10
370.371
 20
2.19659
 30
0.0
 11
370.05
 21
1.84933
 31
0.0
  0
LINE
  8
0
 62
     1
 10
370.05
 20
1.84933
 30
0.0
 11
369.704
 21
1.52962
 31
0.0
  0
LINE
  8
0
 62
     1
 10
369.704
 20
1.52962
 30
0.0
 11
369.334
 21
1.23748
 31
0.0
  0
LINE
  8
0
 62
     1
 10
369.334
 20
1.23748
 30
0.0
 11
368.942
 21
0.975653
 31
0.0
  0
LINE
  8
0
 62
     1
 10
368.942
 20
0.975653
 30
0.0
 11
368.533
 21
0.745518
 31
0.0
  0
LINE
  8
0
 62
     1
 10
368.533
 20
0.745518
 30
0.0
 11
368.106
 21
0.549836
 31
0.0
  0
LINE
  8
0
 62
     1
 10
368.106
 20
0.549836
 30
0.0
 11
367.661
 21
0.385851
 31
0.0
  0
LINE
  8
0
 62
     1
 10
367.661
 20
0.385851
 30
0.0
 11
367.21
 21
0.257693
 31
0.0
  0
LINE
  8
0
 62
     1
 10
367.21
 20
0.257693
 30
0.0
 11
366.748
 21
0.165365
 31
0.0
  0
LINE
  8
0
 62
     1
 10
366.748
 20
0.165365
 30
0.0
 11
366.279
 21
0.110243
 31
0.0
  0
LINE
  8
0
 62
     1
 10
366.279
 20
0.110243
 30
0.0
 11
365.806
 21
0.0909507
 31
0.0
  0
LINE
  8
0
 62
     1
 10
365.806
 20
0.0909507
 30
0.0
 11
6.09505
 21
0.0909507
 31
0.0
  0
LINE
  8
0
 62
     1
 10
6.09505
 20
0.0909507
 30
0.0
 11
5.62377
 21
0.110243
 31
0.0
  0
LINE
  8
0
 62
     1
 10
5.62377
 20
0.110243
 30
0.0
 11
5.15525
 21
0.165365
 31
0.0
  0
LINE
  8
0
 62
     1
 10
5.15525
 20
0.165365
 30
0.0
 11
4.6936
 21
0.257693
 31
0.0
  0
LINE
  8
0
 62
     1
 10
4.6936
 20
0.257693
 30
0.0
 11
4.24021
 21
0.385851
 31
0.0
  0
LINE
  8
0
 62
     1
 10
4.24021
 20
0.385851
 30
0.0
 11
3.79786
 21
0.549836
 31
0.0
  0
LINE
  8
0
 62
     1
 10
3.79786
 20
0.549836
 30
0.0
 11
3.37068
 21
0.745518
 31
0.0
  0
LINE
  8
0
 62
     1
 10
3.37068
 20
0.745518
 30
0.0
 11
2.96003
 21
0.975653
 31
0.0
  0
LINE
  8
0
 62
     1
 10
2.96003
 20
0.975653
 30
0.0
 11
2.56728
 21
1.23748
 31
0.0
  0
LINE
  8
0
 62
     1
 10
2.56728
 20
1.23748
 30
0.0
 11
2.19797
 21
1.52962
 31
0.0
  0
LINE
  8
0
 62
     1
 10
2.19797
 20
1.52962
 30
0.0
 11
1.85208
 21
1.84933
 31
0.0
  0
LINE
  8
0
 62
     1
 10
1.85208
 20
1.84933
 30
0.0
 11
1.53238
 21
2.19659
 31
0.0
  0
LINE
  8
0
 62
     1
 10
1.53238
 20
2.19659
 30
0.0
 11
1.24024
 21
2.56453
 31
0.0
  0
LINE
  8
0
 62
     1
 10
1.24024
 20
2.56453
 30
0.0
 11
0.978408
 21
2.95727
 31
0.0
  0
LINE
  8
0
 62
     1
 10
0.978408
 20
2.95727
 30
0.0
 11
0.748273
 21
3.36793
 31
0.0
  0
LINE
  8
0
 62
     1
 10
0.748273
 20
3.36793
 30
0.0
 11
0.551215
 21
3.79511
 31
0.0
  0
LINE
  8
0
 62
     1
 10
0.551215
 20
3.79511
 30
0.0
 11
0.38723
 21
4.23746
 31
0.0
  0
LINE
  8
0
 62
     1
 10
0.38723
 20
4.23746
 30
0.0
 11
0.259071
 21
4.69085
 31
0.0
  0
LINE
  8
0
 62
     1
 10
0.259071
 20
4.69085
 30
0.0
 11
0.168121
 21
5.15387
 31
0.0
  0
LINE
  8
0
 62
     1
 10
0.168121
 20
5.15387
 30
0.0
 11
0.112999
 21
5.62102
 31
0.0
  0
LINE
  8
0
 62
     1
 10
0.112999
 20
5.62102
 30
0.0
 11
0.0937066
 21
6.0923
 31
0.0
  0
LINE
  8
0
 62
     1
 10
0.0937066
 20
6.0923
 30
0.0
 11
0.0950846
 21
141.967
 31
0.0
  0
LINE
  8
0
 62
     1
 10
0.0950846
 20
141.967
 30
0.0
 11
0.112999
 21
142.44
 31
0.0
  0
LINE
  8
0
 62
     1
 10
0.112999
 20
142.44
 30
0.0
 11
0.168121
 21
142.907
 31
0.0
  0
LINE
  8
0
 62
     1
 10
0.168121
 20
142.907
 30
0.0
 11
0.259071
 21
143.368
 31
0.0
  0
LINE
  8
0
 62
     1
 10
0.259071
 20
143.368
 30
0.0
 11
0.38723
 21
143.822
 31
0.0
  0
LINE
  8
0
 62
     1
 10
0.38723
 20
143.822
 30
0.0
 11
0.551215
 21
144.264
 31
0.0
  0
LINE
  8
0
 62
     1
 10
0.551215
 20
144.264
 30
0.0
 11
0.748273
 21
144.691
 31
0.0
  0
LINE
  8
0
 62
     1
 10
0.748273
 20
144.691
 30
0.0
 11
0.978408
 21
145.102
 31
0.0
  0
LINE
  8
0
 62
     1
 10
0.978408
 20
145.102
 30
0.0
 11
1.24024
 21
145.495
 31
0.0
  0
LINE
  8
0
 62
     1
 10
1.24024
 20
145.495
 30
0.0
 11
1.53238
 21
145.865
 31
0.0
  0
LINE
  8
0
 62
     1
 10
1.53238
 20
145.865
 30
0.0
 11
1.85208
 21
146.21
 31
0.0
  0
LINE
  8
0
 62
     1
 10
1.85208
 20
146.21
 30
0.0
 11
2.19797
 21
146.529
 31
0.0
  0
LINE
  8
0
 62
     1
 10
2.19797
 20
146.529
 30
0.0
 11
2.56728
 21
146.822
 31
0.0
  0
LINE
  8
0
 62
     1
 10
2.56728
 20
146.822
 30
0.0
 11
2.96003
 21
147.085
 31
0.0
  0
LINE
  8
0
 62
     1
 10
2.96003
 20
147.085
 30
0.0
 11
3.37068
 21
147.314
 31
0.0
  0
LINE
  8
0
 62
     1
 10
3.37068
 20
147.314
 30
0.0
 11
3.79786
 21
147.511
 31
0.0
  0
LINE
  8
0
 62
     1
 10
3.79786
 20
147.511
 30
0.0
 11
4.24021
 21
147.675
 31
0.0
  0
LINE
  8
0
 62
     1
 10
4.24021
 20
147.675
 30
0.0
 11
4.6936
 21
147.803
 31
0.0
  0
LINE
  8
0
 62
     1
 10
4.6936
 20
147.803
 30
0.0
 11
5.15525
 21
147.894
 31
0.0
  0
LINE
  8
0
 62
     1
 10
5.15525
 20
147.894
 30
0.0
 11
5.62377
 21
147.949
 31
0.0
  0
LINE
  8
0
 62
     1
 10
5.62377
 20
147.949
 30
0.0
 11
6.09505
 21
147.968
 31
0.0
  0
LINE
  8
0
 62
     1
 10
6.09505
 20
147.968
 30
0.0
 11
180.976
 21
147.968
 31
0.0
  0
LINE
  8
0
 62
     1
 10
365.252
 20
7.75698
 30
0.0
 11
364.769
 21
7.5117
 31
0.0
  0
LINE
  8
0
 62
     1
 10
364.769
 20
7.5117
 30
0.0
 11
364.388
 21
7.12996
 31
0.0
  0
LINE
  8
0
 62
     1
 10
364.388
 20
7.12996
 30
0.0
 11
364.141
 21
6.65043
 31
0.0
  0
LINE
  8
0
 62
     1
 10
364.141
 20
6.65043
 30
0.0
 11
364.06
 21
6.11572
 31
0.0
  0
LINE
  8
0
 62
     1
 10
364.06
 20
6.11572
 30
0.0
 11
364.141
 21
5.5838
 31
0.0
  0
LINE
  8
0
 62
     1
 10
364.141
 20
5.5838
 30
0.0
 11
364.388
 21
5.10286
 31
0.0
  0
LINE
  8
0
 62
     1
 10
364.388
 20
5.10286
 30
0.0
 11
364.769
 21
4.72115
 31
0.0
  0
LINE
  8
0
 62
     1
 10
364.769
 20
4.72115
 30
0.0
 11
365.252
 21
4.47587
 31
0.0
  0
LINE
  8
0
 62
     1
 10
365.252
 20
4.47587
 30
0.0
 11
365.781
 21
4.3918
 31
0.0
  0
LINE
  8
0
 62
     1
 10
365.781
 20
4.3918
 30
0.0
 11
366.317
 21
4.47587
 31
0.0
  0
LINE
  8
0
 62
     1
 10
366.317
 20
4.47587
 30
0.0
 11
366.797
 21
4.72115
 31
0.0
  0
LINE
  8
0
 62
     1
 10
366.797
 20
4.72115
 30
0.0
 11
367.178
 21
5.10286
 31
0.0
  0
LINE
  8
0
 62
     1
 10
367.178
 20
5.10286
 30
0.0
 11
367.425
 21
5.5838
 31
0.0
  0
LINE
  8
0
 62
     1
 10
367.425
 20
5.5838
 30
0.0
 11
367.506
 21
6.11572
 31
0.0
  0
LINE
  8
0
 62
     1
 10
367.506
 20
6.11572
 30
0.0
 11
367.425
 21
6.65043
 31
0.0
  0
LINE
  8
0
 62
     1
 10
367.425
 20
6.65043
 30
0.0
 11
367.178
 21
7.12996
 31
0.0
  0
LINE
  8
0
 62
     1
 10
367.178
 20
7.12996
 30
0.0
 11
366.797
 21
7.5117
 31
0.0
  0
LINE
  8
0
 62
     1
 10
366.797
 20
7.5117
 30
0.0
 11
366.317
 21
7.75698
 31
0.0
  0
LINE
  8
0
 62
     1
 10
366.317
 20
7.75698
 30
0.0
 11
365.781
 21
7.84105
 31
0.0
  0
LINE
  8
0
 62
     1
 10
365.781
 20
7.84105
 30
0.0
 11
365.252
 21
7.75698
 31
0.0
  0
LINE
  8
0
 62
     1
 10
245.361
 20
7.75698
 30
0.0
 11
244.88
 21
7.5117
 31
0.0
  0
LINE
  8
0
 62
     1
 10
244.88
 20
7.5117
 30
0.0
 11
244.5
 21
7.12996
 31
0.0
  0
LINE
  8
0
 62
     1
 10
244.5
 20
7.12996
 30
0.0
 11
244.255
 21
6.65043
 31
0.0
  0
LINE
  8
0
 62
     1
 10
244.255
 20
6.65043
 30
0.0
 11
244.169
 21
6.11572
 31
0.0
  0
LINE
  8
0
 62
     1
 10
244.169
 20
6.11572
 30
0.0
 11
244.255
 21
5.5838
 31
0.0
  0
LINE
  8
0
 62
     1
 10
244.255
 20
5.5838
 30
0.0
 11
244.5
 21
5.10286
 31
0.0
  0
LINE
  8
0
 62
     1
 10
244.5
 20
5.10286
 30
0.0
 11
244.88
 21
4.72115
 31
0.0
  0
LINE
  8
0
 62
     1
 10
244.88
 20
4.72115
 30
0.0
 11
245.361
 21
4.47587
 31
0.0
  0
LINE
  8
0
 62
     1
 10
245.361
 20
4.47587
 30
0.0
 11
245.894
 21
4.3918
 31
0.0
  0
LINE
  8
0
 62
     1
 10
245.894
 20
4.3918
 30
0.0
 11
246.428
 21
4.47587
 31
0.0
  0
LINE
  8
0
 62
     1
 10
246.428
 20
4.47587
 30
0.0
 11
246.908
 21
4.72115
 31
0.0
  0
LINE
  8
0
 62
     1
 10
246.908
 20
4.72115
 30
0.0
 11
247.29
 21
5.10286
 31
0.0
  0
LINE
  8
0
 62
     1
 10
247.29
 20
5.10286
 30
0.0
 11
247.536
 21
5.5838
 31
0.0
  0
LINE
  8
0
 62
     1
 10
247.536
 20
5.5838
 30
0.0
 11
247.62
 21
6.11572
 31
0.0
  0
LINE
  8
0
 62
     1
 10
247.62
 20
6.11572
 30
0.0
 11
247.536
 21
6.65043
 31
0.0
  0
LINE
  8
0
 62
     1
 10
247.536
 20
6.65043
 30
0.0
 11
247.29
 21
7.12996
 31
0.0
  0
LINE
  8
0
 62
     1
 10
247.29
 20
7.12996
 30
0.0
 11
246.908
 21
7.5117
 31
0.0
  0
LINE
  8
0
 62
     1
 10
246.908
 20
7.5117
 30
0.0
 11
246.428
 21
7.75698
 31
0.0
  0
LINE
  8
0
 62
     1
 10
246.428
 20
7.75698
 30
0.0
 11
245.894
 21
7.84105
 31
0.0
  0
LINE
  8
0
 62
     1
 10
245.894
 20
7.84105
 30
0.0
 11
245.361
 21
7.75698
 31
0.0
  0
LINE
  8
0
 62
     1
 10
125.473
 20
7.75698
 30
0.0
 11
124.992
 21
7.5117
 31
0.0
  0
LINE
  8
0
 62
     1
 10
124.992
 20
7.5117
 30
0.0
 11
124.612
 21
7.12996
 31
0.0
  0
LINE
  8
0
 62
     1
 10
124.612
 20
7.12996
 30
0.0
 11
124.365
 21
6.65043
 31
0.0
  0
LINE
  8
0
 62
     1
 10
124.365
 20
6.65043
 30
0.0
 11
124.281
 21
6.11572
 31
0.0
  0
LINE
  8
0
 62
     1
 10
124.281
 20
6.11572
 30
0.0
 11
124.365
 21
5.5838
 31
0.0
  0
LINE
  8
0
 62
     1
 10
124.365
 20
5.5838
 30
0.0
 11
124.612
 21
5.10286
 31
0.0
  0
LINE
  8
0
 62
     1
 10
124.612
 20
5.10286
 30
0.0
 11
124.992
 21
4.72115
 31
0.0
  0
LINE
  8
0
 62
     1
 10
124.992
 20
4.72115
 30
0.0
 11
125.473
 21
4.47587
 31
0.0
  0
LINE
  8
0
 62
     1
 10
125.473
 20
4.47587
 30
0.0
 11
126.007
 21
4.3918
 31
0.0
  0
LINE
  8
0
 62
     1
 10
126.007
 20
4.3918
 30
0.0
 11
126.54
 21
4.47587
 31
0.0
  0
LINE
  8
0
 62
     1
 10
126.54
 20
4.47587
 30
0.0
 11
127.021
 21
4.72115
 31
0.0
  0
LINE
  8
0
 62
     1
 10
127.021
 20
4.72115
 30
0.0
 11
127.403
 21
5.10286
 31
0.0
  0
LINE
  8
0
 62
     1
 10
127.403
 20
5.10286
 30
0.0
 11
127.648
 21
5.5838
 31
0.0
  0
LINE
  8
0
 62
     1
 10
127.648
 20
5.5838
 30
0.0
 11
127.732
 21
6.11572
 31
0.0
  0
LINE
  8
0
 62
     1
 10
127.732
 20
6.11572
 30
0.0
 11
127.648
 21
6.65043
 31
0.0
  0
LINE
  8
0
 62
     1
 10
127.648
 20
6.65043
 30
0.0
 11
127.403
 21
7.12996
 31
0.0
  0
LINE
  8
0
 62
     1
 10
127.403
 20
7.12996
 30
0.0
 11
127.021
 21
7.5117
 31
0.0
  0
LINE
  8
0
 62
     1
 10
127.021
 20
7.5117
 30
0.0
 11
126.54
 21
7.75698
 31
0.0
  0
LINE
  8
0
 62
     1
 10
126.54
 20
7.75698
 30
0.0
 11
126.007
 21
7.84105
 31
0.0
  0
LINE
  8
0
 62
     1
 10
126.007
 20
7.84105
 30
0.0
 11
125.473
 21
7.75698
 31
0.0
  0
LINE
  8
0
 62
     1
 10
5.58518
 20
7.75698
 30
0.0
 11
5.10565
 21
7.5117
 31
0.0
  0
LINE
  8
0
 62
     1
 10
5.10565
 20
7.5117
 30
0.0
 11
4.72391
 21
7.12996
 31
0.0
  0
LINE
  8
0
 62
     1
 10
4.72391
 20
7.12996
 30
0.0
 11
4.47862
 21
6.65043
 31
0.0
  0
LINE
  8
0
 62
     1
 10
4.47862
 20
6.65043
 30
0.0
 11
4.39318
 21
6.11572
 31
0.0
  0
LINE
  8
0
 62
     1
 10
4.39318
 20
6.11572
 30
0.0
 11
4.47862
 21
5.5838
 31
0.0
  0
LINE
  8
0
 62
     1
 10
4.47862
 20
5.5838
 30
0.0
 11
4.72391
 21
5.10286
 31
0.0
  0
LINE
  8
0
 62
     1
 10
4.72391
 20
5.10286
 30
0.0
 11
5.10565
 21
4.72115
 31
0.0
  0
LINE
  8
0
 62
     1
 10
5.10565
 20
4.72115
 30
0.0
 11
5.58518
 21
4.47587
 31
0.0
  0
LINE
  8
0
 62
     1
 10
5.58518
 20
4.47587
 30
0.0
 11
6.11851
 21
4.3918
 31
0.0
  0
LINE
  8
0
 62
     1
 10
6.11851
 20
4.3918
 30
0.0
 11
6.65318
 21
4.47587
 31
0.0
  0
LINE
  8
0
 62
     1
 10
6.65318
 20
4.47587
 30
0.0
 11
7.13274
 21
4.72115
 31
0.0
  0
LINE
  8
0
 62
     1
 10
7.13274
 20
4.72115
 30
0.0
 11
7.51445
 21
5.10286
 31
0.0
  0
LINE
  8
0
 62
     1
 10
7.51445
 20
5.10286
 30
0.0
 11
7.75974
 21
5.5838
 31
0.0
  0
LINE
  8
0
 62
     1
 10
7.75974
 20
5.5838
 30
0.0
 11
7.8438
 21
6.11572
 31
0.0
  0
LINE
  8
0
 62
     1
 10
7.8438
 20
6.11572
 30
0.0
 11
7.75974
 21
6.65043
 31
0.0
  0
LINE
  8
0
 62
     1
 10
7.75974
 20
6.65043
 30
0.0
 11
7.51445
 21
7.12996
 31
0.0
  0
LINE
  8
0
 62
     1
 10
7.51445
 20
7.12996
 30
0.0
 11
7.13274
 21
7.5117
 31
0.0
  0
LINE
  8
0
 62
     1
 10
7.13274
 20
7.5117
 30
0.0
 11
6.65318
 21
7.75698
 31
0.0
  0
LINE
  8
0
 62
     1
 10
6.65318
 20
7.75698
 30
0.0
 11
6.11851
 21
7.84105
 31
0.0
  0
LINE
  8
0
 62
     1
 10
6.11851
 20
7.84105
 30
0.0
 11
5.58518
 21
7.75698
 31
0.0
  0
LINE
  8
0
 62
     1
 10
125.473
 20
143.583
 30
0.0
 11
124.992
 21
143.338
 31
0.0
  0
LINE
  8
0
 62
     1
 10
124.992
 20
143.338
 30
0.0
 11
124.612
 21
142.956
 31
0.0
  0
LINE
  8
0
 62
     1
 10
124.612
 20
142.956
 30
0.0
 11
124.365
 21
142.477
 31
0.0
  0
LINE
  8
0
 62
     1
 10
124.365
 20
142.477
 30
0.0
 11
124.281
 21
141.942
 31
0.0
  0
LINE
  8
0
 62
     1
 10
124.281
 20
141.942
 30
0.0
 11
124.365
 21
141.409
 31
0.0
  0
LINE
  8
0
 62
     1
 10
124.365
 20
141.409
 30
0.0
 11
124.612
 21
140.929
 31
0.0
  0
LINE
  8
0
 62
     1
 10
124.612
 20
140.929
 30
0.0
 11
124.992
 21
140.547
 31
0.0
  0
LINE
  8
0
 62
     1
 10
124.992
 20
140.547
 30
0.0
 11
125.473
 21
140.302
 31
0.0
  0
LINE
  8
0
 62
     1
 10
125.473
 20
140.302
 30
0.0
 11
126.007
 21
140.217
 31
0.0
  0
LINE
  8
0
 62
     1
 10
126.007
 20
140.217
 30
0.0
 11
126.54
 21
140.302
 31
0.0
  0
LINE
  8
0
 62
     1
 10
126.54
 20
140.302
 30
0.0
 11
127.021
 21
140.547
 31
0.0
  0
LINE
  8
0
 62
     1
 10
127.021
 20
140.547
 30
0.0
 11
127.403
 21
140.929
 31
0.0
  0
LINE
  8
0
 62
     1
 10
127.403
 20
140.929
 30
0.0
 11
127.648
 21
141.409
 31
0.0
  0
LINE
  8
0
 62
     1
 10
127.648
 20
141.409
 30
0.0
 11
127.732
 21
141.942
 31
0.0
  0
LINE
  8
0
 62
     1
 10
127.732
 20
141.942
 30
0.0
 11
127.648
 21
142.477
 31
0.0
  0
LINE
  8
0
 62
     1
 10
127.648
 20
142.477
 30
0.0
 11
127.403
 21
142.956
 31
0.0
  0
LINE
  8
0
 62
     1
 10
127.403
 20
142.956
 30
0.0
 11
127.021
 21
143.338
 31
0.0
  0
LINE
  8
0
 62
     1
 10
127.021
 20
143.338
 30
0.0
 11
126.54
 21
143.583
 31
0.0
  0
LINE
  8
0
 62
     1
 10
126.54
 20
143.583
 30
0.0
 11
126.007
 21
143.667
 31
0.0
  0
LINE
  8
0
 62
     1
 10
126.007
 20
143.667
 30
0.0
 11
125.473
 21
143.583
 31
0.0
  0
LINE
  8
0
 62
     1
 10
245.361
 20
143.583
 30
0.0
 11
244.88
 21
143.338
 31
0.0
  0
LINE
  8
0
 62
     1
 10
244.88
 20
143.338
 30
0.0
 11
244.5
 21
142.956
 31
0.0
  0
LINE
  8
0
 62
     1
 10
244.5
 20
142.956
 30
0.0
 11
244.255
 21
142.477
 31
0.0
  0
LINE
  8
0
 62
     1
 10
244.255
 20
142.477
 30
0.0
 11
244.169
 21
141.942
 31
0.0
  0
LINE
  8
0
 62
     1
 10
244.169
 20
141.942
 30
0.0
 11
244.255
 21
141.409
 31
0.0
  0
LINE
  8
0
 62
     1
 10
244.255
 20
141.409
 30
0.0
 11
244.5
 21
140.929
 31
0.0
  0
LINE
  8
0
 62
     1
 10
244.5
 20
140.929
 30
0.0
 11
244.88
 21
140.547
 31
0.0
  0
LINE
  8
0
 62
     1
 10
244.88
 20
140.547
 30
0.0
 11
245.361
 21
140.302
 31
0.0
  0
LINE
  8
0
 62
     1
 10
245.361
 20
140.302
 30
0.0
 11
245.894
 21
140.217
 31
0.0
  0
LINE
  8
0
 62
     1
 10
245.894
 20
140.217
 30
0.0
 11
246.428
 21
140.302
 31
0.0
  0
LINE
  8
0
 62
     1
 10
246.428
 20
140.302
 30
0.0
 11
246.908
 21
140.547
 31
0.0
  0
LINE
  8
0
 62
     1
 10
246.908
 20
140.547
 30
0.0
 11
247.29
 21
140.929
 31
0.0
  0
LINE
  8
0
 62
     1
 10
247.29
 20
140.929
 30
0.0
 11
247.536
 21
141.409
 31
0.0
  0
LINE
  8
0
 62
     1
 10
247.536
 20
141.409
 30
0.0
 11
247.62
 21
141.942
 31
0.0
  0
LINE
  8
0
 62
     1
 10
247.62
 20
141.942
 30
0.0
 11
247.536
 21
142.477
 31
0.0
  0
LINE
  8
0
 62
     1
 10
247.536
 20
142.477
 30
0.0
 11
247.29
 21
142.956
 31
0.0
  0
LINE
  8
0
 62
     1
 10
247.29
 20
142.956
 30
0.0
 11
246.908
 21
143.338
 31
0.0
  0
LINE
  8
0
 62
     1
 10
246.908
 20
143.338
 30
0.0
 11
246.428
 21
143.583
 31
0.0
  0
LINE
  8
0
 62
     1
 10
246.428
 20
143.583
 30
0.0
 11
245.894
 21
143.667
 31
0.0
  0
LINE
  8
0
 62
     1
 10
245.894
 20
143.667
 30
0.0
 11
245.361
 21
143.583
 31
0.0
  0
LINE
  8
0
 62
     1
 10
365.252
 20
143.583
 30
0.0
 11
364.769
 21
143.338
 31
0.0
  0
LINE
  8
0
 62
     1
 10
364.769
 20
143.338
 30
0.0
 11
364.388
 21
142.956
 31
0.0
  0
LINE
  8
0
 62
     1
 10
364.388
 20
142.956
 30
0.0
 11
364.141
 21
142.477
 31
0.0
  0
LINE
  8
0
 62
     1
 10
364.141
 20
142.477
 30
0.0
 11
364.06
 21
141.942
 31
0.0
  0
LINE
  8
0
 62
     1
 10
364.06
 20
141.942
 30
0.0
 11
364.141
 21
141.409
 31
0.0
  0
LINE
  8
0
 62
     1
 10
364.141
 20
141.409
 30
0.0
 11
364.388
 21
140.929
 31
0.0
  0
LINE
  8
0
 62
     1
 10
364.388
 20
140.929
 30
0.0
 11
364.769
 21
140.547
 31
0.0
  0
LINE
  8
0
 62
     1
 10
364.769
 20
140.547
 30
0.0
 11
365.252
 21
140.302
 31
0.0
  0
LINE
  8
0
 62
     1
 10
365.252
 20
140.302
 30
0.0
 11
365.781
 21
140.217
 31
0.0
  0
LINE
  8
0
 62
     1
 10
365.781
 20
140.217
 30
0.0
 11
366.317
 21
140.302
 31
0.0
  0
LINE
  8
0
 62
     1
 10
366.317
 20
140.302
 30
0.0
 11
366.797
 21
140.547
 31
0.0
  0
LINE
  8
0
 62
     1
 10
366.797
 20
140.547
 30
0.0
 11
367.178
 21
140.929
 31
0.0
  0
LINE
  8
0
 62
     1
 10
367.178
 20
140.929
 30
0.0
 11
367.425
 21
141.409
 31
0.0
  0
LINE
  8
0
 62
     1
 10
367.425
 20
141.409
 30
0.0
 11
367.506
 21
141.942
 31
0.0
  0
LINE
  8
0
 62
     1
 10
367.506
 20
141.942
 30
0.0
 11
367.425
 21
142.477
 31
0.0
  0
LINE
  8
0
 62
     1
 10
367.425
 20
142.477
 30
0.0
 11
367.178
 21
142.956
 31
0.0
  0
LINE
  8
0
 62
     1
 10
367.178
 20
142.956
 30
0.0
 11
366.797
 21
143.338
 31
0.0
  0
LINE
  8
0
 62
     1
 10
366.797
 20
143.338
 30
0.0
 11
366.317
 21
143.583
 31
0.0
  0
LINE
  8
0
 62
     1
 10
366.317
 20
143.583
 30
0.0
 11
365.781
 21
143.667
 31
0.0
  0
LINE
  8
0
 62
     1
 10
365.781
 20
143.667
 30
0.0
 11
365.252
 21
143.583
 31
0.0
  0
LINE
  8
0
 62
     1
 10
5.58518
 20
143.583
 30
0.0
 11
5.10565
 21
143.338
 31
0.0
  0
LINE
  8
0
 62
     1
 10
5.10565
 20
143.338
 30
0.0
 11
4.72391
 21
142.956
 31
0.0
  0
LINE
  8
0
 62
     1
 10
4.72391
 20
142.956
 30
0.0
 11
4.47862
 21
142.477
 31
0.0
  0
LINE
  8
0
 62
     1
 10
4.47862
 20
142.477
 30
0.0
 11
4.39318
 21
141.942
 31
0.0
  0
LINE
  8
0
 62
     1
 10
4.39318
 20
141.942
 30
0.0
 11
4.47862
 21
141.409
 31
0.0
  0
LINE
  8
0
 62
     1
 10
4.47862
 20
141.409
 30
0.0
 11
4.72391
 21
140.929
 31
0.0
  0
LINE
  8
0
 62
     1
 10
4.72391
 20
140.929
 30
0.0
 11
5.10565
 21
140.547
 31
0.0
  0
LINE
  8
0
 62
     1
 10
5.10565
 20
140.547
 30
0.0
 11
5.58518
 21
140.302
 31
0.0
  0
LINE
  8
0
 62
     1
 10
5.58518
 20
140.302
 30
0.0
 11
6.11851
 21
140.217
 31
0.0
  0
LINE
  8
0
 62
     1
 10
6.11851
 20
140.217
 30
0.0
 11
6.65318
 21
140.302
 31
0.0
  0
LINE
  8
0
 62
     1
 10
6.65318
 20
140.302
 30
0.0
 11
7.13274
 21
140.547
 31
0.0
  0
LINE
  8
0
 62
     1
 10
7.13274
 20
140.547
 30
0.0
 11
7.51445
 21
140.929
 31
0.0
  0
LINE
  8
0
 62
     1
 10
7.51445
 20
140.929
 30
0.0
 11
7.75974
 21
141.409
 31
0.0
  0
LINE
  8
0
 62
     1
 10
7.75974
 20
141.409
 30
0.0
 11
7.8438
 21
141.942
 31
0.0
  0
LINE
  8
0
 62
     1
 10
7.8438
 20
141.942
 30
0.0
 11
7.75974
 21
142.477
 31
0.0
  0
LINE
  8
0
 62
     1
 10
7.75974
 20
142.477
 30
0.0
 11
7.51445
 21
142.956
 31
0.0
  0
LINE
  8
0
 62
     1
 10
7.51445
 20
142.956
 30
0.0
 11
7.13274
 21
143.338
 31
0.0
  0
LINE
  8
0
 62
     1
 10
7.13274
 20
143.338
 30
0.0
 11
6.65318
 21
143.583
 31
0.0
  0
LINE
  8
0
 62
     1
 10
6.65318
 20
143.583
 30
0.0
 11
6.11851
 21
143.667
 31
0.0
  0
LINE
  8
0
 62
     1
 10
6.11851
 20
143.667
 30
0.0
 11
5.58518
 21
143.583
 31
0.0
  0
ENDSEC
  0
EOF
