  0
SECTION
  2
HEADER
  9
$ACADVER
  1
AC1009
  9
$EXTMIN
 10
0.0
 20
0.0
 30
0.0
  9
$EXTMAX
 10
1000.0
 20
1000.0
 30
0.0
  9
$FILLMODE
 70
 0
  9
$SPLFRAME
 70
 1
  0
ENDSEC
  0
SECTION
  2
TABLES
  0
TABLE
  2
LAYER
 70
1
  0
LAYER
  2
0
 70
     0
 62
     7
  6
CONTINUOUS
  0
ENDTAB
  0
ENDSEC
  0
SECTION
  2
ENTITIES
  0
LINE
  8
0
 62
     1
 10
365.806
 20
147.967
 30
0.0
 11
366.279
 21
147.949
 31
0.0
  0
LINE
  8
0
 62
     1
 10
366.279
 20
147.949
 30
0.0
 11
366.748
 21
147.894
 31
0.0
  0
LINE
  8
0
 62
     1
 10
366.748
 20
147.894
 30
0.0
 11
367.21
 21
147.803
 31
0.0
  0
LINE
  8
0
 62
     1
 10
367.21
 20
147.803
 30
0.0
 11
367.661
 21
147.675
 31
0.0
  0
LINE
  8
0
 62
     1
 10
367.661
 20
147.675
 30
0.0
 11
368.106
 21
147.511
 31
0.0
  0
LINE
  8
0
 62
     1
 10
368.106
 20
147.511
 30
0.0
 11
368.533
 21
147.314
 31
0.0
  0
LINE
  8
0
 62
     1
 10
368.533
 20
147.314
 30
0.0
 11
368.942
 21
147.085
 31
0.0
  0
LINE
  8
0
 62
     1
 10
368.942
 20
147.085
 30
0.0
 11
369.334
 21
146.822
 31
0.0
  0
LINE
  8
0
 62
     1
 10
369.334
 20
146.822
 30
0.0
 11
369.704
 21
146.529
 31
0.0
  0
LINE
  8
0
 62
     1
 10
369.704
 20
146.529
 30
0.0
 11
370.05
 21
146.21
 31
0.0
  0
LINE
  8
0
 62
     1
 10
370.05
 20
146.21
 30
0.0
 11
370.371
 21
145.865
 31
0.0
  0
LINE
  8
0
 62
     1
 10
370.371
 20
145.865
 30
0.0
 11
370.664
 21
145.495
 31
0.0
  0
LINE
  8
0
 62
     1
 10
370.664
 20
145.495
 30
0.0
 11
370.925
 21
145.102
 31
0.0
  0
LINE
  8
0
 62
     1
 10
370.925
 20
145.102
 30
0.0
 11
371.154
 21
144.691
 31
0.0
  0
LINE
  8
0
 62
     1
 10
371.154
 20
144.691
 30
0.0
 11
371.352
 21
144.264
 31
0.0
  0
LINE
  8
0
 62
     1
 10
371.352
 20
144.264
 30
0.0
 11
371.514
 21
143.822
 31
0.0
  0
LINE
  8
0
 62
     1
 10
371.514
 20
143.822
 30
0.0
 11
371.641
 21
143.368
 31
0.0
  0
LINE
  8
0
 62
     1
 10
371.641
 20
143.368
 30
0.0
 11
371.733
 21
142.907
 31
0.0
  0
LINE
  8
0
 62
     1
 10
371.733
 20
142.907
 30
0.0
 11
371.789
 21
142.44
 31
0.0
  0
LINE
  8
0
 62
     1
 10
371.789
 20
142.44
 30
0.0
 11
371.807
 21
141.967
 31
0.0
  0
LINE
  8
0
 62
     1
 10
371.807
 20
141.967
 30
0.0
 11
371.807
 21
6.09092
 31
0.0
  0
LINE
  8
0
 62
     1
 10
371.807
 20
6.09092
 30
0.0
 11
371.789
 21
5.62102
 31
0.0
  0
LINE
  8
0
 62
     1
 10
371.789
 20
5.62102
 30
0.0
 11
371.733
 21
5.15387
 31
0.0
  0
LINE
  8
0
 62
     1
 10
371.733
 20
5.15387
 30
0.0
 11
371.641
 21
4.69085
 31
0.0
  0
LINE
  8
0
 62
     1
 10
371.641
 20
4.69085
 30
0.0
 11
371.514
 21
4.23746
 31
0.0
  0
LINE
  8
0
 62
     1
 10
371.514
 20
4.23746
 30
0.0
 11
371.352
 21
3.79511
 31
0.0
  0
LINE
  8
0
 62
     1
 10
371.352
 20
3.79511
 30
0.0
 11
371.154
 21
3.36793
 31
0.0
  0
LINE
  8
0
 62
     1
 10
371.154
 20
3.36793
 30
0.0
 11
370.925
 21
2.95727
 31
0.0
  0
LINE
  8
0
 62
     1
 10
370.925
 20
2.95727
 30
0.0
 11
370.664
 21
2.56453
 31
0.0
  0
LINE
  8
0
 62
     1
 10
370.664
 20
2.56453
 30
0.0
 11
370.371
 21
2.19659
 31
0.0
  0
LINE
  8
0
 62
     1
 10
370.371
 20
2.19659
 30
0.0
 11
370.05
 21
1.84933
 31
0.0
  0
LINE
  8
0
 62
     1
 10
370.05
 20
1.84933
 30
0.0
 11
369.704
 21
1.52962
 31
0.0
  0
LINE
  8
0
 62
     1
 10
369.704
 20
1.52962
 30
0.0
 11
369.334
 21
1.23748
 31
0.0
  0
LINE
  8
0
 62
     1
 10
369.334
 20
1.23748
 30
0.0
 11
368.942
 21
0.975653
 31
0.0
  0
LINE
  8
0
 62
     1
 10
368.942
 20
0.975653
 30
0.0
 11
368.533
 21
0.745518
 31
0.0
  0
LINE
  8
0
 62
     1
 10
368.533
 20
0.745518
 30
0.0
 11
368.106
 21
0.549836
 31
0.0
  0
LINE
  8
0
 62
     1
 10
368.106
 20
0.549836
 30
0.0
 11
367.661
 21
0.385851
 31
0.0
  0
LINE
  8
0
 62
     1
 10
367.661
 20
0.385851
 30
0.0
 11
367.21
 21
0.257693
 31
0.0
  0
LINE
  8
0
 62
     1
 10
367.21
 20
0.257693
 30
0.0
 11
366.748
 21
0.165365
 31
0.0
  0
LINE
  8
0
 62
     1
 10
366.748
 20
0.165365
 30
0.0
 11
366.279
 21
0.110243
 31
0.0
  0
LINE
  8
0
 62
     1
 10
366.279
 20
0.110243
 30
0.0
 11
365.806
 21
0.0909507
 31
0.0
  0
LINE
  8
0
 62
     1
 10
365.806
 20
0.0909507
 30
0.0
 11
6.09505
 21
0.0909507
 31
0.0
  0
LINE
  8
0
 62
     1
 10
6.09505
 20
0.0909507
 30
0.0
 11
5.62377
 21
0.110243
 31
0.0
  0
LINE
  8
0
 62
     1
 10
5.62377
 20
0.110243
 30
0.0
 11
5.15525
 21
0.165365
 31
0.0
  0
LINE
  8
0
 62
     1
 10
5.15525
 20
0.165365
 30
0.0
 11
4.6936
 21
0.257693
 31
0.0
  0
LINE
  8
0
 62
     1
 10
4.6936
 20
0.257693
 30
0.0
 11
4.24021
 21
0.385851
 31
0.0
  0
LINE
  8
0
 62
     1
 10
4.24021
 20
0.385851
 30
0.0
 11
3.79786
 21
0.549836
 31
0.0
  0
LINE
  8
0
 62
     1
 10
3.79786
 20
0.549836
 30
0.0
 11
3.37068
 21
0.745518
 31
0.0
  0
LINE
  8
0
 62
     1
 10
3.37068
 20
0.745518
 30
0.0
 11
2.96003
 21
0.975653
 31
0.0
  0
LINE
  8
0
 62
     1
 10
2.96003
 20
0.975653
 30
0.0
 11
2.56728
 21
1.23748
 31
0.0
  0
LINE
  8
0
 62
     1
 10
2.56728
 20
1.23748
 30
0.0
 11
2.19797
 21
1.52962
 31
0.0
  0
LINE
  8
0
 62
     1
 10
2.19797
 20
1.52962
 30
0.0
 11
1.85208
 21
1.84933
 31
0.0
  0
LINE
  8
0
 62
     1
 10
1.85208
 20
1.84933
 30
0.0
 11
1.53238
 21
2.19659
 31
0.0
  0
LINE
  8
0
 62
     1
 10
1.53238
 20
2.19659
 30
0.0
 11
1.24024
 21
2.56453
 31
0.0
  0
LINE
  8
0
 62
     1
 10
1.24024
 20
2.56453
 30
0.0
 11
0.978408
 21
2.95727
 31
0.0
  0
LINE
  8
0
 62
     1
 10
0.978408
 20
2.95727
 30
0.0
 11
0.748273
 21
3.36793
 31
0.0
  0
LINE
  8
0
 62
     1
 10
0.748273
 20
3.36793
 30
0.0
 11
0.551215
 21
3.79511
 31
0.0
  0
LINE
  8
0
 62
     1
 10
0.551215
 20
3.79511
 30
0.0
 11
0.38723
 21
4.23746
 31
0.0
  0
LINE
  8
0
 62
     1
 10
0.38723
 20
4.23746
 30
0.0
 11
0.259071
 21
4.69085
 31
0.0
  0
LINE
  8
0
 62
     1
 10
0.259071
 20
4.69085
 30
0.0
 11
0.168121
 21
5.15387
 31
0.0
  0
LINE
  8
0
 62
     1
 10
0.168121
 20
5.15387
 30
0.0
 11
0.112999
 21
5.62102
 31
0.0
  0
LINE
  8
0
 62
     1
 10
0.112999
 20
5.62102
 30
0.0
 11
0.0937066
 21
6.0923
 31
0.0
  0
LINE
  8
0
 62
     1
 10
0.0937066
 20
6.0923
 30
0.0
 11
0.0950846
 21
141.967
 31
0.0
  0
LINE
  8
0
 62
     1
 10
0.0950846
 20
141.967
 30
0.0
 11
0.112999
 21
142.44
 31
0.0
  0
LINE
  8
0
 62
     1
 10
0.112999
 20
142.44
 30
0.0
 11
0.168121
 21
142.907
 31
0.0
  0
LINE
  8
0
 62
     1
 10
0.168121
 20
142.907
 30
0.0
 11
0.259071
 21
143.368
 31
0.0
  0
LINE
  8
0
 62
     1
 10
0.259071
 20
143.368
 30
0.0
 11
0.38723
 21
143.822
 31
0.0
  0
LINE
  8
0
 62
     1
 10
0.38723
 20
143.822
 30
0.0
 11
0.551215
 21
144.264
 31
0.0
  0
LINE
  8
0
 62
     1
 10
0.551215
 20
144.264
 30
0.0
 11
0.748273
 21
144.691
 31
0.0
  0
LINE
  8
0
 62
     1
 10
0.748273
 20
144.691
 30
0.0
 11
0.978408
 21
145.102
 31
0.0
  0
LINE
  8
0
 62
     1
 10
0.978408
 20
145.102
 30
0.0
 11
1.24024
 21
145.495
 31
0.0
  0
LINE
  8
0
 62
     1
 10
1.24024
 20
145.495
 30
0.0
 11
1.53238
 21
145.865
 31
0.0
  0
LINE
  8
0
 62
     1
 10
1.53238
 20
145.865
 30
0.0
 11
1.85208
 21
146.21
 31
0.0
  0
LINE
  8
0
 62
     1
 10
1.85208
 20
146.21
 30
0.0
 11
2.19797
 21
146.529
 31
0.0
  0
LINE
  8
0
 62
     1
 10
2.19797
 20
146.529
 30
0.0
 11
2.56728
 21
146.822
 31
0.0
  0
LINE
  8
0
 62
     1
 10
2.56728
 20
146.822
 30
0.0
 11
2.96003
 21
147.085
 31
0.0
  0
LINE
  8
0
 62
     1
 10
2.96003
 20
147.085
 30
0.0
 11
3.37068
 21
147.314
 31
0.0
  0
LINE
  8
0
 62
     1
 10
3.37068
 20
147.314
 30
0.0
 11
3.79786
 21
147.511
 31
0.0
  0
LINE
  8
0
 62
     1
 10
3.79786
 20
147.511
 30
0.0
 11
4.24021
 21
147.675
 31
0.0
  0
LINE
  8
0
 62
     1
 10
4.24021
 20
147.675
 30
0.0
 11
4.6936
 21
147.803
 31
0.0
  0
LINE
  8
0
 62
     1
 10
4.6936
 20
147.803
 30
0.0
 11
5.15525
 21
147.894
 31
0.0
  0
LINE
  8
0
 62
     1
 10
5.15525
 20
147.894
 30
0.0
 11
5.62377
 21
147.949
 31
0.0
  0
LINE
  8
0
 62
     1
 10
5.62377
 20
147.949
 30
0.0
 11
6.09505
 21
147.968
 31
0.0
  0
LINE
  8
0
 62
     1
 10
6.09505
 20
147.968
 30
0.0
 11
365.806
 21
147.967
 31
0.0
  0
LINE
  8
0
 62
     1
 10
365.252
 20
7.75698
 30
0.0
 11
364.769
 21
7.5117
 31
0.0
  0
LINE
  8
0
 62
     1
 10
364.769
 20
7.5117
 30
0.0
 11
364.388
 21
7.12996
 31
0.0
  0
LINE
  8
0
 62
     1
 10
364.388
 20
7.12996
 30
0.0
 11
364.141
 21
6.65043
 31
0.0
  0
LINE
  8
0
 62
     1
 10
364.141
 20
6.65043
 30
0.0
 11
364.06
 21
6.11572
 31
0.0
  0
LINE
  8
0
 62
     1
 10
364.06
 20
6.11572
 30
0.0
 11
364.141
 21
5.5838
 31
0.0
  0
LINE
  8
0
 62
     1
 10
364.141
 20
5.5838
 30
0.0
 11
364.388
 21
5.10286
 31
0.0
  0
LINE
  8
0
 62
     1
 10
364.388
 20
5.10286
 30
0.0
 11
364.769
 21
4.72115
 31
0.0
  0
LINE
  8
0
 62
     1
 10
364.769
 20
4.72115
 30
0.0
 11
365.252
 21
4.47587
 31
0.0
  0
LINE
  8
0
 62
     1
 10
365.252
 20
4.47587
 30
0.0
 11
365.781
 21
4.3918
 31
0.0
  0
LINE
  8
0
 62
     1
 10
365.781
 20
4.3918
 30
0.0
 11
366.317
 21
4.47587
 31
0.0
  0
LINE
  8
0
 62
     1
 10
366.317
 20
4.47587
 30
0.0
 11
366.797
 21
4.72115
 31
0.0
  0
LINE
  8
0
 62
     1
 10
366.797
 20
4.72115
 30
0.0
 11
367.178
 21
5.10286
 31
0.0
  0
LINE
  8
0
 62
     1
 10
367.178
 20
5.10286
 30
0.0
 11
367.425
 21
5.5838
 31
0.0
  0
LINE
  8
0
 62
     1
 10
367.425
 20
5.5838
 30
0.0
 11
367.506
 21
6.11572
 31
0.0
  0
LINE
  8
0
 62
     1
 10
367.506
 20
6.11572
 30
0.0
 11
367.425
 21
6.65043
 31
0.0
  0
LINE
  8
0
 62
     1
 10
367.425
 20
6.65043
 30
0.0
 11
367.178
 21
7.12996
 31
0.0
  0
LINE
  8
0
 62
     1
 10
367.178
 20
7.12996
 30
0.0
 11
366.797
 21
7.5117
 31
0.0
  0
LINE
  8
0
 62
     1
 10
366.797
 20
7.5117
 30
0.0
 11
366.317
 21
7.75698
 31
0.0
  0
LINE
  8
0
 62
     1
 10
366.317
 20
7.75698
 30
0.0
 11
365.781
 21
7.84105
 31
0.0
  0
LINE
  8
0
 62
     1
 10
365.781
 20
7.84105
 30
0.0
 11
365.252
 21
7.75698
 31
0.0
  0
LINE
  8
0
 62
     1
 10
245.361
 20
7.75698
 30
0.0
 11
244.88
 21
7.5117
 31
0.0
  0
LINE
  8
0
 62
     1
 10
244.88
 20
7.5117
 30
0.0
 11
244.5
 21
7.12996
 31
0.0
  0
LINE
  8
0
 62
     1
 10
244.5
 20
7.12996
 30
0.0
 11
244.255
 21
6.65043
 31
0.0
  0
LINE
  8
0
 62
     1
 10
244.255
 20
6.65043
 30
0.0
 11
244.169
 21
6.11572
 31
0.0
  0
LINE
  8
0
 62
     1
 10
244.169
 20
6.11572
 30
0.0
 11
244.255
 21
5.5838
 31
0.0
  0
LINE
  8
0
 62
     1
 10
244.255
 20
5.5838
 30
0.0
 11
244.5
 21
5.10286
 31
0.0
  0
LINE
  8
0
 62
     1
 10
244.5
 20
5.10286
 30
0.0
 11
244.88
 21
4.72115
 31
0.0
  0
LINE
  8
0
 62
     1
 10
244.88
 20
4.72115
 30
0.0
 11
245.361
 21
4.47587
 31
0.0
  0
LINE
  8
0
 62
     1
 10
245.361
 20
4.47587
 30
0.0
 11
245.894
 21
4.3918
 31
0.0
  0
LINE
  8
0
 62
     1
 10
245.894
 20
4.3918
 30
0.0
 11
246.428
 21
4.47587
 31
0.0
  0
LINE
  8
0
 62
     1
 10
246.428
 20
4.47587
 30
0.0
 11
246.908
 21
4.72115
 31
0.0
  0
LINE
  8
0
 62
     1
 10
246.908
 20
4.72115
 30
0.0
 11
247.29
 21
5.10286
 31
0.0
  0
LINE
  8
0
 62
     1
 10
247.29
 20
5.10286
 30
0.0
 11
247.536
 21
5.5838
 31
0.0
  0
LINE
  8
0
 62
     1
 10
247.536
 20
5.5838
 30
0.0
 11
247.62
 21
6.11572
 31
0.0
  0
LINE
  8
0
 62
     1
 10
247.62
 20
6.11572
 30
0.0
 11
247.536
 21
6.65043
 31
0.0
  0
LINE
  8
0
 62
     1
 10
247.536
 20
6.65043
 30
0.0
 11
247.29
 21
7.12996
 31
0.0
  0
LINE
  8
0
 62
     1
 10
247.29
 20
7.12996
 30
0.0
 11
246.908
 21
7.5117
 31
0.0
  0
LINE
  8
0
 62
     1
 10
246.908
 20
7.5117
 30
0.0
 11
246.428
 21
7.75698
 31
0.0
  0
LINE
  8
0
 62
     1
 10
246.428
 20
7.75698
 30
0.0
 11
245.894
 21
7.84105
 31
0.0
  0
LINE
  8
0
 62
     1
 10
245.894
 20
7.84105
 30
0.0
 11
245.361
 21
7.75698
 31
0.0
  0
LINE
  8
0
 62
     1
 10
125.473
 20
7.75698
 30
0.0
 11
124.992
 21
7.5117
 31
0.0
  0
LINE
  8
0
 62
     1
 10
124.992
 20
7.5117
 30
0.0
 11
124.612
 21
7.12996
 31
0.0
  0
LINE
  8
0
 62
     1
 10
124.612
 20
7.12996
 30
0.0
 11
124.365
 21
6.65043
 31
0.0
  0
LINE
  8
0
 62
     1
 10
124.365
 20
6.65043
 30
0.0
 11
124.281
 21
6.11572
 31
0.0
  0
LINE
  8
0
 62
     1
 10
124.281
 20
6.11572
 30
0.0
 11
124.365
 21
5.5838
 31
0.0
  0
LINE
  8
0
 62
     1
 10
124.365
 20
5.5838
 30
0.0
 11
124.612
 21
5.10286
 31
0.0
  0
LINE
  8
0
 62
     1
 10
124.612
 20
5.10286
 30
0.0
 11
124.992
 21
4.72115
 31
0.0
  0
LINE
  8
0
 62
     1
 10
124.992
 20
4.72115
 30
0.0
 11
125.473
 21
4.47587
 31
0.0
  0
LINE
  8
0
 62
     1
 10
125.473
 20
4.47587
 30
0.0
 11
126.007
 21
4.3918
 31
0.0
  0
LINE
  8
0
 62
     1
 10
126.007
 20
4.3918
 30
0.0
 11
126.54
 21
4.47587
 31
0.0
  0
LINE
  8
0
 62
     1
 10
126.54
 20
4.47587
 30
0.0
 11
127.021
 21
4.72115
 31
0.0
  0
LINE
  8
0
 62
     1
 10
127.021
 20
4.72115
 30
0.0
 11
127.403
 21
5.10286
 31
0.0
  0
LINE
  8
0
 62
     1
 10
127.403
 20
5.10286
 30
0.0
 11
127.648
 21
5.5838
 31
0.0
  0
LINE
  8
0
 62
     1
 10
127.648
 20
5.5838
 30
0.0
 11
127.732
 21
6.11572
 31
0.0
  0
LINE
  8
0
 62
     1
 10
127.732
 20
6.11572
 30
0.0
 11
127.648
 21
6.65043
 31
0.0
  0
LINE
  8
0
 62
     1
 10
127.648
 20
6.65043
 30
0.0
 11
127.403
 21
7.12996
 31
0.0
  0
LINE
  8
0
 62
     1
 10
127.403
 20
7.12996
 30
0.0
 11
127.021
 21
7.5117
 31
0.0
  0
LINE
  8
0
 62
     1
 10
127.021
 20
7.5117
 30
0.0
 11
126.54
 21
7.75698
 31
0.0
  0
LINE
  8
0
 62
     1
 10
126.54
 20
7.75698
 30
0.0
 11
126.007
 21
7.84105
 31
0.0
  0
LINE
  8
0
 62
     1
 10
126.007
 20
7.84105
 30
0.0
 11
125.473
 21
7.75698
 31
0.0
  0
LINE
  8
0
 62
     1
 10
5.58518
 20
7.75698
 30
0.0
 11
5.10565
 21
7.5117
 31
0.0
  0
LINE
  8
0
 62
     1
 10
5.10565
 20
7.5117
 30
0.0
 11
4.72391
 21
7.12996
 31
0.0
  0
LINE
  8
0
 62
     1
 10
4.72391
 20
7.12996
 30
0.0
 11
4.47862
 21
6.65043
 31
0.0
  0
LINE
  8
0
 62
     1
 10
4.47862
 20
6.65043
 30
0.0
 11
4.39318
 21
6.11572
 31
0.0
  0
LINE
  8
0
 62
     1
 10
4.39318
 20
6.11572
 30
0.0
 11
4.47862
 21
5.5838
 31
0.0
  0
LINE
  8
0
 62
     1
 10
4.47862
 20
5.5838
 30
0.0
 11
4.72391
 21
5.10286
 31
0.0
  0
LINE
  8
0
 62
     1
 10
4.72391
 20
5.10286
 30
0.0
 11
5.10565
 21
4.72115
 31
0.0
  0
LINE
  8
0
 62
     1
 10
5.10565
 20
4.72115
 30
0.0
 11
5.58518
 21
4.47587
 31
0.0
  0
LINE
  8
0
 62
     1
 10
5.58518
 20
4.47587
 30
0.0
 11
6.11851
 21
4.3918
 31
0.0
  0
LINE
  8
0
 62
     1
 10
6.11851
 20
4.3918
 30
0.0
 11
6.65318
 21
4.47587
 31
0.0
  0
LINE
  8
0
 62
     1
 10
6.65318
 20
4.47587
 30
0.0
 11
7.13274
 21
4.72115
 31
0.0
  0
LINE
  8
0
 62
     1
 10
7.13274
 20
4.72115
 30
0.0
 11
7.51445
 21
5.10286
 31
0.0
  0
LINE
  8
0
 62
     1
 10
7.51445
 20
5.10286
 30
0.0
 11
7.75974
 21
5.5838
 31
0.0
  0
LINE
  8
0
 62
     1
 10
7.75974
 20
5.5838
 30
0.0
 11
7.8438
 21
6.11572
 31
0.0
  0
LINE
  8
0
 62
     1
 10
7.8438
 20
6.11572
 30
0.0
 11
7.75974
 21
6.65043
 31
0.0
  0
LINE
  8
0
 62
     1
 10
7.75974
 20
6.65043
 30
0.0
 11
7.51445
 21
7.12996
 31
0.0
  0
LINE
  8
0
 62
     1
 10
7.51445
 20
7.12996
 30
0.0
 11
7.13274
 21
7.5117
 31
0.0
  0
LINE
  8
0
 62
     1
 10
7.13274
 20
7.5117
 30
0.0
 11
6.65318
 21
7.75698
 31
0.0
  0
LINE
  8
0
 62
     1
 10
6.65318
 20
7.75698
 30
0.0
 11
6.11851
 21
7.84105
 31
0.0
  0
LINE
  8
0
 62
     1
 10
6.11851
 20
7.84105
 30
0.0
 11
5.58518
 21
7.75698
 31
0.0
  0
LINE
  8
0
 62
     1
 10
96.2201
 20
28.0679
 30
0.0
 11
99.4696
 21
28.0679
 31
0.0
  0
LINE
  8
0
 62
     1
 10
99.4696
 20
28.0679
 30
0.0
 11
99.4696
 21
13.9182
 31
0.0
  0
LINE
  8
0
 62
     1
 10
99.4696
 20
13.9182
 30
0.0
 11
96.2201
 21
13.9182
 31
0.0
  0
LINE
  8
0
 62
     1
 10
96.2201
 20
13.9182
 30
0.0
 11
96.2201
 21
28.0679
 31
0.0
  0
LINE
  8
0
 62
     1
 10
210.52
 20
28.0679
 30
0.0
 11
213.77
 21
28.0679
 31
0.0
  0
LINE
  8
0
 62
     1
 10
213.77
 20
28.0679
 30
0.0
 11
213.77
 21
13.9182
 31
0.0
  0
LINE
  8
0
 62
     1
 10
213.77
 20
13.9182
 30
0.0
 11
210.52
 21
13.9182
 31
0.0
  0
LINE
  8
0
 62
     1
 10
210.52
 20
13.9182
 30
0.0
 11
210.52
 21
28.0679
 31
0.0
  0
LINE
  8
0
 62
     1
 10
19.4317
 20
28.6177
 30
0.0
 11
33.3816
 21
28.6177
 31
0.0
  0
LINE
  8
0
 62
     1
 10
33.3816
 20
28.6177
 30
0.0
 11
33.3816
 21
14.6678
 31
0.0
  0
LINE
  8
0
 62
     1
 10
33.3816
 20
14.6678
 30
0.0
 11
19.4317
 21
14.6678
 31
0.0
  0
LINE
  8
0
 62
     1
 10
19.4317
 20
14.6678
 30
0.0
 11
19.4317
 21
28.6177
 31
0.0
  0
LINE
  8
0
 62
     1
 10
43.2442
 20
28.6177
 30
0.0
 11
57.1941
 21
28.6177
 31
0.0
  0
LINE
  8
0
 62
     1
 10
57.1941
 20
28.6177
 30
0.0
 11
57.1941
 21
14.6678
 31
0.0
  0
LINE
  8
0
 62
     1
 10
57.1941
 20
14.6678
 30
0.0
 11
43.2442
 21
14.6678
 31
0.0
  0
LINE
  8
0
 62
     1
 10
43.2442
 20
14.6678
 30
0.0
 11
43.2442
 21
28.6177
 31
0.0
  0
LINE
  8
0
 62
     1
 10
67.0567
 20
28.6177
 30
0.0
 11
81.0066
 21
28.6177
 31
0.0
  0
LINE
  8
0
 62
     1
 10
81.0066
 20
28.6177
 30
0.0
 11
81.0066
 21
14.6678
 31
0.0
  0
LINE
  8
0
 62
     1
 10
81.0066
 20
14.6678
 30
0.0
 11
67.0567
 21
14.6678
 31
0.0
  0
LINE
  8
0
 62
     1
 10
67.0567
 20
14.6678
 30
0.0
 11
67.0567
 21
28.6177
 31
0.0
  0
LINE
  8
0
 62
     1
 10
148.019
 20
28.6177
 30
0.0
 11
161.969
 21
28.6177
 31
0.0
  0
LINE
  8
0
 62
     1
 10
161.969
 20
28.6177
 30
0.0
 11
161.969
 21
14.6678
 31
0.0
  0
LINE
  8
0
 62
     1
 10
161.969
 20
14.6678
 30
0.0
 11
148.019
 21
14.6678
 31
0.0
  0
LINE
  8
0
 62
     1
 10
148.019
 20
14.6678
 30
0.0
 11
148.019
 21
28.6177
 31
0.0
  0
LINE
  8
0
 62
     1
 10
228.982
 20
28.6177
 30
0.0
 11
242.932
 21
28.6177
 31
0.0
  0
LINE
  8
0
 62
     1
 10
242.932
 20
28.6177
 30
0.0
 11
242.932
 21
14.6678
 31
0.0
  0
LINE
  8
0
 62
     1
 10
242.932
 20
14.6678
 30
0.0
 11
228.982
 21
14.6678
 31
0.0
  0
LINE
  8
0
 62
     1
 10
228.982
 20
14.6678
 30
0.0
 11
228.982
 21
28.6177
 31
0.0
  0
LINE
  8
0
 62
     1
 10
252.794
 20
28.6177
 30
0.0
 11
266.744
 21
28.6177
 31
0.0
  0
LINE
  8
0
 62
     1
 10
266.744
 20
28.6177
 30
0.0
 11
266.744
 21
14.6678
 31
0.0
  0
LINE
  8
0
 62
     1
 10
266.744
 20
14.6678
 30
0.0
 11
252.794
 21
14.6678
 31
0.0
  0
LINE
  8
0
 62
     1
 10
252.794
 20
14.6678
 30
0.0
 11
252.794
 21
28.6177
 31
0.0
  0
LINE
  8
0
 62
     1
 10
276.607
 20
28.6177
 30
0.0
 11
290.557
 21
28.6177
 31
0.0
  0
LINE
  8
0
 62
     1
 10
290.557
 20
28.6177
 30
0.0
 11
290.557
 21
14.6678
 31
0.0
  0
LINE
  8
0
 62
     1
 10
290.557
 20
14.6678
 30
0.0
 11
276.607
 21
14.6678
 31
0.0
  0
LINE
  8
0
 62
     1
 10
276.607
 20
14.6678
 30
0.0
 11
276.607
 21
28.6177
 31
0.0
  0
LINE
  8
0
 62
     1
 10
305.182
 20
28.6177
 30
0.0
 11
319.132
 21
28.6177
 31
0.0
  0
LINE
  8
0
 62
     1
 10
319.132
 20
28.6177
 30
0.0
 11
319.132
 21
14.6678
 31
0.0
  0
LINE
  8
0
 62
     1
 10
319.132
 20
14.6678
 30
0.0
 11
305.182
 21
14.6678
 31
0.0
  0
LINE
  8
0
 62
     1
 10
305.182
 20
14.6678
 30
0.0
 11
305.182
 21
28.6177
 31
0.0
  0
LINE
  8
0
 62
     1
 10
324.232
 20
28.6177
 30
0.0
 11
338.182
 21
28.6177
 31
0.0
  0
LINE
  8
0
 62
     1
 10
338.182
 20
28.6177
 30
0.0
 11
338.182
 21
14.6678
 31
0.0
  0
LINE
  8
0
 62
     1
 10
338.182
 20
14.6678
 30
0.0
 11
324.232
 21
14.6678
 31
0.0
  0
LINE
  8
0
 62
     1
 10
324.232
 20
14.6678
 30
0.0
 11
324.232
 21
28.6177
 31
0.0
  0
LINE
  8
0
 62
     1
 10
343.282
 20
28.6177
 30
0.0
 11
357.233
 21
28.6177
 31
0.0
  0
LINE
  8
0
 62
     1
 10
357.233
 20
28.6177
 30
0.0
 11
357.233
 21
14.6678
 31
0.0
  0
LINE
  8
0
 62
     1
 10
357.233
 20
14.6678
 30
0.0
 11
343.282
 21
14.6678
 31
0.0
  0
LINE
  8
0
 62
     1
 10
343.282
 20
14.6678
 30
0.0
 11
343.282
 21
28.6177
 31
0.0
  0
LINE
  8
0
 62
     1
 10
20.0256
 20
47.1166
 30
0.0
 11
23.2751
 21
47.1166
 31
0.0
  0
LINE
  8
0
 62
     1
 10
23.2751
 20
47.1166
 30
0.0
 11
23.2751
 21
32.9682
 31
0.0
  0
LINE
  8
0
 62
     1
 10
23.2751
 20
32.9682
 30
0.0
 11
20.0256
 21
32.9682
 31
0.0
  0
LINE
  8
0
 62
     1
 10
20.0256
 20
32.9682
 30
0.0
 11
20.0256
 21
47.1166
 31
0.0
  0
LINE
  8
0
 62
     1
 10
43.8256
 20
47.1166
 30
0.0
 11
47.075
 21
47.1166
 31
0.0
  0
LINE
  8
0
 62
     1
 10
47.075
 20
47.1166
 30
0.0
 11
47.075
 21
32.9682
 31
0.0
  0
LINE
  8
0
 62
     1
 10
47.075
 20
32.9682
 30
0.0
 11
43.8256
 21
32.9682
 31
0.0
  0
LINE
  8
0
 62
     1
 10
43.8256
 20
32.9682
 30
0.0
 11
43.8256
 21
47.1166
 31
0.0
  0
LINE
  8
0
 62
     1
 10
258.151
 20
47.1166
 30
0.0
 11
261.4
 21
47.1166
 31
0.0
  0
LINE
  8
0
 62
     1
 10
261.4
 20
47.1166
 30
0.0
 11
261.4
 21
32.9682
 31
0.0
  0
LINE
  8
0
 62
     1
 10
261.4
 20
32.9682
 30
0.0
 11
258.151
 21
32.9682
 31
0.0
  0
LINE
  8
0
 62
     1
 10
258.151
 20
32.9682
 30
0.0
 11
258.151
 21
47.1166
 31
0.0
  0
LINE
  8
0
 62
     1
 10
281.951
 20
47.1166
 30
0.0
 11
285.2
 21
47.1166
 31
0.0
  0
LINE
  8
0
 62
     1
 10
285.2
 20
47.1166
 30
0.0
 11
285.2
 21
32.9682
 31
0.0
  0
LINE
  8
0
 62
     1
 10
285.2
 20
32.9682
 30
0.0
 11
281.951
 21
32.9682
 31
0.0
  0
LINE
  8
0
 62
     1
 10
281.951
 20
32.9682
 30
0.0
 11
281.951
 21
47.1166
 31
0.0
  0
LINE
  8
0
 62
     1
 10
26.5755
 20
47.6677
 30
0.0
 11
40.5253
 21
47.6677
 31
0.0
  0
LINE
  8
0
 62
     1
 10
40.5253
 20
47.6677
 30
0.0
 11
40.5253
 21
33.7178
 31
0.0
  0
LINE
  8
0
 62
     1
 10
40.5253
 20
33.7178
 30
0.0
 11
26.5755
 21
33.7178
 31
0.0
  0
LINE
  8
0
 62
     1
 10
26.5755
 20
33.7178
 30
0.0
 11
26.5755
 21
47.6677
 31
0.0
  0
LINE
  8
0
 62
     1
 10
57.5317
 20
47.6677
 30
0.0
 11
71.4816
 21
47.6677
 31
0.0
  0
LINE
  8
0
 62
     1
 10
71.4816
 20
47.6677
 30
0.0
 11
71.4816
 21
33.7178
 31
0.0
  0
LINE
  8
0
 62
     1
 10
71.4816
 20
33.7178
 30
0.0
 11
57.5317
 21
33.7178
 31
0.0
  0
LINE
  8
0
 62
     1
 10
57.5317
 20
33.7178
 30
0.0
 11
57.5317
 21
47.6677
 31
0.0
  0
LINE
  8
0
 62
     1
 10
76.5817
 20
47.6677
 30
0.0
 11
90.5316
 21
47.6677
 31
0.0
  0
LINE
  8
0
 62
     1
 10
90.5316
 20
47.6677
 30
0.0
 11
90.5316
 21
33.7178
 31
0.0
  0
LINE
  8
0
 62
     1
 10
90.5316
 20
33.7178
 30
0.0
 11
76.5817
 21
33.7178
 31
0.0
  0
LINE
  8
0
 62
     1
 10
76.5817
 20
33.7178
 30
0.0
 11
76.5817
 21
47.6677
 31
0.0
  0
LINE
  8
0
 62
     1
 10
95.6317
 20
47.6677
 30
0.0
 11
109.582
 21
47.6677
 31
0.0
  0
LINE
  8
0
 62
     1
 10
109.582
 20
47.6677
 30
0.0
 11
109.582
 21
33.7178
 31
0.0
  0
LINE
  8
0
 62
     1
 10
109.582
 20
33.7178
 30
0.0
 11
95.6317
 21
33.7178
 31
0.0
  0
LINE
  8
0
 62
     1
 10
95.6317
 20
33.7178
 30
0.0
 11
95.6317
 21
47.6677
 31
0.0
  0
LINE
  8
0
 62
     1
 10
114.682
 20
47.6677
 30
0.0
 11
128.632
 21
47.6677
 31
0.0
  0
LINE
  8
0
 62
     1
 10
128.632
 20
47.6677
 30
0.0
 11
128.632
 21
33.7178
 31
0.0
  0
LINE
  8
0
 62
     1
 10
128.632
 20
33.7178
 30
0.0
 11
114.682
 21
33.7178
 31
0.0
  0
LINE
  8
0
 62
     1
 10
114.682
 20
33.7178
 30
0.0
 11
114.682
 21
47.6677
 31
0.0
  0
LINE
  8
0
 62
     1
 10
133.732
 20
47.6677
 30
0.0
 11
147.682
 21
47.6677
 31
0.0
  0
LINE
  8
0
 62
     1
 10
147.682
 20
47.6677
 30
0.0
 11
147.682
 21
33.7178
 31
0.0
  0
LINE
  8
0
 62
     1
 10
147.682
 20
33.7178
 30
0.0
 11
133.732
 21
33.7178
 31
0.0
  0
LINE
  8
0
 62
     1
 10
133.732
 20
33.7178
 30
0.0
 11
133.732
 21
47.6677
 31
0.0
  0
LINE
  8
0
 62
     1
 10
152.782
 20
47.6677
 30
0.0
 11
166.732
 21
47.6677
 31
0.0
  0
LINE
  8
0
 62
     1
 10
166.732
 20
47.6677
 30
0.0
 11
166.732
 21
33.7178
 31
0.0
  0
LINE
  8
0
 62
     1
 10
166.732
 20
33.7178
 30
0.0
 11
152.782
 21
33.7178
 31
0.0
  0
LINE
  8
0
 62
     1
 10
152.782
 20
33.7178
 30
0.0
 11
152.782
 21
47.6677
 31
0.0
  0
LINE
  8
0
 62
     1
 10
171.832
 20
47.6677
 30
0.0
 11
185.782
 21
47.6677
 31
0.0
  0
LINE
  8
0
 62
     1
 10
185.782
 20
47.6677
 30
0.0
 11
185.782
 21
33.7178
 31
0.0
  0
LINE
  8
0
 62
     1
 10
185.782
 20
33.7178
 30
0.0
 11
171.832
 21
33.7178
 31
0.0
  0
LINE
  8
0
 62
     1
 10
171.832
 20
33.7178
 30
0.0
 11
171.832
 21
47.6677
 31
0.0
  0
LINE
  8
0
 62
     1
 10
190.882
 20
47.6677
 30
0.0
 11
204.832
 21
47.6677
 31
0.0
  0
LINE
  8
0
 62
     1
 10
204.832
 20
47.6677
 30
0.0
 11
204.832
 21
33.7178
 31
0.0
  0
LINE
  8
0
 62
     1
 10
204.832
 20
33.7178
 30
0.0
 11
190.882
 21
33.7178
 31
0.0
  0
LINE
  8
0
 62
     1
 10
190.882
 20
33.7178
 30
0.0
 11
190.882
 21
47.6677
 31
0.0
  0
LINE
  8
0
 62
     1
 10
209.932
 20
47.6677
 30
0.0
 11
223.882
 21
47.6677
 31
0.0
  0
LINE
  8
0
 62
     1
 10
223.882
 20
47.6677
 30
0.0
 11
223.882
 21
33.7178
 31
0.0
  0
LINE
  8
0
 62
     1
 10
223.882
 20
33.7178
 30
0.0
 11
209.932
 21
33.7178
 31
0.0
  0
LINE
  8
0
 62
     1
 10
209.932
 20
33.7178
 30
0.0
 11
209.932
 21
47.6677
 31
0.0
  0
LINE
  8
0
 62
     1
 10
228.982
 20
47.6677
 30
0.0
 11
242.932
 21
47.6677
 31
0.0
  0
LINE
  8
0
 62
     1
 10
242.932
 20
47.6677
 30
0.0
 11
242.932
 21
33.7178
 31
0.0
  0
LINE
  8
0
 62
     1
 10
242.932
 20
33.7178
 30
0.0
 11
228.982
 21
33.7178
 31
0.0
  0
LINE
  8
0
 62
     1
 10
228.982
 20
33.7178
 30
0.0
 11
228.982
 21
47.6677
 31
0.0
  0
LINE
  8
0
 62
     1
 10
264.7
 20
47.6677
 30
0.0
 11
278.65
 21
47.6677
 31
0.0
  0
LINE
  8
0
 62
     1
 10
278.65
 20
47.6677
 30
0.0
 11
278.65
 21
33.7178
 31
0.0
  0
LINE
  8
0
 62
     1
 10
278.65
 20
33.7178
 30
0.0
 11
264.7
 21
33.7178
 31
0.0
  0
LINE
  8
0
 62
     1
 10
264.7
 20
33.7178
 30
0.0
 11
264.7
 21
47.6677
 31
0.0
  0
LINE
  8
0
 62
     1
 10
305.182
 20
47.6677
 30
0.0
 11
319.132
 21
47.6677
 31
0.0
  0
LINE
  8
0
 62
     1
 10
319.132
 20
47.6677
 30
0.0
 11
319.132
 21
33.7178
 31
0.0
  0
LINE
  8
0
 62
     1
 10
319.132
 20
33.7178
 30
0.0
 11
305.182
 21
33.7178
 31
0.0
  0
LINE
  8
0
 62
     1
 10
305.182
 20
33.7178
 30
0.0
 11
305.182
 21
47.6677
 31
0.0
  0
LINE
  8
0
 62
     1
 10
324.232
 20
47.6677
 30
0.0
 11
338.182
 21
47.6677
 31
0.0
  0
LINE
  8
0
 62
     1
 10
338.182
 20
47.6677
 30
0.0
 11
338.182
 21
33.7178
 31
0.0
  0
LINE
  8
0
 62
     1
 10
338.182
 20
33.7178
 30
0.0
 11
324.232
 21
33.7178
 31
0.0
  0
LINE
  8
0
 62
     1
 10
324.232
 20
33.7178
 30
0.0
 11
324.232
 21
47.6677
 31
0.0
  0
LINE
  8
0
 62
     1
 10
343.282
 20
47.6677
 30
0.0
 11
357.233
 21
47.6677
 31
0.0
  0
LINE
  8
0
 62
     1
 10
357.233
 20
47.6677
 30
0.0
 11
357.233
 21
33.7178
 31
0.0
  0
LINE
  8
0
 62
     1
 10
357.233
 20
33.7178
 30
0.0
 11
343.282
 21
33.7178
 31
0.0
  0
LINE
  8
0
 62
     1
 10
343.282
 20
33.7178
 30
0.0
 11
343.282
 21
47.6677
 31
0.0
  0
LINE
  8
0
 62
     1
 10
262.913
 20
66.1666
 30
0.0
 11
266.163
 21
66.1666
 31
0.0
  0
LINE
  8
0
 62
     1
 10
266.163
 20
66.1666
 30
0.0
 11
266.163
 21
52.0181
 31
0.0
  0
LINE
  8
0
 62
     1
 10
266.163
 20
52.0181
 30
0.0
 11
262.913
 21
52.0181
 31
0.0
  0
LINE
  8
0
 62
     1
 10
262.913
 20
52.0181
 30
0.0
 11
262.913
 21
66.1666
 31
0.0
  0
LINE
  8
0
 62
     1
 10
286.713
 20
66.1666
 30
0.0
 11
289.963
 21
66.1666
 31
0.0
  0
LINE
  8
0
 62
     1
 10
289.963
 20
66.1666
 30
0.0
 11
289.963
 21
52.0181
 31
0.0
  0
LINE
  8
0
 62
     1
 10
289.963
 20
52.0181
 30
0.0
 11
286.713
 21
52.0181
 31
0.0
  0
LINE
  8
0
 62
     1
 10
286.713
 20
52.0181
 30
0.0
 11
286.713
 21
66.1666
 31
0.0
  0
LINE
  8
0
 62
     1
 10
21.813
 20
66.7177
 30
0.0
 11
35.7628
 21
66.7177
 31
0.0
  0
LINE
  8
0
 62
     1
 10
35.7628
 20
66.7177
 30
0.0
 11
35.7628
 21
52.7678
 31
0.0
  0
LINE
  8
0
 62
     1
 10
35.7628
 20
52.7678
 30
0.0
 11
21.813
 21
52.7678
 31
0.0
  0
LINE
  8
0
 62
     1
 10
21.813
 20
52.7678
 30
0.0
 11
21.813
 21
66.7177
 31
0.0
  0
LINE
  8
0
 62
     1
 10
48.0067
 20
66.7177
 30
0.0
 11
61.9566
 21
66.7177
 31
0.0
  0
LINE
  8
0
 62
     1
 10
61.9566
 20
66.7177
 30
0.0
 11
61.9566
 21
52.7678
 31
0.0
  0
LINE
  8
0
 62
     1
 10
61.9566
 20
52.7678
 30
0.0
 11
48.0067
 21
52.7678
 31
0.0
  0
LINE
  8
0
 62
     1
 10
48.0067
 20
52.7678
 30
0.0
 11
48.0067
 21
66.7177
 31
0.0
  0
LINE
  8
0
 62
     1
 10
67.0567
 20
66.7177
 30
0.0
 11
81.0066
 21
66.7177
 31
0.0
  0
LINE
  8
0
 62
     1
 10
81.0066
 20
66.7177
 30
0.0
 11
81.0066
 21
52.7678
 31
0.0
  0
LINE
  8
0
 62
     1
 10
81.0066
 20
52.7678
 30
0.0
 11
67.0567
 21
52.7678
 31
0.0
  0
LINE
  8
0
 62
     1
 10
67.0567
 20
52.7678
 30
0.0
 11
67.0567
 21
66.7177
 31
0.0
  0
LINE
  8
0
 62
     1
 10
86.1067
 20
66.7177
 30
0.0
 11
100.057
 21
66.7177
 31
0.0
  0
LINE
  8
0
 62
     1
 10
100.057
 20
66.7177
 30
0.0
 11
100.057
 21
52.7678
 31
0.0
  0
LINE
  8
0
 62
     1
 10
100.057
 20
52.7678
 30
0.0
 11
86.1067
 21
52.7678
 31
0.0
  0
LINE
  8
0
 62
     1
 10
86.1067
 20
52.7678
 30
0.0
 11
86.1067
 21
66.7177
 31
0.0
  0
LINE
  8
0
 62
     1
 10
105.157
 20
66.7177
 30
0.0
 11
119.107
 21
66.7177
 31
0.0
  0
LINE
  8
0
 62
     1
 10
119.107
 20
66.7177
 30
0.0
 11
119.107
 21
52.7678
 31
0.0
  0
LINE
  8
0
 62
     1
 10
119.107
 20
52.7678
 30
0.0
 11
105.157
 21
52.7678
 31
0.0
  0
LINE
  8
0
 62
     1
 10
105.157
 20
52.7678
 30
0.0
 11
105.157
 21
66.7177
 31
0.0
  0
LINE
  8
0
 62
     1
 10
124.207
 20
66.7177
 30
0.0
 11
138.157
 21
66.7177
 31
0.0
  0
LINE
  8
0
 62
     1
 10
138.157
 20
66.7177
 30
0.0
 11
138.157
 21
52.7678
 31
0.0
  0
LINE
  8
0
 62
     1
 10
138.157
 20
52.7678
 30
0.0
 11
124.207
 21
52.7678
 31
0.0
  0
LINE
  8
0
 62
     1
 10
124.207
 20
52.7678
 30
0.0
 11
124.207
 21
66.7177
 31
0.0
  0
LINE
  8
0
 62
     1
 10
143.257
 20
66.7177
 30
0.0
 11
157.207
 21
66.7177
 31
0.0
  0
LINE
  8
0
 62
     1
 10
157.207
 20
66.7177
 30
0.0
 11
157.207
 21
52.7678
 31
0.0
  0
LINE
  8
0
 62
     1
 10
157.207
 20
52.7678
 30
0.0
 11
143.257
 21
52.7678
 31
0.0
  0
LINE
  8
0
 62
     1
 10
143.257
 20
52.7678
 30
0.0
 11
143.257
 21
66.7177
 31
0.0
  0
LINE
  8
0
 62
     1
 10
162.307
 20
66.7177
 30
0.0
 11
176.257
 21
66.7177
 31
0.0
  0
LINE
  8
0
 62
     1
 10
176.257
 20
66.7177
 30
0.0
 11
176.257
 21
52.7678
 31
0.0
  0
LINE
  8
0
 62
     1
 10
176.257
 20
52.7678
 30
0.0
 11
162.307
 21
52.7678
 31
0.0
  0
LINE
  8
0
 62
     1
 10
162.307
 20
52.7678
 30
0.0
 11
162.307
 21
66.7177
 31
0.0
  0
LINE
  8
0
 62
     1
 10
181.357
 20
66.7177
 30
0.0
 11
195.307
 21
66.7177
 31
0.0
  0
LINE
  8
0
 62
     1
 10
195.307
 20
66.7177
 30
0.0
 11
195.307
 21
52.7678
 31
0.0
  0
LINE
  8
0
 62
     1
 10
195.307
 20
52.7678
 30
0.0
 11
181.357
 21
52.7678
 31
0.0
  0
LINE
  8
0
 62
     1
 10
181.357
 20
52.7678
 30
0.0
 11
181.357
 21
66.7177
 31
0.0
  0
LINE
  8
0
 62
     1
 10
200.407
 20
66.7177
 30
0.0
 11
214.357
 21
66.7177
 31
0.0
  0
LINE
  8
0
 62
     1
 10
214.357
 20
66.7177
 30
0.0
 11
214.357
 21
52.7678
 31
0.0
  0
LINE
  8
0
 62
     1
 10
214.357
 20
52.7678
 30
0.0
 11
200.407
 21
52.7678
 31
0.0
  0
LINE
  8
0
 62
     1
 10
200.407
 20
52.7678
 30
0.0
 11
200.407
 21
66.7177
 31
0.0
  0
LINE
  8
0
 62
     1
 10
219.457
 20
66.7177
 30
0.0
 11
233.407
 21
66.7177
 31
0.0
  0
LINE
  8
0
 62
     1
 10
233.407
 20
66.7177
 30
0.0
 11
233.407
 21
52.7678
 31
0.0
  0
LINE
  8
0
 62
     1
 10
233.407
 20
52.7678
 30
0.0
 11
219.457
 21
52.7678
 31
0.0
  0
LINE
  8
0
 62
     1
 10
219.457
 20
52.7678
 30
0.0
 11
219.457
 21
66.7177
 31
0.0
  0
LINE
  8
0
 62
     1
 10
238.507
 20
66.7177
 30
0.0
 11
252.457
 21
66.7177
 31
0.0
  0
LINE
  8
0
 62
     1
 10
252.457
 20
66.7177
 30
0.0
 11
252.457
 21
52.7678
 31
0.0
  0
LINE
  8
0
 62
     1
 10
252.457
 20
52.7678
 30
0.0
 11
238.507
 21
52.7678
 31
0.0
  0
LINE
  8
0
 62
     1
 10
238.507
 20
52.7678
 30
0.0
 11
238.507
 21
66.7177
 31
0.0
  0
LINE
  8
0
 62
     1
 10
269.463
 20
66.7177
 30
0.0
 11
283.413
 21
66.7177
 31
0.0
  0
LINE
  8
0
 62
     1
 10
283.413
 20
66.7177
 30
0.0
 11
283.413
 21
52.7678
 31
0.0
  0
LINE
  8
0
 62
     1
 10
283.413
 20
52.7678
 30
0.0
 11
269.463
 21
52.7678
 31
0.0
  0
LINE
  8
0
 62
     1
 10
269.463
 20
52.7678
 30
0.0
 11
269.463
 21
66.7177
 31
0.0
  0
LINE
  8
0
 62
     1
 10
305.182
 20
66.7177
 30
0.0
 11
319.132
 21
66.7177
 31
0.0
  0
LINE
  8
0
 62
     1
 10
319.132
 20
66.7177
 30
0.0
 11
319.132
 21
52.7678
 31
0.0
  0
LINE
  8
0
 62
     1
 10
319.132
 20
52.7678
 30
0.0
 11
305.182
 21
52.7678
 31
0.0
  0
LINE
  8
0
 62
     1
 10
305.182
 20
52.7678
 30
0.0
 11
305.182
 21
66.7177
 31
0.0
  0
LINE
  8
0
 62
     1
 10
324.232
 20
66.7177
 30
0.0
 11
338.182
 21
66.7177
 31
0.0
  0
LINE
  8
0
 62
     1
 10
338.182
 20
66.7177
 30
0.0
 11
338.182
 21
52.7678
 31
0.0
  0
LINE
  8
0
 62
     1
 10
338.182
 20
52.7678
 30
0.0
 11
324.232
 21
52.7678
 31
0.0
  0
LINE
  8
0
 62
     1
 10
324.232
 20
52.7678
 30
0.0
 11
324.232
 21
66.7177
 31
0.0
  0
LINE
  8
0
 62
     1
 10
343.282
 20
66.7177
 30
0.0
 11
357.233
 21
66.7177
 31
0.0
  0
LINE
  8
0
 62
     1
 10
357.233
 20
66.7177
 30
0.0
 11
357.233
 21
52.7678
 31
0.0
  0
LINE
  8
0
 62
     1
 10
357.233
 20
52.7678
 30
0.0
 11
343.282
 21
52.7678
 31
0.0
  0
LINE
  8
0
 62
     1
 10
343.282
 20
52.7678
 30
0.0
 11
343.282
 21
66.7177
 31
0.0
  0
LINE
  8
0
 62
     1
 10
19.4317
 20
85.7677
 30
0.0
 11
33.3816
 21
85.7677
 31
0.0
  0
LINE
  8
0
 62
     1
 10
33.3816
 20
85.7677
 30
0.0
 11
33.3816
 21
71.8178
 31
0.0
  0
LINE
  8
0
 62
     1
 10
33.3816
 20
71.8178
 30
0.0
 11
19.4317
 21
71.8178
 31
0.0
  0
LINE
  8
0
 62
     1
 10
19.4317
 20
71.8178
 30
0.0
 11
19.4317
 21
85.7677
 31
0.0
  0
LINE
  8
0
 62
     1
 10
43.2442
 20
85.7677
 30
0.0
 11
57.1941
 21
85.7677
 31
0.0
  0
LINE
  8
0
 62
     1
 10
57.1941
 20
85.7677
 30
0.0
 11
57.1941
 21
71.8178
 31
0.0
  0
LINE
  8
0
 62
     1
 10
57.1941
 20
71.8178
 30
0.0
 11
43.2442
 21
71.8178
 31
0.0
  0
LINE
  8
0
 62
     1
 10
43.2442
 20
71.8178
 30
0.0
 11
43.2442
 21
85.7677
 31
0.0
  0
LINE
  8
0
 62
     1
 10
62.2942
 20
85.7677
 30
0.0
 11
76.2441
 21
85.7677
 31
0.0
  0
LINE
  8
0
 62
     1
 10
76.2441
 20
85.7677
 30
0.0
 11
76.2441
 21
71.8178
 31
0.0
  0
LINE
  8
0
 62
     1
 10
76.2441
 20
71.8178
 30
0.0
 11
62.2942
 21
71.8178
 31
0.0
  0
LINE
  8
0
 62
     1
 10
62.2942
 20
71.8178
 30
0.0
 11
62.2942
 21
85.7677
 31
0.0
  0
LINE
  8
0
 62
     1
 10
81.3442
 20
85.7677
 30
0.0
 11
95.2941
 21
85.7677
 31
0.0
  0
LINE
  8
0
 62
     1
 10
95.2941
 20
85.7677
 30
0.0
 11
95.2941
 21
71.8178
 31
0.0
  0
LINE
  8
0
 62
     1
 10
95.2941
 20
71.8178
 30
0.0
 11
81.3442
 21
71.8178
 31
0.0
  0
LINE
  8
0
 62
     1
 10
81.3442
 20
71.8178
 30
0.0
 11
81.3442
 21
85.7677
 31
0.0
  0
LINE
  8
0
 62
     1
 10
100.394
 20
85.7677
 30
0.0
 11
114.344
 21
85.7677
 31
0.0
  0
LINE
  8
0
 62
     1
 10
114.344
 20
85.7677
 30
0.0
 11
114.344
 21
71.8178
 31
0.0
  0
LINE
  8
0
 62
     1
 10
114.344
 20
71.8178
 30
0.0
 11
100.394
 21
71.8178
 31
0.0
  0
LINE
  8
0
 62
     1
 10
100.394
 20
71.8178
 30
0.0
 11
100.394
 21
85.7677
 31
0.0
  0
LINE
  8
0
 62
     1
 10
119.444
 20
85.7677
 30
0.0
 11
133.394
 21
85.7677
 31
0.0
  0
LINE
  8
0
 62
     1
 10
133.394
 20
85.7677
 30
0.0
 11
133.394
 21
71.8178
 31
0.0
  0
LINE
  8
0
 62
     1
 10
133.394
 20
71.8178
 30
0.0
 11
119.444
 21
71.8178
 31
0.0
  0
LINE
  8
0
 62
     1
 10
119.444
 20
71.8178
 30
0.0
 11
119.444
 21
85.7677
 31
0.0
  0
LINE
  8
0
 62
     1
 10
138.494
 20
85.7677
 30
0.0
 11
152.444
 21
85.7677
 31
0.0
  0
LINE
  8
0
 62
     1
 10
152.444
 20
85.7677
 30
0.0
 11
152.444
 21
71.8178
 31
0.0
  0
LINE
  8
0
 62
     1
 10
152.444
 20
71.8178
 30
0.0
 11
138.494
 21
71.8178
 31
0.0
  0
LINE
  8
0
 62
     1
 10
138.494
 20
71.8178
 30
0.0
 11
138.494
 21
85.7677
 31
0.0
  0
LINE
  8
0
 62
     1
 10
157.544
 20
85.7677
 30
0.0
 11
171.494
 21
85.7677
 31
0.0
  0
LINE
  8
0
 62
     1
 10
171.494
 20
85.7677
 30
0.0
 11
171.494
 21
71.8178
 31
0.0
  0
LINE
  8
0
 62
     1
 10
171.494
 20
71.8178
 30
0.0
 11
157.544
 21
71.8178
 31
0.0
  0
LINE
  8
0
 62
     1
 10
157.544
 20
71.8178
 30
0.0
 11
157.544
 21
85.7677
 31
0.0
  0
LINE
  8
0
 62
     1
 10
176.594
 20
85.7677
 30
0.0
 11
190.544
 21
85.7677
 31
0.0
  0
LINE
  8
0
 62
     1
 10
190.544
 20
85.7677
 30
0.0
 11
190.544
 21
71.8178
 31
0.0
  0
LINE
  8
0
 62
     1
 10
190.544
 20
71.8178
 30
0.0
 11
176.594
 21
71.8178
 31
0.0
  0
LINE
  8
0
 62
     1
 10
176.594
 20
71.8178
 30
0.0
 11
176.594
 21
85.7677
 31
0.0
  0
LINE
  8
0
 62
     1
 10
195.644
 20
85.7677
 30
0.0
 11
209.594
 21
85.7677
 31
0.0
  0
LINE
  8
0
 62
     1
 10
209.594
 20
85.7677
 30
0.0
 11
209.594
 21
71.8178
 31
0.0
  0
LINE
  8
0
 62
     1
 10
209.594
 20
71.8178
 30
0.0
 11
195.644
 21
71.8178
 31
0.0
  0
LINE
  8
0
 62
     1
 10
195.644
 20
71.8178
 30
0.0
 11
195.644
 21
85.7677
 31
0.0
  0
LINE
  8
0
 62
     1
 10
214.694
 20
85.7677
 30
0.0
 11
228.644
 21
85.7677
 31
0.0
  0
LINE
  8
0
 62
     1
 10
228.644
 20
85.7677
 30
0.0
 11
228.644
 21
71.8178
 31
0.0
  0
LINE
  8
0
 62
     1
 10
228.644
 20
71.8178
 30
0.0
 11
214.694
 21
71.8178
 31
0.0
  0
LINE
  8
0
 62
     1
 10
214.694
 20
71.8178
 30
0.0
 11
214.694
 21
85.7677
 31
0.0
  0
LINE
  8
0
 62
     1
 10
233.744
 20
85.7677
 30
0.0
 11
247.694
 21
85.7677
 31
0.0
  0
LINE
  8
0
 62
     1
 10
247.694
 20
85.7677
 30
0.0
 11
247.694
 21
71.8178
 31
0.0
  0
LINE
  8
0
 62
     1
 10
247.694
 20
71.8178
 30
0.0
 11
233.744
 21
71.8178
 31
0.0
  0
LINE
  8
0
 62
     1
 10
233.744
 20
71.8178
 30
0.0
 11
233.744
 21
85.7677
 31
0.0
  0
LINE
  8
0
 62
     1
 10
252.794
 20
85.7677
 30
0.0
 11
266.744
 21
85.7677
 31
0.0
  0
LINE
  8
0
 62
     1
 10
266.744
 20
85.7677
 30
0.0
 11
266.744
 21
71.8178
 31
0.0
  0
LINE
  8
0
 62
     1
 10
266.744
 20
71.8178
 30
0.0
 11
252.794
 21
71.8178
 31
0.0
  0
LINE
  8
0
 62
     1
 10
252.794
 20
71.8178
 30
0.0
 11
252.794
 21
85.7677
 31
0.0
  0
LINE
  8
0
 62
     1
 10
276.607
 20
85.7677
 30
0.0
 11
290.557
 21
85.7677
 31
0.0
  0
LINE
  8
0
 62
     1
 10
290.557
 20
85.7677
 30
0.0
 11
290.557
 21
71.8178
 31
0.0
  0
LINE
  8
0
 62
     1
 10
290.557
 20
71.8178
 30
0.0
 11
276.607
 21
71.8178
 31
0.0
  0
LINE
  8
0
 62
     1
 10
276.607
 20
71.8178
 30
0.0
 11
276.607
 21
85.7677
 31
0.0
  0
LINE
  8
0
 62
     1
 10
305.182
 20
85.7677
 30
0.0
 11
319.132
 21
85.7677
 31
0.0
  0
LINE
  8
0
 62
     1
 10
319.132
 20
85.7677
 30
0.0
 11
319.132
 21
71.8178
 31
0.0
  0
LINE
  8
0
 62
     1
 10
319.132
 20
71.8178
 30
0.0
 11
305.182
 21
71.8178
 31
0.0
  0
LINE
  8
0
 62
     1
 10
305.182
 20
71.8178
 30
0.0
 11
305.182
 21
85.7677
 31
0.0
  0
LINE
  8
0
 62
     1
 10
324.232
 20
85.7677
 30
0.0
 11
338.182
 21
85.7677
 31
0.0
  0
LINE
  8
0
 62
     1
 10
338.182
 20
85.7677
 30
0.0
 11
338.182
 21
71.8178
 31
0.0
  0
LINE
  8
0
 62
     1
 10
338.182
 20
71.8178
 30
0.0
 11
324.232
 21
71.8178
 31
0.0
  0
LINE
  8
0
 62
     1
 10
324.232
 20
71.8178
 30
0.0
 11
324.232
 21
85.7677
 31
0.0
  0
LINE
  8
0
 62
     1
 10
343.282
 20
85.7677
 30
0.0
 11
357.233
 21
85.7677
 31
0.0
  0
LINE
  8
0
 62
     1
 10
357.233
 20
85.7677
 30
0.0
 11
357.233
 21
71.8178
 31
0.0
  0
LINE
  8
0
 62
     1
 10
357.233
 20
71.8178
 30
0.0
 11
343.282
 21
71.8178
 31
0.0
  0
LINE
  8
0
 62
     1
 10
343.282
 20
71.8178
 30
0.0
 11
343.282
 21
85.7677
 31
0.0
  0
LINE
  8
0
 62
     1
 10
265.295
 20
104.267
 30
0.0
 11
268.545
 21
104.267
 31
0.0
  0
LINE
  8
0
 62
     1
 10
268.545
 20
104.267
 30
0.0
 11
268.545
 21
90.1167
 31
0.0
  0
LINE
  8
0
 62
     1
 10
268.545
 20
90.1167
 30
0.0
 11
265.295
 21
90.1167
 31
0.0
  0
LINE
  8
0
 62
     1
 10
265.295
 20
90.1167
 30
0.0
 11
265.295
 21
104.267
 31
0.0
  0
LINE
  8
0
 62
     1
 10
289.094
 20
104.267
 30
0.0
 11
292.345
 21
104.267
 31
0.0
  0
LINE
  8
0
 62
     1
 10
292.345
 20
104.267
 30
0.0
 11
292.345
 21
90.1167
 31
0.0
  0
LINE
  8
0
 62
     1
 10
292.345
 20
90.1167
 30
0.0
 11
289.094
 21
90.1167
 31
0.0
  0
LINE
  8
0
 62
     1
 10
289.094
 20
90.1167
 30
0.0
 11
289.094
 21
104.267
 31
0.0
  0
LINE
  8
0
 62
     1
 10
14.6692
 20
104.818
 30
0.0
 11
28.6191
 21
104.818
 31
0.0
  0
LINE
  8
0
 62
     1
 10
28.6191
 20
104.818
 30
0.0
 11
28.6191
 21
90.8678
 31
0.0
  0
LINE
  8
0
 62
     1
 10
28.6191
 20
90.8678
 30
0.0
 11
14.6692
 21
90.8678
 31
0.0
  0
LINE
  8
0
 62
     1
 10
14.6692
 20
90.8678
 30
0.0
 11
14.6692
 21
104.818
 31
0.0
  0
LINE
  8
0
 62
     1
 10
33.7192
 20
104.818
 30
0.0
 11
47.6691
 21
104.818
 31
0.0
  0
LINE
  8
0
 62
     1
 10
47.6691
 20
104.818
 30
0.0
 11
47.6691
 21
90.8678
 31
0.0
  0
LINE
  8
0
 62
     1
 10
47.6691
 20
90.8678
 30
0.0
 11
33.7192
 21
90.8678
 31
0.0
  0
LINE
  8
0
 62
     1
 10
33.7192
 20
90.8678
 30
0.0
 11
33.7192
 21
104.818
 31
0.0
  0
LINE
  8
0
 62
     1
 10
52.7692
 20
104.818
 30
0.0
 11
66.7191
 21
104.818
 31
0.0
  0
LINE
  8
0
 62
     1
 10
66.7191
 20
104.818
 30
0.0
 11
66.7191
 21
90.8678
 31
0.0
  0
LINE
  8
0
 62
     1
 10
66.7191
 20
90.8678
 30
0.0
 11
52.7692
 21
90.8678
 31
0.0
  0
LINE
  8
0
 62
     1
 10
52.7692
 20
90.8678
 30
0.0
 11
52.7692
 21
104.818
 31
0.0
  0
LINE
  8
0
 62
     1
 10
71.8192
 20
104.818
 30
0.0
 11
85.7691
 21
104.818
 31
0.0
  0
LINE
  8
0
 62
     1
 10
85.7691
 20
104.818
 30
0.0
 11
85.7691
 21
90.8678
 31
0.0
  0
LINE
  8
0
 62
     1
 10
85.7691
 20
90.8678
 30
0.0
 11
71.8192
 21
90.8678
 31
0.0
  0
LINE
  8
0
 62
     1
 10
71.8192
 20
90.8678
 30
0.0
 11
71.8192
 21
104.818
 31
0.0
  0
LINE
  8
0
 62
     1
 10
90.8692
 20
104.818
 30
0.0
 11
104.819
 21
104.818
 31
0.0
  0
LINE
  8
0
 62
     1
 10
104.819
 20
104.818
 30
0.0
 11
104.819
 21
90.8678
 31
0.0
  0
LINE
  8
0
 62
     1
 10
104.819
 20
90.8678
 30
0.0
 11
90.8692
 21
90.8678
 31
0.0
  0
LINE
  8
0
 62
     1
 10
90.8692
 20
90.8678
 30
0.0
 11
90.8692
 21
104.818
 31
0.0
  0
LINE
  8
0
 62
     1
 10
109.919
 20
104.818
 30
0.0
 11
123.869
 21
104.818
 31
0.0
  0
LINE
  8
0
 62
     1
 10
123.869
 20
104.818
 30
0.0
 11
123.869
 21
90.8678
 31
0.0
  0
LINE
  8
0
 62
     1
 10
123.869
 20
90.8678
 30
0.0
 11
109.919
 21
90.8678
 31
0.0
  0
LINE
  8
0
 62
     1
 10
109.919
 20
90.8678
 30
0.0
 11
109.919
 21
104.818
 31
0.0
  0
LINE
  8
0
 62
     1
 10
128.969
 20
104.818
 30
0.0
 11
142.919
 21
104.818
 31
0.0
  0
LINE
  8
0
 62
     1
 10
142.919
 20
104.818
 30
0.0
 11
142.919
 21
90.8678
 31
0.0
  0
LINE
  8
0
 62
     1
 10
142.919
 20
90.8678
 30
0.0
 11
128.969
 21
90.8678
 31
0.0
  0
LINE
  8
0
 62
     1
 10
128.969
 20
90.8678
 30
0.0
 11
128.969
 21
104.818
 31
0.0
  0
LINE
  8
0
 62
     1
 10
148.019
 20
104.818
 30
0.0
 11
161.969
 21
104.818
 31
0.0
  0
LINE
  8
0
 62
     1
 10
161.969
 20
104.818
 30
0.0
 11
161.969
 21
90.8678
 31
0.0
  0
LINE
  8
0
 62
     1
 10
161.969
 20
90.8678
 30
0.0
 11
148.019
 21
90.8678
 31
0.0
  0
LINE
  8
0
 62
     1
 10
148.019
 20
90.8678
 30
0.0
 11
148.019
 21
104.818
 31
0.0
  0
LINE
  8
0
 62
     1
 10
167.069
 20
104.818
 30
0.0
 11
181.019
 21
104.818
 31
0.0
  0
LINE
  8
0
 62
     1
 10
181.019
 20
104.818
 30
0.0
 11
181.019
 21
90.8678
 31
0.0
  0
LINE
  8
0
 62
     1
 10
181.019
 20
90.8678
 30
0.0
 11
167.069
 21
90.8678
 31
0.0
  0
LINE
  8
0
 62
     1
 10
167.069
 20
90.8678
 30
0.0
 11
167.069
 21
104.818
 31
0.0
  0
LINE
  8
0
 62
     1
 10
186.119
 20
104.818
 30
0.0
 11
200.069
 21
104.818
 31
0.0
  0
LINE
  8
0
 62
     1
 10
200.069
 20
104.818
 30
0.0
 11
200.069
 21
90.8678
 31
0.0
  0
LINE
  8
0
 62
     1
 10
200.069
 20
90.8678
 30
0.0
 11
186.119
 21
90.8678
 31
0.0
  0
LINE
  8
0
 62
     1
 10
186.119
 20
90.8678
 30
0.0
 11
186.119
 21
104.818
 31
0.0
  0
LINE
  8
0
 62
     1
 10
205.169
 20
104.818
 30
0.0
 11
219.119
 21
104.818
 31
0.0
  0
LINE
  8
0
 62
     1
 10
219.119
 20
104.818
 30
0.0
 11
219.119
 21
90.8678
 31
0.0
  0
LINE
  8
0
 62
     1
 10
219.119
 20
90.8678
 30
0.0
 11
205.169
 21
90.8678
 31
0.0
  0
LINE
  8
0
 62
     1
 10
205.169
 20
90.8678
 30
0.0
 11
205.169
 21
104.818
 31
0.0
  0
LINE
  8
0
 62
     1
 10
224.219
 20
104.818
 30
0.0
 11
238.169
 21
104.818
 31
0.0
  0
LINE
  8
0
 62
     1
 10
238.169
 20
104.818
 30
0.0
 11
238.169
 21
90.8678
 31
0.0
  0
LINE
  8
0
 62
     1
 10
238.169
 20
90.8678
 30
0.0
 11
224.219
 21
90.8678
 31
0.0
  0
LINE
  8
0
 62
     1
 10
224.219
 20
90.8678
 30
0.0
 11
224.219
 21
104.818
 31
0.0
  0
LINE
  8
0
 62
     1
 10
243.269
 20
104.818
 30
0.0
 11
257.219
 21
104.818
 31
0.0
  0
LINE
  8
0
 62
     1
 10
257.219
 20
104.818
 30
0.0
 11
257.219
 21
90.8678
 31
0.0
  0
LINE
  8
0
 62
     1
 10
257.219
 20
90.8678
 30
0.0
 11
243.269
 21
90.8678
 31
0.0
  0
LINE
  8
0
 62
     1
 10
243.269
 20
90.8678
 30
0.0
 11
243.269
 21
104.818
 31
0.0
  0
LINE
  8
0
 62
     1
 10
271.844
 20
104.818
 30
0.0
 11
285.794
 21
104.818
 31
0.0
  0
LINE
  8
0
 62
     1
 10
285.794
 20
104.818
 30
0.0
 11
285.794
 21
90.8678
 31
0.0
  0
LINE
  8
0
 62
     1
 10
285.794
 20
90.8678
 30
0.0
 11
271.844
 21
90.8678
 31
0.0
  0
LINE
  8
0
 62
     1
 10
271.844
 20
90.8678
 30
0.0
 11
271.844
 21
104.818
 31
0.0
  0
LINE
  8
0
 62
     1
 10
305.182
 20
104.818
 30
0.0
 11
319.132
 21
104.818
 31
0.0
  0
LINE
  8
0
 62
     1
 10
319.132
 20
104.818
 30
0.0
 11
319.132
 21
90.8678
 31
0.0
  0
LINE
  8
0
 62
     1
 10
319.132
 20
90.8678
 30
0.0
 11
305.182
 21
90.8678
 31
0.0
  0
LINE
  8
0
 62
     1
 10
305.182
 20
90.8678
 30
0.0
 11
305.182
 21
104.818
 31
0.0
  0
LINE
  8
0
 62
     1
 10
324.232
 20
104.818
 30
0.0
 11
338.182
 21
104.818
 31
0.0
  0
LINE
  8
0
 62
     1
 10
338.182
 20
104.818
 30
0.0
 11
338.182
 21
90.8678
 31
0.0
  0
LINE
  8
0
 62
     1
 10
338.182
 20
90.8678
 30
0.0
 11
324.232
 21
90.8678
 31
0.0
  0
LINE
  8
0
 62
     1
 10
324.232
 20
90.8678
 30
0.0
 11
324.232
 21
104.818
 31
0.0
  0
LINE
  8
0
 62
     1
 10
343.282
 20
104.818
 30
0.0
 11
357.233
 21
104.818
 31
0.0
  0
LINE
  8
0
 62
     1
 10
357.233
 20
104.818
 30
0.0
 11
357.233
 21
90.8678
 31
0.0
  0
LINE
  8
0
 62
     1
 10
357.233
 20
90.8678
 30
0.0
 11
343.282
 21
90.8678
 31
0.0
  0
LINE
  8
0
 62
     1
 10
343.282
 20
90.8678
 30
0.0
 11
343.282
 21
104.818
 31
0.0
  0
LINE
  8
0
 62
     1
 10
14.6692
 20
133.393
 30
0.0
 11
28.6191
 21
133.393
 31
0.0
  0
LINE
  8
0
 62
     1
 10
28.6191
 20
133.393
 30
0.0
 11
28.6191
 21
119.443
 31
0.0
  0
LINE
  8
0
 62
     1
 10
28.6191
 20
119.443
 30
0.0
 11
14.6692
 21
119.443
 31
0.0
  0
LINE
  8
0
 62
     1
 10
14.6692
 20
119.443
 30
0.0
 11
14.6692
 21
133.393
 31
0.0
  0
LINE
  8
0
 62
     1
 10
52.7692
 20
133.393
 30
0.0
 11
66.7191
 21
133.393
 31
0.0
  0
LINE
  8
0
 62
     1
 10
66.7191
 20
133.393
 30
0.0
 11
66.7191
 21
119.443
 31
0.0
  0
LINE
  8
0
 62
     1
 10
66.7191
 20
119.443
 30
0.0
 11
52.7692
 21
119.443
 31
0.0
  0
LINE
  8
0
 62
     1
 10
52.7692
 20
119.443
 30
0.0
 11
52.7692
 21
133.393
 31
0.0
  0
LINE
  8
0
 62
     1
 10
71.8192
 20
133.393
 30
0.0
 11
85.7691
 21
133.393
 31
0.0
  0
LINE
  8
0
 62
     1
 10
85.7691
 20
133.393
 30
0.0
 11
85.7691
 21
119.443
 31
0.0
  0
LINE
  8
0
 62
     1
 10
85.7691
 20
119.443
 30
0.0
 11
71.8192
 21
119.443
 31
0.0
  0
LINE
  8
0
 62
     1
 10
71.8192
 20
119.443
 30
0.0
 11
71.8192
 21
133.393
 31
0.0
  0
LINE
  8
0
 62
     1
 10
90.8692
 20
133.393
 30
0.0
 11
104.819
 21
133.393
 31
0.0
  0
LINE
  8
0
 62
     1
 10
104.819
 20
133.393
 30
0.0
 11
104.819
 21
119.443
 31
0.0
  0
LINE
  8
0
 62
     1
 10
104.819
 20
119.443
 30
0.0
 11
90.8692
 21
119.443
 31
0.0
  0
LINE
  8
0
 62
     1
 10
90.8692
 20
119.443
 30
0.0
 11
90.8692
 21
133.393
 31
0.0
  0
LINE
  8
0
 62
     1
 10
109.919
 20
133.393
 30
0.0
 11
123.869
 21
133.393
 31
0.0
  0
LINE
  8
0
 62
     1
 10
123.869
 20
133.393
 30
0.0
 11
123.869
 21
119.443
 31
0.0
  0
LINE
  8
0
 62
     1
 10
123.869
 20
119.443
 30
0.0
 11
109.919
 21
119.443
 31
0.0
  0
LINE
  8
0
 62
     1
 10
109.919
 20
119.443
 30
0.0
 11
109.919
 21
133.393
 31
0.0
  0
LINE
  8
0
 62
     1
 10
138.494
 20
133.393
 30
0.0
 11
152.444
 21
133.393
 31
0.0
  0
LINE
  8
0
 62
     1
 10
152.444
 20
133.393
 30
0.0
 11
152.444
 21
119.443
 31
0.0
  0
LINE
  8
0
 62
     1
 10
152.444
 20
119.443
 30
0.0
 11
138.494
 21
119.443
 31
0.0
  0
LINE
  8
0
 62
     1
 10
138.494
 20
119.443
 30
0.0
 11
138.494
 21
133.393
 31
0.0
  0
LINE
  8
0
 62
     1
 10
157.544
 20
133.393
 30
0.0
 11
171.494
 21
133.393
 31
0.0
  0
LINE
  8
0
 62
     1
 10
171.494
 20
133.393
 30
0.0
 11
171.494
 21
119.443
 31
0.0
  0
LINE
  8
0
 62
     1
 10
171.494
 20
119.443
 30
0.0
 11
157.544
 21
119.443
 31
0.0
  0
LINE
  8
0
 62
     1
 10
157.544
 20
119.443
 30
0.0
 11
157.544
 21
133.393
 31
0.0
  0
LINE
  8
0
 62
     1
 10
176.594
 20
133.393
 30
0.0
 11
190.544
 21
133.393
 31
0.0
  0
LINE
  8
0
 62
     1
 10
190.544
 20
133.393
 30
0.0
 11
190.544
 21
119.443
 31
0.0
  0
LINE
  8
0
 62
     1
 10
190.544
 20
119.443
 30
0.0
 11
176.594
 21
119.443
 31
0.0
  0
LINE
  8
0
 62
     1
 10
176.594
 20
119.443
 30
0.0
 11
176.594
 21
133.393
 31
0.0
  0
LINE
  8
0
 62
     1
 10
195.644
 20
133.393
 30
0.0
 11
209.594
 21
133.393
 31
0.0
  0
LINE
  8
0
 62
     1
 10
209.594
 20
133.393
 30
0.0
 11
209.594
 21
119.443
 31
0.0
  0
LINE
  8
0
 62
     1
 10
209.594
 20
119.443
 30
0.0
 11
195.644
 21
119.443
 31
0.0
  0
LINE
  8
0
 62
     1
 10
195.644
 20
119.443
 30
0.0
 11
195.644
 21
133.393
 31
0.0
  0
LINE
  8
0
 62
     1
 10
224.219
 20
133.393
 30
0.0
 11
238.169
 21
133.393
 31
0.0
  0
LINE
  8
0
 62
     1
 10
238.169
 20
133.393
 30
0.0
 11
238.169
 21
119.443
 31
0.0
  0
LINE
  8
0
 62
     1
 10
238.169
 20
119.443
 30
0.0
 11
224.219
 21
119.443
 31
0.0
  0
LINE
  8
0
 62
     1
 10
224.219
 20
119.443
 30
0.0
 11
224.219
 21
133.393
 31
0.0
  0
LINE
  8
0
 62
     1
 10
243.269
 20
133.393
 30
0.0
 11
257.219
 21
133.393
 31
0.0
  0
LINE
  8
0
 62
     1
 10
257.219
 20
133.393
 30
0.0
 11
257.219
 21
119.443
 31
0.0
  0
LINE
  8
0
 62
     1
 10
257.219
 20
119.443
 30
0.0
 11
243.269
 21
119.443
 31
0.0
  0
LINE
  8
0
 62
     1
 10
243.269
 20
119.443
 30
0.0
 11
243.269
 21
133.393
 31
0.0
  0
LINE
  8
0
 62
     1
 10
262.319
 20
133.393
 30
0.0
 11
276.269
 21
133.393
 31
0.0
  0
LINE
  8
0
 62
     1
 10
276.269
 20
133.393
 30
0.0
 11
276.269
 21
119.443
 31
0.0
  0
LINE
  8
0
 62
     1
 10
276.269
 20
119.443
 30
0.0
 11
262.319
 21
119.443
 31
0.0
  0
LINE
  8
0
 62
     1
 10
262.319
 20
119.443
 30
0.0
 11
262.319
 21
133.393
 31
0.0
  0
LINE
  8
0
 62
     1
 10
281.369
 20
133.393
 30
0.0
 11
295.319
 21
133.393
 31
0.0
  0
LINE
  8
0
 62
     1
 10
295.319
 20
133.393
 30
0.0
 11
295.319
 21
119.443
 31
0.0
  0
LINE
  8
0
 62
     1
 10
295.319
 20
119.443
 30
0.0
 11
281.369
 21
119.443
 31
0.0
  0
LINE
  8
0
 62
     1
 10
281.369
 20
119.443
 30
0.0
 11
281.369
 21
133.393
 31
0.0
  0
LINE
  8
0
 62
     1
 10
305.182
 20
133.393
 30
0.0
 11
319.132
 21
133.393
 31
0.0
  0
LINE
  8
0
 62
     1
 10
319.132
 20
133.393
 30
0.0
 11
319.132
 21
119.443
 31
0.0
  0
LINE
  8
0
 62
     1
 10
319.132
 20
119.443
 30
0.0
 11
305.182
 21
119.443
 31
0.0
  0
LINE
  8
0
 62
     1
 10
305.182
 20
119.443
 30
0.0
 11
305.182
 21
133.393
 31
0.0
  0
LINE
  8
0
 62
     1
 10
324.232
 20
133.393
 30
0.0
 11
338.182
 21
133.393
 31
0.0
  0
LINE
  8
0
 62
     1
 10
338.182
 20
133.393
 30
0.0
 11
338.182
 21
119.443
 31
0.0
  0
LINE
  8
0
 62
     1
 10
338.182
 20
119.443
 30
0.0
 11
324.232
 21
119.443
 31
0.0
  0
LINE
  8
0
 62
     1
 10
324.232
 20
119.443
 30
0.0
 11
324.232
 21
133.393
 31
0.0
  0
LINE
  8
0
 62
     1
 10
343.282
 20
133.393
 30
0.0
 11
357.233
 21
133.393
 31
0.0
  0
LINE
  8
0
 62
     1
 10
357.233
 20
133.393
 30
0.0
 11
357.233
 21
119.443
 31
0.0
  0
LINE
  8
0
 62
     1
 10
357.233
 20
119.443
 30
0.0
 11
343.282
 21
119.443
 31
0.0
  0
LINE
  8
0
 62
     1
 10
343.282
 20
119.443
 30
0.0
 11
343.282
 21
133.393
 31
0.0
  0
LINE
  8
0
 62
     1
 10
125.473
 20
143.583
 30
0.0
 11
124.992
 21
143.338
 31
0.0
  0
LINE
  8
0
 62
     1
 10
124.992
 20
143.338
 30
0.0
 11
124.612
 21
142.956
 31
0.0
  0
LINE
  8
0
 62
     1
 10
124.612
 20
142.956
 30
0.0
 11
124.365
 21
142.477
 31
0.0
  0
LINE
  8
0
 62
     1
 10
124.365
 20
142.477
 30
0.0
 11
124.281
 21
141.942
 31
0.0
  0
LINE
  8
0
 62
     1
 10
124.281
 20
141.942
 30
0.0
 11
124.365
 21
141.409
 31
0.0
  0
LINE
  8
0
 62
     1
 10
124.365
 20
141.409
 30
0.0
 11
124.612
 21
140.929
 31
0.0
  0
LINE
  8
0
 62
     1
 10
124.612
 20
140.929
 30
0.0
 11
124.992
 21
140.547
 31
0.0
  0
LINE
  8
0
 62
     1
 10
124.992
 20
140.547
 30
0.0
 11
125.473
 21
140.302
 31
0.0
  0
LINE
  8
0
 62
     1
 10
125.473
 20
140.302
 30
0.0
 11
126.007
 21
140.217
 31
0.0
  0
LINE
  8
0
 62
     1
 10
126.007
 20
140.217
 30
0.0
 11
126.54
 21
140.302
 31
0.0
  0
LINE
  8
0
 62
     1
 10
126.54
 20
140.302
 30
0.0
 11
127.021
 21
140.547
 31
0.0
  0
LINE
  8
0
 62
     1
 10
127.021
 20
140.547
 30
0.0
 11
127.403
 21
140.929
 31
0.0
  0
LINE
  8
0
 62
     1
 10
127.403
 20
140.929
 30
0.0
 11
127.648
 21
141.409
 31
0.0
  0
LINE
  8
0
 62
     1
 10
127.648
 20
141.409
 30
0.0
 11
127.732
 21
141.942
 31
0.0
  0
LINE
  8
0
 62
     1
 10
127.732
 20
141.942
 30
0.0
 11
127.648
 21
142.477
 31
0.0
  0
LINE
  8
0
 62
     1
 10
127.648
 20
142.477
 30
0.0
 11
127.403
 21
142.956
 31
0.0
  0
LINE
  8
0
 62
     1
 10
127.403
 20
142.956
 30
0.0
 11
127.021
 21
143.338
 31
0.0
  0
LINE
  8
0
 62
     1
 10
127.021
 20
143.338
 30
0.0
 11
126.54
 21
143.583
 31
0.0
  0
LINE
  8
0
 62
     1
 10
126.54
 20
143.583
 30
0.0
 11
126.007
 21
143.667
 31
0.0
  0
LINE
  8
0
 62
     1
 10
126.007
 20
143.667
 30
0.0
 11
125.473
 21
143.583
 31
0.0
  0
LINE
  8
0
 62
     1
 10
245.361
 20
143.583
 30
0.0
 11
244.88
 21
143.338
 31
0.0
  0
LINE
  8
0
 62
     1
 10
244.88
 20
143.338
 30
0.0
 11
244.5
 21
142.956
 31
0.0
  0
LINE
  8
0
 62
     1
 10
244.5
 20
142.956
 30
0.0
 11
244.255
 21
142.477
 31
0.0
  0
LINE
  8
0
 62
     1
 10
244.255
 20
142.477
 30
0.0
 11
244.169
 21
141.942
 31
0.0
  0
LINE
  8
0
 62
     1
 10
244.169
 20
141.942
 30
0.0
 11
244.255
 21
141.409
 31
0.0
  0
LINE
  8
0
 62
     1
 10
244.255
 20
141.409
 30
0.0
 11
244.5
 21
140.929
 31
0.0
  0
LINE
  8
0
 62
     1
 10
244.5
 20
140.929
 30
0.0
 11
244.88
 21
140.547
 31
0.0
  0
LINE
  8
0
 62
     1
 10
244.88
 20
140.547
 30
0.0
 11
245.361
 21
140.302
 31
0.0
  0
LINE
  8
0
 62
     1
 10
245.361
 20
140.302
 30
0.0
 11
245.894
 21
140.217
 31
0.0
  0
LINE
  8
0
 62
     1
 10
245.894
 20
140.217
 30
0.0
 11
246.428
 21
140.302
 31
0.0
  0
LINE
  8
0
 62
     1
 10
246.428
 20
140.302
 30
0.0
 11
246.908
 21
140.547
 31
0.0
  0
LINE
  8
0
 62
     1
 10
246.908
 20
140.547
 30
0.0
 11
247.29
 21
140.929
 31
0.0
  0
LINE
  8
0
 62
     1
 10
247.29
 20
140.929
 30
0.0
 11
247.536
 21
141.409
 31
0.0
  0
LINE
  8
0
 62
     1
 10
247.536
 20
141.409
 30
0.0
 11
247.62
 21
141.942
 31
0.0
  0
LINE
  8
0
 62
     1
 10
247.62
 20
141.942
 30
0.0
 11
247.536
 21
142.477
 31
0.0
  0
LINE
  8
0
 62
     1
 10
247.536
 20
142.477
 30
0.0
 11
247.29
 21
142.956
 31
0.0
  0
LINE
  8
0
 62
     1
 10
247.29
 20
142.956
 30
0.0
 11
246.908
 21
143.338
 31
0.0
  0
LINE
  8
0
 62
     1
 10
246.908
 20
143.338
 30
0.0
 11
246.428
 21
143.583
 31
0.0
  0
LINE
  8
0
 62
     1
 10
246.428
 20
143.583
 30
0.0
 11
245.894
 21
143.667
 31
0.0
  0
LINE
  8
0
 62
     1
 10
245.894
 20
143.667
 30
0.0
 11
245.361
 21
143.583
 31
0.0
  0
LINE
  8
0
 62
     1
 10
365.252
 20
143.583
 30
0.0
 11
364.769
 21
143.338
 31
0.0
  0
LINE
  8
0
 62
     1
 10
364.769
 20
143.338
 30
0.0
 11
364.388
 21
142.956
 31
0.0
  0
LINE
  8
0
 62
     1
 10
364.388
 20
142.956
 30
0.0
 11
364.141
 21
142.477
 31
0.0
  0
LINE
  8
0
 62
     1
 10
364.141
 20
142.477
 30
0.0
 11
364.06
 21
141.942
 31
0.0
  0
LINE
  8
0
 62
     1
 10
364.06
 20
141.942
 30
0.0
 11
364.141
 21
141.409
 31
0.0
  0
LINE
  8
0
 62
     1
 10
364.141
 20
141.409
 30
0.0
 11
364.388
 21
140.929
 31
0.0
  0
LINE
  8
0
 62
     1
 10
364.388
 20
140.929
 30
0.0
 11
364.769
 21
140.547
 31
0.0
  0
LINE
  8
0
 62
     1
 10
364.769
 20
140.547
 30
0.0
 11
365.252
 21
140.302
 31
0.0
  0
LINE
  8
0
 62
     1
 10
365.252
 20
140.302
 30
0.0
 11
365.781
 21
140.217
 31
0.0
  0
LINE
  8
0
 62
     1
 10
365.781
 20
140.217
 30
0.0
 11
366.317
 21
140.302
 31
0.0
  0
LINE
  8
0
 62
     1
 10
366.317
 20
140.302
 30
0.0
 11
366.797
 21
140.547
 31
0.0
  0
LINE
  8
0
 62
     1
 10
366.797
 20
140.547
 30
0.0
 11
367.178
 21
140.929
 31
0.0
  0
LINE
  8
0
 62
     1
 10
367.178
 20
140.929
 30
0.0
 11
367.425
 21
141.409
 31
0.0
  0
LINE
  8
0
 62
     1
 10
367.425
 20
141.409
 30
0.0
 11
367.506
 21
141.942
 31
0.0
  0
LINE
  8
0
 62
     1
 10
367.506
 20
141.942
 30
0.0
 11
367.425
 21
142.477
 31
0.0
  0
LINE
  8
0
 62
     1
 10
367.425
 20
142.477
 30
0.0
 11
367.178
 21
142.956
 31
0.0
  0
LINE
  8
0
 62
     1
 10
367.178
 20
142.956
 30
0.0
 11
366.797
 21
143.338
 31
0.0
  0
LINE
  8
0
 62
     1
 10
366.797
 20
143.338
 30
0.0
 11
366.317
 21
143.583
 31
0.0
  0
LINE
  8
0
 62
     1
 10
366.317
 20
143.583
 30
0.0
 11
365.781
 21
143.667
 31
0.0
  0
LINE
  8
0
 62
     1
 10
365.781
 20
143.667
 30
0.0
 11
365.252
 21
143.583
 31
0.0
  0
LINE
  8
0
 62
     1
 10
5.58518
 20
143.583
 30
0.0
 11
5.10565
 21
143.338
 31
0.0
  0
LINE
  8
0
 62
     1
 10
5.10565
 20
143.338
 30
0.0
 11
4.72391
 21
142.956
 31
0.0
  0
LINE
  8
0
 62
     1
 10
4.72391
 20
142.956
 30
0.0
 11
4.47862
 21
142.477
 31
0.0
  0
LINE
  8
0
 62
     1
 10
4.47862
 20
142.477
 30
0.0
 11
4.39318
 21
141.942
 31
0.0
  0
LINE
  8
0
 62
     1
 10
4.39318
 20
141.942
 30
0.0
 11
4.47862
 21
141.409
 31
0.0
  0
LINE
  8
0
 62
     1
 10
4.47862
 20
141.409
 30
0.0
 11
4.72391
 21
140.929
 31
0.0
  0
LINE
  8
0
 62
     1
 10
4.72391
 20
140.929
 30
0.0
 11
5.10565
 21
140.547
 31
0.0
  0
LINE
  8
0
 62
     1
 10
5.10565
 20
140.547
 30
0.0
 11
5.58518
 21
140.302
 31
0.0
  0
LINE
  8
0
 62
     1
 10
5.58518
 20
140.302
 30
0.0
 11
6.11851
 21
140.217
 31
0.0
  0
LINE
  8
0
 62
     1
 10
6.11851
 20
140.217
 30
0.0
 11
6.65318
 21
140.302
 31
0.0
  0
LINE
  8
0
 62
     1
 10
6.65318
 20
140.302
 30
0.0
 11
7.13274
 21
140.547
 31
0.0
  0
LINE
  8
0
 62
     1
 10
7.13274
 20
140.547
 30
0.0
 11
7.51445
 21
140.929
 31
0.0
  0
LINE
  8
0
 62
     1
 10
7.51445
 20
140.929
 30
0.0
 11
7.75974
 21
141.409
 31
0.0
  0
LINE
  8
0
 62
     1
 10
7.75974
 20
141.409
 30
0.0
 11
7.8438
 21
141.942
 31
0.0
  0
LINE
  8
0
 62
     1
 10
7.8438
 20
141.942
 30
0.0
 11
7.75974
 21
142.477
 31
0.0
  0
LINE
  8
0
 62
     1
 10
7.75974
 20
142.477
 30
0.0
 11
7.51445
 21
142.956
 31
0.0
  0
LINE
  8
0
 62
     1
 10
7.51445
 20
142.956
 30
0.0
 11
7.13274
 21
143.338
 31
0.0
  0
LINE
  8
0
 62
     1
 10
7.13274
 20
143.338
 30
0.0
 11
6.65318
 21
143.583
 31
0.0
  0
LINE
  8
0
 62
     1
 10
6.65318
 20
143.583
 30
0.0
 11
6.11851
 21
143.667
 31
0.0
  0
LINE
  8
0
 62
     1
 10
6.11851
 20
143.667
 30
0.0
 11
5.58518
 21
143.583
 31
0.0
  0
ENDSEC
  0
EOF
