  0
SECTION
  2
HEADER
  9
$ACADVER
  1
AC1009
  9
$EXTMIN
 10
0.0
 20
0.0
 30
0.0
  9
$EXTMAX
 10
1000.0
 20
1000.0
 30
0.0
  9
$FILLMODE
 70
 0
  9
$SPLFRAME
 70
 1
  0
ENDSEC
  0
SECTION
  2
TABLES
  0
TABLE
  2
LAYER
 70
1
  0
LAYER
  2
0
 70
     0
 62
     7
  6
CONTINUOUS
  0
ENDTAB
  0
ENDSEC
  0
SECTION
  2
ENTITIES
  0
LINE
  8
0
 62
     1
 10
362.807
 20
147.967
 30
0.0
 11
363.513
 21
147.941
 31
0.0
  0
LINE
  8
0
 62
     1
 10
363.513
 20
147.941
 30
0.0
 11
364.215
 21
147.857
 31
0.0
  0
LINE
  8
0
 62
     1
 10
364.215
 20
147.857
 30
0.0
 11
364.91
 21
147.719
 31
0.0
  0
LINE
  8
0
 62
     1
 10
364.91
 20
147.719
 30
0.0
 11
365.591
 21
147.527
 31
0.0
  0
LINE
  8
0
 62
     1
 10
365.591
 20
147.527
 30
0.0
 11
366.254
 21
147.282
 31
0.0
  0
LINE
  8
0
 62
     1
 10
366.254
 20
147.282
 30
0.0
 11
366.896
 21
146.987
 31
0.0
  0
LINE
  8
0
 62
     1
 10
366.896
 20
146.987
 30
0.0
 11
367.51
 21
146.641
 31
0.0
  0
LINE
  8
0
 62
     1
 10
367.51
 20
146.641
 30
0.0
 11
368.099
 21
146.25
 31
0.0
  0
LINE
  8
0
 62
     1
 10
368.099
 20
146.25
 30
0.0
 11
368.653
 21
145.812
 31
0.0
  0
LINE
  8
0
 62
     1
 10
368.653
 20
145.812
 30
0.0
 11
369.171
 21
145.331
 31
0.0
  0
LINE
  8
0
 62
     1
 10
369.171
 20
145.331
 30
0.0
 11
369.651
 21
144.812
 31
0.0
  0
LINE
  8
0
 62
     1
 10
369.651
 20
144.812
 30
0.0
 11
370.089
 21
144.259
 31
0.0
  0
LINE
  8
0
 62
     1
 10
370.089
 20
144.259
 30
0.0
 11
370.48
 21
143.67
 31
0.0
  0
LINE
  8
0
 62
     1
 10
370.48
 20
143.67
 30
0.0
 11
370.826
 21
143.053
 31
0.0
  0
LINE
  8
0
 62
     1
 10
370.826
 20
143.053
 30
0.0
 11
371.122
 21
142.412
 31
0.0
  0
LINE
  8
0
 62
     1
 10
371.122
 20
142.412
 30
0.0
 11
371.369
 21
141.749
 31
0.0
  0
LINE
  8
0
 62
     1
 10
371.369
 20
141.749
 30
0.0
 11
371.56
 21
141.07
 31
0.0
  0
LINE
  8
0
 62
     1
 10
371.56
 20
141.07
 30
0.0
 11
371.697
 21
140.375
 31
0.0
  0
LINE
  8
0
 62
     1
 10
371.697
 20
140.375
 30
0.0
 11
371.778
 21
139.674
 31
0.0
  0
LINE
  8
0
 62
     1
 10
371.778
 20
139.674
 30
0.0
 11
371.807
 21
138.967
 31
0.0
  0
LINE
  8
0
 62
     1
 10
371.807
 20
138.967
 30
0.0
 11
371.807
 21
9.09091
 31
0.0
  0
LINE
  8
0
 62
     1
 10
371.807
 20
9.09091
 30
0.0
 11
371.778
 21
8.38535
 31
0.0
  0
LINE
  8
0
 62
     1
 10
371.778
 20
8.38535
 30
0.0
 11
371.697
 21
7.68396
 31
0.0
  0
LINE
  8
0
 62
     1
 10
371.697
 20
7.68396
 30
0.0
 11
371.56
 21
6.99079
 31
0.0
  0
LINE
  8
0
 62
     1
 10
371.56
 20
6.99079
 30
0.0
 11
371.369
 21
6.31003
 31
0.0
  0
LINE
  8
0
 62
     1
 10
371.369
 20
6.31003
 30
0.0
 11
371.122
 21
5.6472
 31
0.0
  0
LINE
  8
0
 62
     1
 10
371.122
 20
5.6472
 30
0.0
 11
370.826
 21
5.00641
 31
0.0
  0
LINE
  8
0
 62
     1
 10
370.826
 20
5.00641
 30
0.0
 11
370.48
 21
4.38905
 31
0.0
  0
LINE
  8
0
 62
     1
 10
370.48
 20
4.38905
 30
0.0
 11
370.089
 21
3.80062
 31
0.0
  0
LINE
  8
0
 62
     1
 10
370.089
 20
3.80062
 30
0.0
 11
369.651
 21
3.24666
 31
0.0
  0
LINE
  8
0
 62
     1
 10
369.651
 20
3.24666
 30
0.0
 11
369.171
 21
2.72852
 31
0.0
  0
LINE
  8
0
 62
     1
 10
369.171
 20
2.72852
 30
0.0
 11
368.653
 21
2.24758
 31
0.0
  0
LINE
  8
0
 62
     1
 10
368.653
 20
2.24758
 30
0.0
 11
368.099
 21
1.81074
 31
0.0
  0
LINE
  8
0
 62
     1
 10
368.099
 20
1.81074
 30
0.0
 11
367.51
 21
1.418
 31
0.0
  0
LINE
  8
0
 62
     1
 10
367.51
 20
1.418
 30
0.0
 11
366.896
 21
1.07211
 31
0.0
  0
LINE
  8
0
 62
     1
 10
366.896
 20
1.07211
 30
0.0
 11
366.254
 21
0.777215
 31
0.0
  0
LINE
  8
0
 62
     1
 10
366.254
 20
0.777215
 30
0.0
 11
365.591
 21
0.531922
 31
0.0
  0
LINE
  8
0
 62
     1
 10
365.591
 20
0.531922
 30
0.0
 11
364.91
 21
0.340376
 31
0.0
  0
LINE
  8
0
 62
     1
 10
364.91
 20
0.340376
 30
0.0
 11
364.215
 21
0.202572
 31
0.0
  0
LINE
  8
0
 62
     1
 10
364.215
 20
0.202572
 30
0.0
 11
363.513
 21
0.118511
 31
0.0
  0
LINE
  8
0
 62
     1
 10
363.513
 20
0.118511
 30
0.0
 11
362.807
 21
0.0909507
 31
0.0
  0
LINE
  8
0
 62
     1
 10
362.807
 20
0.0909507
 30
0.0
 11
9.09507
 21
0.0909507
 31
0.0
  0
LINE
  8
0
 62
     1
 10
9.09507
 20
0.0909507
 30
0.0
 11
8.3881
 21
0.118511
 31
0.0
  0
LINE
  8
0
 62
     1
 10
8.3881
 20
0.118511
 30
0.0
 11
7.68671
 21
0.202572
 31
0.0
  0
LINE
  8
0
 62
     1
 10
7.68671
 20
0.202572
 30
0.0
 11
6.99216
 21
0.340376
 31
0.0
  0
LINE
  8
0
 62
     1
 10
6.99216
 20
0.340376
 30
0.0
 11
6.31278
 21
0.531922
 31
0.0
  0
LINE
  8
0
 62
     1
 10
6.31278
 20
0.531922
 30
0.0
 11
5.64995
 21
0.777215
 31
0.0
  0
LINE
  8
0
 62
     1
 10
5.64995
 20
0.777215
 30
0.0
 11
5.00916
 21
1.07211
 31
0.0
  0
LINE
  8
0
 62
     1
 10
5.00916
 20
1.07211
 30
0.0
 11
4.3918
 21
1.418
 31
0.0
  0
LINE
  8
0
 62
     1
 10
4.3918
 20
1.418
 30
0.0
 11
3.8034
 21
1.81074
 31
0.0
  0
LINE
  8
0
 62
     1
 10
3.8034
 20
1.81074
 30
0.0
 11
3.24942
 21
2.24758
 31
0.0
  0
LINE
  8
0
 62
     1
 10
3.24942
 20
2.24758
 30
0.0
 11
2.73127
 21
2.72852
 31
0.0
  0
LINE
  8
0
 62
     1
 10
2.73127
 20
2.72852
 30
0.0
 11
2.25034
 21
3.24666
 31
0.0
  0
LINE
  8
0
 62
     1
 10
2.25034
 20
3.24666
 30
0.0
 11
1.81212
 21
3.80062
 31
0.0
  0
LINE
  8
0
 62
     1
 10
1.81212
 20
3.80062
 30
0.0
 11
1.42076
 21
4.38905
 31
0.0
  0
LINE
  8
0
 62
     1
 10
1.42076
 20
4.38905
 30
0.0
 11
1.07487
 21
5.00641
 31
0.0
  0
LINE
  8
0
 62
     1
 10
1.07487
 20
5.00641
 30
0.0
 11
0.77997
 21
5.6472
 31
0.0
  0
LINE
  8
0
 62
     1
 10
0.77997
 20
5.6472
 30
0.0
 11
0.534681
 21
6.31003
 31
0.0
  0
LINE
  8
0
 62
     1
 10
0.534681
 20
6.31003
 30
0.0
 11
0.343131
 21
6.99079
 31
0.0
  0
LINE
  8
0
 62
     1
 10
0.343131
 20
6.99079
 30
0.0
 11
0.205328
 21
7.68396
 31
0.0
  0
LINE
  8
0
 62
     1
 10
0.205328
 20
7.68396
 30
0.0
 11
0.121267
 21
8.38535
 31
0.0
  0
LINE
  8
0
 62
     1
 10
0.121267
 20
8.38535
 30
0.0
 11
0.0937066
 21
9.09228
 31
0.0
  0
LINE
  8
0
 62
     1
 10
0.0937066
 20
9.09228
 30
0.0
 11
0.0950846
 21
138.967
 31
0.0
  0
LINE
  8
0
 62
     1
 10
0.0950846
 20
138.967
 30
0.0
 11
0.121267
 21
139.674
 31
0.0
  0
LINE
  8
0
 62
     1
 10
0.121267
 20
139.674
 30
0.0
 11
0.205328
 21
140.375
 31
0.0
  0
LINE
  8
0
 62
     1
 10
0.205328
 20
140.375
 30
0.0
 11
0.343131
 21
141.07
 31
0.0
  0
LINE
  8
0
 62
     1
 10
0.343131
 20
141.07
 30
0.0
 11
0.534681
 21
141.749
 31
0.0
  0
LINE
  8
0
 62
     1
 10
0.534681
 20
141.749
 30
0.0
 11
0.77997
 21
142.412
 31
0.0
  0
LINE
  8
0
 62
     1
 10
0.77997
 20
142.412
 30
0.0
 11
1.07487
 21
143.053
 31
0.0
  0
LINE
  8
0
 62
     1
 10
1.07487
 20
143.053
 30
0.0
 11
1.42076
 21
143.67
 31
0.0
  0
LINE
  8
0
 62
     1
 10
1.42076
 20
143.67
 30
0.0
 11
1.81212
 21
144.259
 31
0.0
  0
LINE
  8
0
 62
     1
 10
1.81212
 20
144.259
 30
0.0
 11
2.25034
 21
144.812
 31
0.0
  0
LINE
  8
0
 62
     1
 10
2.25034
 20
144.812
 30
0.0
 11
2.73127
 21
145.331
 31
0.0
  0
LINE
  8
0
 62
     1
 10
2.73127
 20
145.331
 30
0.0
 11
3.24942
 21
145.812
 31
0.0
  0
LINE
  8
0
 62
     1
 10
3.24942
 20
145.812
 30
0.0
 11
3.8034
 21
146.25
 31
0.0
  0
LINE
  8
0
 62
     1
 10
3.8034
 20
146.25
 30
0.0
 11
4.3918
 21
146.641
 31
0.0
  0
LINE
  8
0
 62
     1
 10
4.3918
 20
146.641
 30
0.0
 11
5.00916
 21
146.987
 31
0.0
  0
LINE
  8
0
 62
     1
 10
5.00916
 20
146.987
 30
0.0
 11
5.64995
 21
147.282
 31
0.0
  0
LINE
  8
0
 62
     1
 10
5.64995
 20
147.282
 30
0.0
 11
6.31278
 21
147.527
 31
0.0
  0
LINE
  8
0
 62
     1
 10
6.31278
 20
147.527
 30
0.0
 11
6.99216
 21
147.719
 31
0.0
  0
LINE
  8
0
 62
     1
 10
6.99216
 20
147.719
 30
0.0
 11
7.68671
 21
147.857
 31
0.0
  0
LINE
  8
0
 62
     1
 10
7.68671
 20
147.857
 30
0.0
 11
8.3881
 21
147.941
 31
0.0
  0
LINE
  8
0
 62
     1
 10
8.3881
 20
147.941
 30
0.0
 11
9.09507
 21
147.968
 31
0.0
  0
LINE
  8
0
 62
     1
 10
9.09507
 20
147.968
 30
0.0
 11
362.807
 21
147.967
 31
0.0
  0
LINE
  8
0
 62
     1
 10
365.326
 20
7.51858
 30
0.0
 11
364.917
 21
7.31188
 31
0.0
  0
LINE
  8
0
 62
     1
 10
364.917
 20
7.31188
 30
0.0
 11
364.589
 21
6.98253
 31
0.0
  0
LINE
  8
0
 62
     1
 10
364.589
 20
6.98253
 30
0.0
 11
364.381
 21
6.57186
 31
0.0
  0
LINE
  8
0
 62
     1
 10
364.381
 20
6.57186
 30
0.0
 11
364.307
 21
6.11572
 31
0.0
  0
LINE
  8
0
 62
     1
 10
364.307
 20
6.11572
 30
0.0
 11
364.381
 21
5.66099
 31
0.0
  0
LINE
  8
0
 62
     1
 10
364.381
 20
5.66099
 30
0.0
 11
364.589
 21
5.25032
 31
0.0
  0
LINE
  8
0
 62
     1
 10
364.589
 20
5.25032
 30
0.0
 11
364.917
 21
4.92372
 31
0.0
  0
LINE
  8
0
 62
     1
 10
364.917
 20
4.92372
 30
0.0
 11
365.326
 21
4.71428
 31
0.0
  0
LINE
  8
0
 62
     1
 10
365.326
 20
4.71428
 30
0.0
 11
365.781
 21
4.64125
 31
0.0
  0
LINE
  8
0
 62
     1
 10
365.781
 20
4.64125
 30
0.0
 11
366.24
 21
4.71428
 31
0.0
  0
LINE
  8
0
 62
     1
 10
366.24
 20
4.71428
 30
0.0
 11
366.649
 21
4.92372
 31
0.0
  0
LINE
  8
0
 62
     1
 10
366.649
 20
4.92372
 30
0.0
 11
366.977
 21
5.25032
 31
0.0
  0
LINE
  8
0
 62
     1
 10
366.977
 20
5.25032
 30
0.0
 11
367.185
 21
5.66099
 31
0.0
  0
LINE
  8
0
 62
     1
 10
367.185
 20
5.66099
 30
0.0
 11
367.259
 21
6.11572
 31
0.0
  0
LINE
  8
0
 62
     1
 10
367.259
 20
6.11572
 30
0.0
 11
367.185
 21
6.57186
 31
0.0
  0
LINE
  8
0
 62
     1
 10
367.185
 20
6.57186
 30
0.0
 11
366.977
 21
6.98253
 31
0.0
  0
LINE
  8
0
 62
     1
 10
366.977
 20
6.98253
 30
0.0
 11
366.649
 21
7.31188
 31
0.0
  0
LINE
  8
0
 62
     1
 10
366.649
 20
7.31188
 30
0.0
 11
366.24
 21
7.51858
 31
0.0
  0
LINE
  8
0
 62
     1
 10
366.24
 20
7.51858
 30
0.0
 11
365.781
 21
7.5916
 31
0.0
  0
LINE
  8
0
 62
     1
 10
365.781
 20
7.5916
 30
0.0
 11
365.326
 21
7.51858
 31
0.0
  0
LINE
  8
0
 62
     1
 10
245.438
 20
7.51858
 30
0.0
 11
245.027
 21
7.31188
 31
0.0
  0
LINE
  8
0
 62
     1
 10
245.027
 20
7.31188
 30
0.0
 11
244.703
 21
6.98253
 31
0.0
  0
LINE
  8
0
 62
     1
 10
244.703
 20
6.98253
 30
0.0
 11
244.492
 21
6.57186
 31
0.0
  0
LINE
  8
0
 62
     1
 10
244.492
 20
6.57186
 30
0.0
 11
244.42
 21
6.11572
 31
0.0
  0
LINE
  8
0
 62
     1
 10
244.42
 20
6.11572
 30
0.0
 11
244.492
 21
5.66099
 31
0.0
  0
LINE
  8
0
 62
     1
 10
244.492
 20
5.66099
 30
0.0
 11
244.703
 21
5.25032
 31
0.0
  0
LINE
  8
0
 62
     1
 10
244.703
 20
5.25032
 30
0.0
 11
245.027
 21
4.92372
 31
0.0
  0
LINE
  8
0
 62
     1
 10
245.027
 20
4.92372
 30
0.0
 11
245.438
 21
4.71428
 31
0.0
  0
LINE
  8
0
 62
     1
 10
245.438
 20
4.71428
 30
0.0
 11
245.894
 21
4.64125
 31
0.0
  0
LINE
  8
0
 62
     1
 10
245.894
 20
4.64125
 30
0.0
 11
246.35
 21
4.71428
 31
0.0
  0
LINE
  8
0
 62
     1
 10
246.35
 20
4.71428
 30
0.0
 11
246.761
 21
4.92372
 31
0.0
  0
LINE
  8
0
 62
     1
 10
246.761
 20
4.92372
 30
0.0
 11
247.088
 21
5.25032
 31
0.0
  0
LINE
  8
0
 62
     1
 10
247.088
 20
5.25032
 30
0.0
 11
247.297
 21
5.66099
 31
0.0
  0
LINE
  8
0
 62
     1
 10
247.297
 20
5.66099
 30
0.0
 11
247.37
 21
6.11572
 31
0.0
  0
LINE
  8
0
 62
     1
 10
247.37
 20
6.11572
 30
0.0
 11
247.297
 21
6.57186
 31
0.0
  0
LINE
  8
0
 62
     1
 10
247.297
 20
6.57186
 30
0.0
 11
247.088
 21
6.98253
 31
0.0
  0
LINE
  8
0
 62
     1
 10
247.088
 20
6.98253
 30
0.0
 11
246.761
 21
7.31188
 31
0.0
  0
LINE
  8
0
 62
     1
 10
246.761
 20
7.31188
 30
0.0
 11
246.35
 21
7.51858
 31
0.0
  0
LINE
  8
0
 62
     1
 10
246.35
 20
7.51858
 30
0.0
 11
245.894
 21
7.5916
 31
0.0
  0
LINE
  8
0
 62
     1
 10
245.894
 20
7.5916
 30
0.0
 11
245.438
 21
7.51858
 31
0.0
  0
LINE
  8
0
 62
     1
 10
125.552
 20
7.51858
 30
0.0
 11
125.138
 21
7.31188
 31
0.0
  0
LINE
  8
0
 62
     1
 10
125.138
 20
7.31188
 30
0.0
 11
124.815
 21
6.98253
 31
0.0
  0
LINE
  8
0
 62
     1
 10
124.815
 20
6.98253
 30
0.0
 11
124.604
 21
6.57186
 31
0.0
  0
LINE
  8
0
 62
     1
 10
124.604
 20
6.57186
 30
0.0
 11
124.532
 21
6.11572
 31
0.0
  0
LINE
  8
0
 62
     1
 10
124.532
 20
6.11572
 30
0.0
 11
124.604
 21
5.66099
 31
0.0
  0
LINE
  8
0
 62
     1
 10
124.604
 20
5.66099
 30
0.0
 11
124.815
 21
5.25032
 31
0.0
  0
LINE
  8
0
 62
     1
 10
124.815
 20
5.25032
 30
0.0
 11
125.138
 21
4.92372
 31
0.0
  0
LINE
  8
0
 62
     1
 10
125.138
 20
4.92372
 30
0.0
 11
125.552
 21
4.71428
 31
0.0
  0
LINE
  8
0
 62
     1
 10
125.552
 20
4.71428
 30
0.0
 11
126.007
 21
4.64125
 31
0.0
  0
LINE
  8
0
 62
     1
 10
126.007
 20
4.64125
 30
0.0
 11
126.463
 21
4.71428
 31
0.0
  0
LINE
  8
0
 62
     1
 10
126.463
 20
4.71428
 30
0.0
 11
126.873
 21
4.92372
 31
0.0
  0
LINE
  8
0
 62
     1
 10
126.873
 20
4.92372
 30
0.0
 11
127.201
 21
5.25032
 31
0.0
  0
LINE
  8
0
 62
     1
 10
127.201
 20
5.25032
 30
0.0
 11
127.409
 21
5.66099
 31
0.0
  0
LINE
  8
0
 62
     1
 10
127.409
 20
5.66099
 30
0.0
 11
127.482
 21
6.11572
 31
0.0
  0
LINE
  8
0
 62
     1
 10
127.482
 20
6.11572
 30
0.0
 11
127.409
 21
6.57186
 31
0.0
  0
LINE
  8
0
 62
     1
 10
127.409
 20
6.57186
 30
0.0
 11
127.201
 21
6.98253
 31
0.0
  0
LINE
  8
0
 62
     1
 10
127.201
 20
6.98253
 30
0.0
 11
126.873
 21
7.31188
 31
0.0
  0
LINE
  8
0
 62
     1
 10
126.873
 20
7.31188
 30
0.0
 11
126.463
 21
7.51858
 31
0.0
  0
LINE
  8
0
 62
     1
 10
126.463
 20
7.51858
 30
0.0
 11
126.007
 21
7.5916
 31
0.0
  0
LINE
  8
0
 62
     1
 10
126.007
 20
7.5916
 30
0.0
 11
125.552
 21
7.51858
 31
0.0
  0
LINE
  8
0
 62
     1
 10
5.66374
 20
7.51858
 30
0.0
 11
5.25307
 21
7.31188
 31
0.0
  0
LINE
  8
0
 62
     1
 10
5.25307
 20
7.31188
 30
0.0
 11
4.9251
 21
6.98253
 31
0.0
  0
LINE
  8
0
 62
     1
 10
4.9251
 20
6.98253
 30
0.0
 11
4.71703
 21
6.57186
 31
0.0
  0
LINE
  8
0
 62
     1
 10
4.71703
 20
6.57186
 30
0.0
 11
4.644
 21
6.11572
 31
0.0
  0
LINE
  8
0
 62
     1
 10
4.644
 20
6.11572
 30
0.0
 11
4.71703
 21
5.66099
 31
0.0
  0
LINE
  8
0
 62
     1
 10
4.71703
 20
5.66099
 30
0.0
 11
4.9251
 21
5.25032
 31
0.0
  0
LINE
  8
0
 62
     1
 10
4.9251
 20
5.25032
 30
0.0
 11
5.25307
 21
4.92372
 31
0.0
  0
LINE
  8
0
 62
     1
 10
5.25307
 20
4.92372
 30
0.0
 11
5.66374
 21
4.71428
 31
0.0
  0
LINE
  8
0
 62
     1
 10
5.66374
 20
4.71428
 30
0.0
 11
6.11851
 21
4.64125
 31
0.0
  0
LINE
  8
0
 62
     1
 10
6.11851
 20
4.64125
 30
0.0
 11
6.57461
 21
4.71428
 31
0.0
  0
LINE
  8
0
 62
     1
 10
6.57461
 20
4.71428
 30
0.0
 11
6.98528
 21
4.92372
 31
0.0
  0
LINE
  8
0
 62
     1
 10
6.98528
 20
4.92372
 30
0.0
 11
7.31326
 21
5.25032
 31
0.0
  0
LINE
  8
0
 62
     1
 10
7.31326
 20
5.25032
 30
0.0
 11
7.52133
 21
5.66099
 31
0.0
  0
LINE
  8
0
 62
     1
 10
7.52133
 20
5.66099
 30
0.0
 11
7.59435
 21
6.11572
 31
0.0
  0
LINE
  8
0
 62
     1
 10
7.59435
 20
6.11572
 30
0.0
 11
7.52133
 21
6.57186
 31
0.0
  0
LINE
  8
0
 62
     1
 10
7.52133
 20
6.57186
 30
0.0
 11
7.31326
 21
6.98253
 31
0.0
  0
LINE
  8
0
 62
     1
 10
7.31326
 20
6.98253
 30
0.0
 11
6.98528
 21
7.31188
 31
0.0
  0
LINE
  8
0
 62
     1
 10
6.98528
 20
7.31188
 30
0.0
 11
6.57461
 21
7.51858
 31
0.0
  0
LINE
  8
0
 62
     1
 10
6.57461
 20
7.51858
 30
0.0
 11
6.11851
 21
7.5916
 31
0.0
  0
LINE
  8
0
 62
     1
 10
6.11851
 20
7.5916
 30
0.0
 11
5.66374
 21
7.51858
 31
0.0
  0
LINE
  8
0
 62
     1
 10
91.4633
 20
28.0679
 30
0.0
 11
94.7127
 21
28.0679
 31
0.0
  0
LINE
  8
0
 62
     1
 10
94.7127
 20
28.0679
 30
0.0
 11
94.7127
 21
13.9182
 31
0.0
  0
LINE
  8
0
 62
     1
 10
94.7127
 20
13.9182
 30
0.0
 11
91.4633
 21
13.9182
 31
0.0
  0
LINE
  8
0
 62
     1
 10
91.4633
 20
13.9182
 30
0.0
 11
91.4633
 21
28.0679
 31
0.0
  0
LINE
  8
0
 62
     1
 10
191.463
 20
28.0679
 30
0.0
 11
194.713
 21
28.0679
 31
0.0
  0
LINE
  8
0
 62
     1
 10
194.713
 20
28.0679
 30
0.0
 11
194.713
 21
13.9182
 31
0.0
  0
LINE
  8
0
 62
     1
 10
194.713
 20
13.9182
 30
0.0
 11
191.463
 21
13.9182
 31
0.0
  0
LINE
  8
0
 62
     1
 10
191.463
 20
13.9182
 30
0.0
 11
191.463
 21
28.0679
 31
0.0
  0
LINE
  8
0
 62
     1
 10
17.0505
 20
28.6177
 30
0.0
 11
31.0003
 21
28.6177
 31
0.0
  0
LINE
  8
0
 62
     1
 10
31.0003
 20
28.6177
 30
0.0
 11
31.0003
 21
14.6678
 31
0.0
  0
LINE
  8
0
 62
     1
 10
31.0003
 20
14.6678
 30
0.0
 11
17.0505
 21
14.6678
 31
0.0
  0
LINE
  8
0
 62
     1
 10
17.0505
 20
14.6678
 30
0.0
 11
17.0505
 21
28.6177
 31
0.0
  0
LINE
  8
0
 62
     1
 10
40.863
 20
28.6177
 30
0.0
 11
54.8128
 21
28.6177
 31
0.0
  0
LINE
  8
0
 62
     1
 10
54.8128
 20
28.6177
 30
0.0
 11
54.8128
 21
14.6678
 31
0.0
  0
LINE
  8
0
 62
     1
 10
54.8128
 20
14.6678
 30
0.0
 11
40.863
 21
14.6678
 31
0.0
  0
LINE
  8
0
 62
     1
 10
40.863
 20
14.6678
 30
0.0
 11
40.863
 21
28.6177
 31
0.0
  0
LINE
  8
0
 62
     1
 10
64.6755
 20
28.6177
 30
0.0
 11
78.6253
 21
28.6177
 31
0.0
  0
LINE
  8
0
 62
     1
 10
78.6253
 20
28.6177
 30
0.0
 11
78.6253
 21
14.6678
 31
0.0
  0
LINE
  8
0
 62
     1
 10
78.6253
 20
14.6678
 30
0.0
 11
64.6755
 21
14.6678
 31
0.0
  0
LINE
  8
0
 62
     1
 10
64.6755
 20
14.6678
 30
0.0
 11
64.6755
 21
28.6177
 31
0.0
  0
LINE
  8
0
 62
     1
 10
136.113
 20
28.6177
 30
0.0
 11
150.063
 21
28.6177
 31
0.0
  0
LINE
  8
0
 62
     1
 10
150.063
 20
28.6177
 30
0.0
 11
150.063
 21
14.6678
 31
0.0
  0
LINE
  8
0
 62
     1
 10
150.063
 20
14.6678
 30
0.0
 11
136.113
 21
14.6678
 31
0.0
  0
LINE
  8
0
 62
     1
 10
136.113
 20
14.6678
 30
0.0
 11
136.113
 21
28.6177
 31
0.0
  0
LINE
  8
0
 62
     1
 10
207.55
 20
28.6177
 30
0.0
 11
221.5
 21
28.6177
 31
0.0
  0
LINE
  8
0
 62
     1
 10
221.5
 20
28.6177
 30
0.0
 11
221.5
 21
14.6678
 31
0.0
  0
LINE
  8
0
 62
     1
 10
221.5
 20
14.6678
 30
0.0
 11
207.55
 21
14.6678
 31
0.0
  0
LINE
  8
0
 62
     1
 10
207.55
 20
14.6678
 30
0.0
 11
207.55
 21
28.6177
 31
0.0
  0
LINE
  8
0
 62
     1
 10
231.363
 20
28.6177
 30
0.0
 11
245.313
 21
28.6177
 31
0.0
  0
LINE
  8
0
 62
     1
 10
245.313
 20
28.6177
 30
0.0
 11
245.313
 21
14.6678
 31
0.0
  0
LINE
  8
0
 62
     1
 10
245.313
 20
14.6678
 30
0.0
 11
231.363
 21
14.6678
 31
0.0
  0
LINE
  8
0
 62
     1
 10
231.363
 20
14.6678
 30
0.0
 11
231.363
 21
28.6177
 31
0.0
  0
LINE
  8
0
 62
     1
 10
255.175
 20
28.6177
 30
0.0
 11
269.125
 21
28.6177
 31
0.0
  0
LINE
  8
0
 62
     1
 10
269.125
 20
28.6177
 30
0.0
 11
269.125
 21
14.6678
 31
0.0
  0
LINE
  8
0
 62
     1
 10
269.125
 20
14.6678
 30
0.0
 11
255.175
 21
14.6678
 31
0.0
  0
LINE
  8
0
 62
     1
 10
255.175
 20
14.6678
 30
0.0
 11
255.175
 21
28.6177
 31
0.0
  0
LINE
  8
0
 62
     1
 10
278.988
 20
28.6177
 30
0.0
 11
292.938
 21
28.6177
 31
0.0
  0
LINE
  8
0
 62
     1
 10
292.938
 20
28.6177
 30
0.0
 11
292.938
 21
14.6678
 31
0.0
  0
LINE
  8
0
 62
     1
 10
292.938
 20
14.6678
 30
0.0
 11
278.988
 21
14.6678
 31
0.0
  0
LINE
  8
0
 62
     1
 10
278.988
 20
14.6678
 30
0.0
 11
278.988
 21
28.6177
 31
0.0
  0
LINE
  8
0
 62
     1
 10
305.182
 20
28.6177
 30
0.0
 11
319.132
 21
28.6177
 31
0.0
  0
LINE
  8
0
 62
     1
 10
319.132
 20
28.6177
 30
0.0
 11
319.132
 21
14.6678
 31
0.0
  0
LINE
  8
0
 62
     1
 10
319.132
 20
14.6678
 30
0.0
 11
305.182
 21
14.6678
 31
0.0
  0
LINE
  8
0
 62
     1
 10
305.182
 20
14.6678
 30
0.0
 11
305.182
 21
28.6177
 31
0.0
  0
LINE
  8
0
 62
     1
 10
324.232
 20
28.6177
 30
0.0
 11
338.182
 21
28.6177
 31
0.0
  0
LINE
  8
0
 62
     1
 10
338.182
 20
28.6177
 30
0.0
 11
338.182
 21
14.6678
 31
0.0
  0
LINE
  8
0
 62
     1
 10
338.182
 20
14.6678
 30
0.0
 11
324.232
 21
14.6678
 31
0.0
  0
LINE
  8
0
 62
     1
 10
324.232
 20
14.6678
 30
0.0
 11
324.232
 21
28.6177
 31
0.0
  0
LINE
  8
0
 62
     1
 10
343.282
 20
28.6177
 30
0.0
 11
357.233
 21
28.6177
 31
0.0
  0
LINE
  8
0
 62
     1
 10
357.233
 20
28.6177
 30
0.0
 11
357.233
 21
14.6678
 31
0.0
  0
LINE
  8
0
 62
     1
 10
357.233
 20
14.6678
 30
0.0
 11
343.282
 21
14.6678
 31
0.0
  0
LINE
  8
0
 62
     1
 10
343.282
 20
14.6678
 30
0.0
 11
343.282
 21
28.6177
 31
0.0
  0
LINE
  8
0
 62
     1
 10
20.0256
 20
47.1166
 30
0.0
 11
23.2751
 21
47.1166
 31
0.0
  0
LINE
  8
0
 62
     1
 10
23.2751
 20
47.1166
 30
0.0
 11
23.2751
 21
32.9682
 31
0.0
  0
LINE
  8
0
 62
     1
 10
23.2751
 20
32.9682
 30
0.0
 11
20.0256
 21
32.9682
 31
0.0
  0
LINE
  8
0
 62
     1
 10
20.0256
 20
32.9682
 30
0.0
 11
20.0256
 21
47.1166
 31
0.0
  0
LINE
  8
0
 62
     1
 10
43.8256
 20
47.1166
 30
0.0
 11
47.075
 21
47.1166
 31
0.0
  0
LINE
  8
0
 62
     1
 10
47.075
 20
47.1166
 30
0.0
 11
47.075
 21
32.9682
 31
0.0
  0
LINE
  8
0
 62
     1
 10
47.075
 20
32.9682
 30
0.0
 11
43.8256
 21
32.9682
 31
0.0
  0
LINE
  8
0
 62
     1
 10
43.8256
 20
32.9682
 30
0.0
 11
43.8256
 21
47.1166
 31
0.0
  0
LINE
  8
0
 62
     1
 10
258.151
 20
47.1166
 30
0.0
 11
261.4
 21
47.1166
 31
0.0
  0
LINE
  8
0
 62
     1
 10
261.4
 20
47.1166
 30
0.0
 11
261.4
 21
32.9682
 31
0.0
  0
LINE
  8
0
 62
     1
 10
261.4
 20
32.9682
 30
0.0
 11
258.151
 21
32.9682
 31
0.0
  0
LINE
  8
0
 62
     1
 10
258.151
 20
32.9682
 30
0.0
 11
258.151
 21
47.1166
 31
0.0
  0
LINE
  8
0
 62
     1
 10
281.951
 20
47.1166
 30
0.0
 11
285.2
 21
47.1166
 31
0.0
  0
LINE
  8
0
 62
     1
 10
285.2
 20
47.1166
 30
0.0
 11
285.2
 21
32.9682
 31
0.0
  0
LINE
  8
0
 62
     1
 10
285.2
 20
32.9682
 30
0.0
 11
281.951
 21
32.9682
 31
0.0
  0
LINE
  8
0
 62
     1
 10
281.951
 20
32.9682
 30
0.0
 11
281.951
 21
47.1166
 31
0.0
  0
LINE
  8
0
 62
     1
 10
26.5755
 20
47.6677
 30
0.0
 11
40.5253
 21
47.6677
 31
0.0
  0
LINE
  8
0
 62
     1
 10
40.5253
 20
47.6677
 30
0.0
 11
40.5253
 21
33.7178
 31
0.0
  0
LINE
  8
0
 62
     1
 10
40.5253
 20
33.7178
 30
0.0
 11
26.5755
 21
33.7178
 31
0.0
  0
LINE
  8
0
 62
     1
 10
26.5755
 20
33.7178
 30
0.0
 11
26.5755
 21
47.6677
 31
0.0
  0
LINE
  8
0
 62
     1
 10
57.5317
 20
47.6677
 30
0.0
 11
71.4816
 21
47.6677
 31
0.0
  0
LINE
  8
0
 62
     1
 10
71.4816
 20
47.6677
 30
0.0
 11
71.4816
 21
33.7178
 31
0.0
  0
LINE
  8
0
 62
     1
 10
71.4816
 20
33.7178
 30
0.0
 11
57.5317
 21
33.7178
 31
0.0
  0
LINE
  8
0
 62
     1
 10
57.5317
 20
33.7178
 30
0.0
 11
57.5317
 21
47.6677
 31
0.0
  0
LINE
  8
0
 62
     1
 10
76.5817
 20
47.6677
 30
0.0
 11
90.5316
 21
47.6677
 31
0.0
  0
LINE
  8
0
 62
     1
 10
90.5316
 20
47.6677
 30
0.0
 11
90.5316
 21
33.7178
 31
0.0
  0
LINE
  8
0
 62
     1
 10
90.5316
 20
33.7178
 30
0.0
 11
76.5817
 21
33.7178
 31
0.0
  0
LINE
  8
0
 62
     1
 10
76.5817
 20
33.7178
 30
0.0
 11
76.5817
 21
47.6677
 31
0.0
  0
LINE
  8
0
 62
     1
 10
95.6317
 20
47.6677
 30
0.0
 11
109.582
 21
47.6677
 31
0.0
  0
LINE
  8
0
 62
     1
 10
109.582
 20
47.6677
 30
0.0
 11
109.582
 21
33.7178
 31
0.0
  0
LINE
  8
0
 62
     1
 10
109.582
 20
33.7178
 30
0.0
 11
95.6317
 21
33.7178
 31
0.0
  0
LINE
  8
0
 62
     1
 10
95.6317
 20
33.7178
 30
0.0
 11
95.6317
 21
47.6677
 31
0.0
  0
LINE
  8
0
 62
     1
 10
114.682
 20
47.6677
 30
0.0
 11
128.632
 21
47.6677
 31
0.0
  0
LINE
  8
0
 62
     1
 10
128.632
 20
47.6677
 30
0.0
 11
128.632
 21
33.7178
 31
0.0
  0
LINE
  8
0
 62
     1
 10
128.632
 20
33.7178
 30
0.0
 11
114.682
 21
33.7178
 31
0.0
  0
LINE
  8
0
 62
     1
 10
114.682
 20
33.7178
 30
0.0
 11
114.682
 21
47.6677
 31
0.0
  0
LINE
  8
0
 62
     1
 10
133.732
 20
47.6677
 30
0.0
 11
147.682
 21
47.6677
 31
0.0
  0
LINE
  8
0
 62
     1
 10
147.682
 20
47.6677
 30
0.0
 11
147.682
 21
33.7178
 31
0.0
  0
LINE
  8
0
 62
     1
 10
147.682
 20
33.7178
 30
0.0
 11
133.732
 21
33.7178
 31
0.0
  0
LINE
  8
0
 62
     1
 10
133.732
 20
33.7178
 30
0.0
 11
133.732
 21
47.6677
 31
0.0
  0
LINE
  8
0
 62
     1
 10
152.782
 20
47.6677
 30
0.0
 11
166.732
 21
47.6677
 31
0.0
  0
LINE
  8
0
 62
     1
 10
166.732
 20
47.6677
 30
0.0
 11
166.732
 21
33.7178
 31
0.0
  0
LINE
  8
0
 62
     1
 10
166.732
 20
33.7178
 30
0.0
 11
152.782
 21
33.7178
 31
0.0
  0
LINE
  8
0
 62
     1
 10
152.782
 20
33.7178
 30
0.0
 11
152.782
 21
47.6677
 31
0.0
  0
LINE
  8
0
 62
     1
 10
171.832
 20
47.6677
 30
0.0
 11
185.782
 21
47.6677
 31
0.0
  0
LINE
  8
0
 62
     1
 10
185.782
 20
47.6677
 30
0.0
 11
185.782
 21
33.7178
 31
0.0
  0
LINE
  8
0
 62
     1
 10
185.782
 20
33.7178
 30
0.0
 11
171.832
 21
33.7178
 31
0.0
  0
LINE
  8
0
 62
     1
 10
171.832
 20
33.7178
 30
0.0
 11
171.832
 21
47.6677
 31
0.0
  0
LINE
  8
0
 62
     1
 10
190.882
 20
47.6677
 30
0.0
 11
204.832
 21
47.6677
 31
0.0
  0
LINE
  8
0
 62
     1
 10
204.832
 20
47.6677
 30
0.0
 11
204.832
 21
33.7178
 31
0.0
  0
LINE
  8
0
 62
     1
 10
204.832
 20
33.7178
 30
0.0
 11
190.882
 21
33.7178
 31
0.0
  0
LINE
  8
0
 62
     1
 10
190.882
 20
33.7178
 30
0.0
 11
190.882
 21
47.6677
 31
0.0
  0
LINE
  8
0
 62
     1
 10
209.932
 20
47.6677
 30
0.0
 11
223.882
 21
47.6677
 31
0.0
  0
LINE
  8
0
 62
     1
 10
223.882
 20
47.6677
 30
0.0
 11
223.882
 21
33.7178
 31
0.0
  0
LINE
  8
0
 62
     1
 10
223.882
 20
33.7178
 30
0.0
 11
209.932
 21
33.7178
 31
0.0
  0
LINE
  8
0
 62
     1
 10
209.932
 20
33.7178
 30
0.0
 11
209.932
 21
47.6677
 31
0.0
  0
LINE
  8
0
 62
     1
 10
228.982
 20
47.6677
 30
0.0
 11
242.932
 21
47.6677
 31
0.0
  0
LINE
  8
0
 62
     1
 10
242.932
 20
47.6677
 30
0.0
 11
242.932
 21
33.7178
 31
0.0
  0
LINE
  8
0
 62
     1
 10
242.932
 20
33.7178
 30
0.0
 11
228.982
 21
33.7178
 31
0.0
  0
LINE
  8
0
 62
     1
 10
228.982
 20
33.7178
 30
0.0
 11
228.982
 21
47.6677
 31
0.0
  0
LINE
  8
0
 62
     1
 10
264.7
 20
47.6677
 30
0.0
 11
278.65
 21
47.6677
 31
0.0
  0
LINE
  8
0
 62
     1
 10
278.65
 20
47.6677
 30
0.0
 11
278.65
 21
33.7178
 31
0.0
  0
LINE
  8
0
 62
     1
 10
278.65
 20
33.7178
 30
0.0
 11
264.7
 21
33.7178
 31
0.0
  0
LINE
  8
0
 62
     1
 10
264.7
 20
33.7178
 30
0.0
 11
264.7
 21
47.6677
 31
0.0
  0
LINE
  8
0
 62
     1
 10
305.182
 20
47.6677
 30
0.0
 11
319.132
 21
47.6677
 31
0.0
  0
LINE
  8
0
 62
     1
 10
319.132
 20
47.6677
 30
0.0
 11
319.132
 21
33.7178
 31
0.0
  0
LINE
  8
0
 62
     1
 10
319.132
 20
33.7178
 30
0.0
 11
305.182
 21
33.7178
 31
0.0
  0
LINE
  8
0
 62
     1
 10
305.182
 20
33.7178
 30
0.0
 11
305.182
 21
47.6677
 31
0.0
  0
LINE
  8
0
 62
     1
 10
324.232
 20
47.6677
 30
0.0
 11
338.182
 21
47.6677
 31
0.0
  0
LINE
  8
0
 62
     1
 10
338.182
 20
47.6677
 30
0.0
 11
338.182
 21
33.7178
 31
0.0
  0
LINE
  8
0
 62
     1
 10
338.182
 20
33.7178
 30
0.0
 11
324.232
 21
33.7178
 31
0.0
  0
LINE
  8
0
 62
     1
 10
324.232
 20
33.7178
 30
0.0
 11
324.232
 21
47.6677
 31
0.0
  0
LINE
  8
0
 62
     1
 10
343.282
 20
47.6677
 30
0.0
 11
357.233
 21
47.6677
 31
0.0
  0
LINE
  8
0
 62
     1
 10
357.233
 20
47.6677
 30
0.0
 11
357.233
 21
33.7178
 31
0.0
  0
LINE
  8
0
 62
     1
 10
357.233
 20
33.7178
 30
0.0
 11
343.282
 21
33.7178
 31
0.0
  0
LINE
  8
0
 62
     1
 10
343.282
 20
33.7178
 30
0.0
 11
343.282
 21
47.6677
 31
0.0
  0
LINE
  8
0
 62
     1
 10
262.913
 20
66.1666
 30
0.0
 11
266.163
 21
66.1666
 31
0.0
  0
LINE
  8
0
 62
     1
 10
266.163
 20
66.1666
 30
0.0
 11
266.163
 21
52.0181
 31
0.0
  0
LINE
  8
0
 62
     1
 10
266.163
 20
52.0181
 30
0.0
 11
262.913
 21
52.0181
 31
0.0
  0
LINE
  8
0
 62
     1
 10
262.913
 20
52.0181
 30
0.0
 11
262.913
 21
66.1666
 31
0.0
  0
LINE
  8
0
 62
     1
 10
286.713
 20
66.1666
 30
0.0
 11
289.963
 21
66.1666
 31
0.0
  0
LINE
  8
0
 62
     1
 10
289.963
 20
66.1666
 30
0.0
 11
289.963
 21
52.0181
 31
0.0
  0
LINE
  8
0
 62
     1
 10
289.963
 20
52.0181
 30
0.0
 11
286.713
 21
52.0181
 31
0.0
  0
LINE
  8
0
 62
     1
 10
286.713
 20
52.0181
 30
0.0
 11
286.713
 21
66.1666
 31
0.0
  0
LINE
  8
0
 62
     1
 10
21.813
 20
66.7177
 30
0.0
 11
35.7628
 21
66.7177
 31
0.0
  0
LINE
  8
0
 62
     1
 10
35.7628
 20
66.7177
 30
0.0
 11
35.7628
 21
52.7678
 31
0.0
  0
LINE
  8
0
 62
     1
 10
35.7628
 20
52.7678
 30
0.0
 11
21.813
 21
52.7678
 31
0.0
  0
LINE
  8
0
 62
     1
 10
21.813
 20
52.7678
 30
0.0
 11
21.813
 21
66.7177
 31
0.0
  0
LINE
  8
0
 62
     1
 10
48.0067
 20
66.7177
 30
0.0
 11
61.9566
 21
66.7177
 31
0.0
  0
LINE
  8
0
 62
     1
 10
61.9566
 20
66.7177
 30
0.0
 11
61.9566
 21
52.7678
 31
0.0
  0
LINE
  8
0
 62
     1
 10
61.9566
 20
52.7678
 30
0.0
 11
48.0067
 21
52.7678
 31
0.0
  0
LINE
  8
0
 62
     1
 10
48.0067
 20
52.7678
 30
0.0
 11
48.0067
 21
66.7177
 31
0.0
  0
LINE
  8
0
 62
     1
 10
67.0567
 20
66.7177
 30
0.0
 11
81.0066
 21
66.7177
 31
0.0
  0
LINE
  8
0
 62
     1
 10
81.0066
 20
66.7177
 30
0.0
 11
81.0066
 21
52.7678
 31
0.0
  0
LINE
  8
0
 62
     1
 10
81.0066
 20
52.7678
 30
0.0
 11
67.0567
 21
52.7678
 31
0.0
  0
LINE
  8
0
 62
     1
 10
67.0567
 20
52.7678
 30
0.0
 11
67.0567
 21
66.7177
 31
0.0
  0
LINE
  8
0
 62
     1
 10
86.1067
 20
66.7177
 30
0.0
 11
100.057
 21
66.7177
 31
0.0
  0
LINE
  8
0
 62
     1
 10
100.057
 20
66.7177
 30
0.0
 11
100.057
 21
52.7678
 31
0.0
  0
LINE
  8
0
 62
     1
 10
100.057
 20
52.7678
 30
0.0
 11
86.1067
 21
52.7678
 31
0.0
  0
LINE
  8
0
 62
     1
 10
86.1067
 20
52.7678
 30
0.0
 11
86.1067
 21
66.7177
 31
0.0
  0
LINE
  8
0
 62
     1
 10
105.157
 20
66.7177
 30
0.0
 11
119.107
 21
66.7177
 31
0.0
  0
LINE
  8
0
 62
     1
 10
119.107
 20
66.7177
 30
0.0
 11
119.107
 21
52.7678
 31
0.0
  0
LINE
  8
0
 62
     1
 10
119.107
 20
52.7678
 30
0.0
 11
105.157
 21
52.7678
 31
0.0
  0
LINE
  8
0
 62
     1
 10
105.157
 20
52.7678
 30
0.0
 11
105.157
 21
66.7177
 31
0.0
  0
LINE
  8
0
 62
     1
 10
124.207
 20
66.7177
 30
0.0
 11
138.157
 21
66.7177
 31
0.0
  0
LINE
  8
0
 62
     1
 10
138.157
 20
66.7177
 30
0.0
 11
138.157
 21
52.7678
 31
0.0
  0
LINE
  8
0
 62
     1
 10
138.157
 20
52.7678
 30
0.0
 11
124.207
 21
52.7678
 31
0.0
  0
LINE
  8
0
 62
     1
 10
124.207
 20
52.7678
 30
0.0
 11
124.207
 21
66.7177
 31
0.0
  0
LINE
  8
0
 62
     1
 10
143.257
 20
66.7177
 30
0.0
 11
157.207
 21
66.7177
 31
0.0
  0
LINE
  8
0
 62
     1
 10
157.207
 20
66.7177
 30
0.0
 11
157.207
 21
52.7678
 31
0.0
  0
LINE
  8
0
 62
     1
 10
157.207
 20
52.7678
 30
0.0
 11
143.257
 21
52.7678
 31
0.0
  0
LINE
  8
0
 62
     1
 10
143.257
 20
52.7678
 30
0.0
 11
143.257
 21
66.7177
 31
0.0
  0
LINE
  8
0
 62
     1
 10
162.307
 20
66.7177
 30
0.0
 11
176.257
 21
66.7177
 31
0.0
  0
LINE
  8
0
 62
     1
 10
176.257
 20
66.7177
 30
0.0
 11
176.257
 21
52.7678
 31
0.0
  0
LINE
  8
0
 62
     1
 10
176.257
 20
52.7678
 30
0.0
 11
162.307
 21
52.7678
 31
0.0
  0
LINE
  8
0
 62
     1
 10
162.307
 20
52.7678
 30
0.0
 11
162.307
 21
66.7177
 31
0.0
  0
LINE
  8
0
 62
     1
 10
181.357
 20
66.7177
 30
0.0
 11
195.307
 21
66.7177
 31
0.0
  0
LINE
  8
0
 62
     1
 10
195.307
 20
66.7177
 30
0.0
 11
195.307
 21
52.7678
 31
0.0
  0
LINE
  8
0
 62
     1
 10
195.307
 20
52.7678
 30
0.0
 11
181.357
 21
52.7678
 31
0.0
  0
LINE
  8
0
 62
     1
 10
181.357
 20
52.7678
 30
0.0
 11
181.357
 21
66.7177
 31
0.0
  0
LINE
  8
0
 62
     1
 10
200.407
 20
66.7177
 30
0.0
 11
214.357
 21
66.7177
 31
0.0
  0
LINE
  8
0
 62
     1
 10
214.357
 20
66.7177
 30
0.0
 11
214.357
 21
52.7678
 31
0.0
  0
LINE
  8
0
 62
     1
 10
214.357
 20
52.7678
 30
0.0
 11
200.407
 21
52.7678
 31
0.0
  0
LINE
  8
0
 62
     1
 10
200.407
 20
52.7678
 30
0.0
 11
200.407
 21
66.7177
 31
0.0
  0
LINE
  8
0
 62
     1
 10
219.457
 20
66.7177
 30
0.0
 11
233.407
 21
66.7177
 31
0.0
  0
LINE
  8
0
 62
     1
 10
233.407
 20
66.7177
 30
0.0
 11
233.407
 21
52.7678
 31
0.0
  0
LINE
  8
0
 62
     1
 10
233.407
 20
52.7678
 30
0.0
 11
219.457
 21
52.7678
 31
0.0
  0
LINE
  8
0
 62
     1
 10
219.457
 20
52.7678
 30
0.0
 11
219.457
 21
66.7177
 31
0.0
  0
LINE
  8
0
 62
     1
 10
238.507
 20
66.7177
 30
0.0
 11
252.457
 21
66.7177
 31
0.0
  0
LINE
  8
0
 62
     1
 10
252.457
 20
66.7177
 30
0.0
 11
252.457
 21
52.7678
 31
0.0
  0
LINE
  8
0
 62
     1
 10
252.457
 20
52.7678
 30
0.0
 11
238.507
 21
52.7678
 31
0.0
  0
LINE
  8
0
 62
     1
 10
238.507
 20
52.7678
 30
0.0
 11
238.507
 21
66.7177
 31
0.0
  0
LINE
  8
0
 62
     1
 10
269.463
 20
66.7177
 30
0.0
 11
283.413
 21
66.7177
 31
0.0
  0
LINE
  8
0
 62
     1
 10
283.413
 20
66.7177
 30
0.0
 11
283.413
 21
52.7678
 31
0.0
  0
LINE
  8
0
 62
     1
 10
283.413
 20
52.7678
 30
0.0
 11
269.463
 21
52.7678
 31
0.0
  0
LINE
  8
0
 62
     1
 10
269.463
 20
52.7678
 30
0.0
 11
269.463
 21
66.7177
 31
0.0
  0
LINE
  8
0
 62
     1
 10
305.182
 20
66.7177
 30
0.0
 11
319.132
 21
66.7177
 31
0.0
  0
LINE
  8
0
 62
     1
 10
319.132
 20
66.7177
 30
0.0
 11
319.132
 21
52.7678
 31
0.0
  0
LINE
  8
0
 62
     1
 10
319.132
 20
52.7678
 30
0.0
 11
305.182
 21
52.7678
 31
0.0
  0
LINE
  8
0
 62
     1
 10
305.182
 20
52.7678
 30
0.0
 11
305.182
 21
66.7177
 31
0.0
  0
LINE
  8
0
 62
     1
 10
324.232
 20
66.7177
 30
0.0
 11
338.182
 21
66.7177
 31
0.0
  0
LINE
  8
0
 62
     1
 10
338.182
 20
66.7177
 30
0.0
 11
338.182
 21
52.7678
 31
0.0
  0
LINE
  8
0
 62
     1
 10
338.182
 20
52.7678
 30
0.0
 11
324.232
 21
52.7678
 31
0.0
  0
LINE
  8
0
 62
     1
 10
324.232
 20
52.7678
 30
0.0
 11
324.232
 21
66.7177
 31
0.0
  0
LINE
  8
0
 62
     1
 10
343.282
 20
66.7177
 30
0.0
 11
357.233
 21
66.7177
 31
0.0
  0
LINE
  8
0
 62
     1
 10
357.233
 20
66.7177
 30
0.0
 11
357.233
 21
52.7678
 31
0.0
  0
LINE
  8
0
 62
     1
 10
357.233
 20
52.7678
 30
0.0
 11
343.282
 21
52.7678
 31
0.0
  0
LINE
  8
0
 62
     1
 10
343.282
 20
52.7678
 30
0.0
 11
343.282
 21
66.7177
 31
0.0
  0
LINE
  8
0
 62
     1
 10
19.4317
 20
85.7677
 30
0.0
 11
33.3816
 21
85.7677
 31
0.0
  0
LINE
  8
0
 62
     1
 10
33.3816
 20
85.7677
 30
0.0
 11
33.3816
 21
71.8178
 31
0.0
  0
LINE
  8
0
 62
     1
 10
33.3816
 20
71.8178
 30
0.0
 11
19.4317
 21
71.8178
 31
0.0
  0
LINE
  8
0
 62
     1
 10
19.4317
 20
71.8178
 30
0.0
 11
19.4317
 21
85.7677
 31
0.0
  0
LINE
  8
0
 62
     1
 10
43.2442
 20
85.7677
 30
0.0
 11
57.1941
 21
85.7677
 31
0.0
  0
LINE
  8
0
 62
     1
 10
57.1941
 20
85.7677
 30
0.0
 11
57.1941
 21
71.8178
 31
0.0
  0
LINE
  8
0
 62
     1
 10
57.1941
 20
71.8178
 30
0.0
 11
43.2442
 21
71.8178
 31
0.0
  0
LINE
  8
0
 62
     1
 10
43.2442
 20
71.8178
 30
0.0
 11
43.2442
 21
85.7677
 31
0.0
  0
LINE
  8
0
 62
     1
 10
62.2942
 20
85.7677
 30
0.0
 11
76.2441
 21
85.7677
 31
0.0
  0
LINE
  8
0
 62
     1
 10
76.2441
 20
85.7677
 30
0.0
 11
76.2441
 21
71.8178
 31
0.0
  0
LINE
  8
0
 62
     1
 10
76.2441
 20
71.8178
 30
0.0
 11
62.2942
 21
71.8178
 31
0.0
  0
LINE
  8
0
 62
     1
 10
62.2942
 20
71.8178
 30
0.0
 11
62.2942
 21
85.7677
 31
0.0
  0
LINE
  8
0
 62
     1
 10
81.3442
 20
85.7677
 30
0.0
 11
95.2941
 21
85.7677
 31
0.0
  0
LINE
  8
0
 62
     1
 10
95.2941
 20
85.7677
 30
0.0
 11
95.2941
 21
71.8178
 31
0.0
  0
LINE
  8
0
 62
     1
 10
95.2941
 20
71.8178
 30
0.0
 11
81.3442
 21
71.8178
 31
0.0
  0
LINE
  8
0
 62
     1
 10
81.3442
 20
71.8178
 30
0.0
 11
81.3442
 21
85.7677
 31
0.0
  0
LINE
  8
0
 62
     1
 10
100.394
 20
85.7677
 30
0.0
 11
114.344
 21
85.7677
 31
0.0
  0
LINE
  8
0
 62
     1
 10
114.344
 20
85.7677
 30
0.0
 11
114.344
 21
71.8178
 31
0.0
  0
LINE
  8
0
 62
     1
 10
114.344
 20
71.8178
 30
0.0
 11
100.394
 21
71.8178
 31
0.0
  0
LINE
  8
0
 62
     1
 10
100.394
 20
71.8178
 30
0.0
 11
100.394
 21
85.7677
 31
0.0
  0
LINE
  8
0
 62
     1
 10
119.444
 20
85.7677
 30
0.0
 11
133.394
 21
85.7677
 31
0.0
  0
LINE
  8
0
 62
     1
 10
133.394
 20
85.7677
 30
0.0
 11
133.394
 21
71.8178
 31
0.0
  0
LINE
  8
0
 62
     1
 10
133.394
 20
71.8178
 30
0.0
 11
119.444
 21
71.8178
 31
0.0
  0
LINE
  8
0
 62
     1
 10
119.444
 20
71.8178
 30
0.0
 11
119.444
 21
85.7677
 31
0.0
  0
LINE
  8
0
 62
     1
 10
138.494
 20
85.7677
 30
0.0
 11
152.444
 21
85.7677
 31
0.0
  0
LINE
  8
0
 62
     1
 10
152.444
 20
85.7677
 30
0.0
 11
152.444
 21
71.8178
 31
0.0
  0
LINE
  8
0
 62
     1
 10
152.444
 20
71.8178
 30
0.0
 11
138.494
 21
71.8178
 31
0.0
  0
LINE
  8
0
 62
     1
 10
138.494
 20
71.8178
 30
0.0
 11
138.494
 21
85.7677
 31
0.0
  0
LINE
  8
0
 62
     1
 10
157.544
 20
85.7677
 30
0.0
 11
171.494
 21
85.7677
 31
0.0
  0
LINE
  8
0
 62
     1
 10
171.494
 20
85.7677
 30
0.0
 11
171.494
 21
71.8178
 31
0.0
  0
LINE
  8
0
 62
     1
 10
171.494
 20
71.8178
 30
0.0
 11
157.544
 21
71.8178
 31
0.0
  0
LINE
  8
0
 62
     1
 10
157.544
 20
71.8178
 30
0.0
 11
157.544
 21
85.7677
 31
0.0
  0
LINE
  8
0
 62
     1
 10
176.594
 20
85.7677
 30
0.0
 11
190.544
 21
85.7677
 31
0.0
  0
LINE
  8
0
 62
     1
 10
190.544
 20
85.7677
 30
0.0
 11
190.544
 21
71.8178
 31
0.0
  0
LINE
  8
0
 62
     1
 10
190.544
 20
71.8178
 30
0.0
 11
176.594
 21
71.8178
 31
0.0
  0
LINE
  8
0
 62
     1
 10
176.594
 20
71.8178
 30
0.0
 11
176.594
 21
85.7677
 31
0.0
  0
LINE
  8
0
 62
     1
 10
195.644
 20
85.7677
 30
0.0
 11
209.594
 21
85.7677
 31
0.0
  0
LINE
  8
0
 62
     1
 10
209.594
 20
85.7677
 30
0.0
 11
209.594
 21
71.8178
 31
0.0
  0
LINE
  8
0
 62
     1
 10
209.594
 20
71.8178
 30
0.0
 11
195.644
 21
71.8178
 31
0.0
  0
LINE
  8
0
 62
     1
 10
195.644
 20
71.8178
 30
0.0
 11
195.644
 21
85.7677
 31
0.0
  0
LINE
  8
0
 62
     1
 10
214.694
 20
85.7677
 30
0.0
 11
228.644
 21
85.7677
 31
0.0
  0
LINE
  8
0
 62
     1
 10
228.644
 20
85.7677
 30
0.0
 11
228.644
 21
71.8178
 31
0.0
  0
LINE
  8
0
 62
     1
 10
228.644
 20
71.8178
 30
0.0
 11
214.694
 21
71.8178
 31
0.0
  0
LINE
  8
0
 62
     1
 10
214.694
 20
71.8178
 30
0.0
 11
214.694
 21
85.7677
 31
0.0
  0
LINE
  8
0
 62
     1
 10
233.744
 20
85.7677
 30
0.0
 11
247.694
 21
85.7677
 31
0.0
  0
LINE
  8
0
 62
     1
 10
247.694
 20
85.7677
 30
0.0
 11
247.694
 21
71.8178
 31
0.0
  0
LINE
  8
0
 62
     1
 10
247.694
 20
71.8178
 30
0.0
 11
233.744
 21
71.8178
 31
0.0
  0
LINE
  8
0
 62
     1
 10
233.744
 20
71.8178
 30
0.0
 11
233.744
 21
85.7677
 31
0.0
  0
LINE
  8
0
 62
     1
 10
252.794
 20
85.7677
 30
0.0
 11
266.744
 21
85.7677
 31
0.0
  0
LINE
  8
0
 62
     1
 10
266.744
 20
85.7677
 30
0.0
 11
266.744
 21
71.8178
 31
0.0
  0
LINE
  8
0
 62
     1
 10
266.744
 20
71.8178
 30
0.0
 11
252.794
 21
71.8178
 31
0.0
  0
LINE
  8
0
 62
     1
 10
252.794
 20
71.8178
 30
0.0
 11
252.794
 21
85.7677
 31
0.0
  0
LINE
  8
0
 62
     1
 10
276.607
 20
85.7677
 30
0.0
 11
290.557
 21
85.7677
 31
0.0
  0
LINE
  8
0
 62
     1
 10
290.557
 20
85.7677
 30
0.0
 11
290.557
 21
71.8178
 31
0.0
  0
LINE
  8
0
 62
     1
 10
290.557
 20
71.8178
 30
0.0
 11
276.607
 21
71.8178
 31
0.0
  0
LINE
  8
0
 62
     1
 10
276.607
 20
71.8178
 30
0.0
 11
276.607
 21
85.7677
 31
0.0
  0
LINE
  8
0
 62
     1
 10
305.182
 20
85.7677
 30
0.0
 11
319.132
 21
85.7677
 31
0.0
  0
LINE
  8
0
 62
     1
 10
319.132
 20
85.7677
 30
0.0
 11
319.132
 21
71.8178
 31
0.0
  0
LINE
  8
0
 62
     1
 10
319.132
 20
71.8178
 30
0.0
 11
305.182
 21
71.8178
 31
0.0
  0
LINE
  8
0
 62
     1
 10
305.182
 20
71.8178
 30
0.0
 11
305.182
 21
85.7677
 31
0.0
  0
LINE
  8
0
 62
     1
 10
324.232
 20
85.7677
 30
0.0
 11
338.182
 21
85.7677
 31
0.0
  0
LINE
  8
0
 62
     1
 10
338.182
 20
85.7677
 30
0.0
 11
338.182
 21
71.8178
 31
0.0
  0
LINE
  8
0
 62
     1
 10
338.182
 20
71.8178
 30
0.0
 11
324.232
 21
71.8178
 31
0.0
  0
LINE
  8
0
 62
     1
 10
324.232
 20
71.8178
 30
0.0
 11
324.232
 21
85.7677
 31
0.0
  0
LINE
  8
0
 62
     1
 10
343.282
 20
85.7677
 30
0.0
 11
357.233
 21
85.7677
 31
0.0
  0
LINE
  8
0
 62
     1
 10
357.233
 20
85.7677
 30
0.0
 11
357.233
 21
71.8178
 31
0.0
  0
LINE
  8
0
 62
     1
 10
357.233
 20
71.8178
 30
0.0
 11
343.282
 21
71.8178
 31
0.0
  0
LINE
  8
0
 62
     1
 10
343.282
 20
71.8178
 30
0.0
 11
343.282
 21
85.7677
 31
0.0
  0
LINE
  8
0
 62
     1
 10
265.295
 20
104.267
 30
0.0
 11
268.545
 21
104.267
 31
0.0
  0
LINE
  8
0
 62
     1
 10
268.545
 20
104.267
 30
0.0
 11
268.545
 21
90.1167
 31
0.0
  0
LINE
  8
0
 62
     1
 10
268.545
 20
90.1167
 30
0.0
 11
265.295
 21
90.1167
 31
0.0
  0
LINE
  8
0
 62
     1
 10
265.295
 20
90.1167
 30
0.0
 11
265.295
 21
104.267
 31
0.0
  0
LINE
  8
0
 62
     1
 10
289.094
 20
104.267
 30
0.0
 11
292.345
 21
104.267
 31
0.0
  0
LINE
  8
0
 62
     1
 10
292.345
 20
104.267
 30
0.0
 11
292.345
 21
90.1167
 31
0.0
  0
LINE
  8
0
 62
     1
 10
292.345
 20
90.1167
 30
0.0
 11
289.094
 21
90.1167
 31
0.0
  0
LINE
  8
0
 62
     1
 10
289.094
 20
90.1167
 30
0.0
 11
289.094
 21
104.267
 31
0.0
  0
LINE
  8
0
 62
     1
 10
14.6692
 20
104.818
 30
0.0
 11
28.6191
 21
104.818
 31
0.0
  0
LINE
  8
0
 62
     1
 10
28.6191
 20
104.818
 30
0.0
 11
28.6191
 21
90.8678
 31
0.0
  0
LINE
  8
0
 62
     1
 10
28.6191
 20
90.8678
 30
0.0
 11
14.6692
 21
90.8678
 31
0.0
  0
LINE
  8
0
 62
     1
 10
14.6692
 20
90.8678
 30
0.0
 11
14.6692
 21
104.818
 31
0.0
  0
LINE
  8
0
 62
     1
 10
33.7192
 20
104.818
 30
0.0
 11
47.6691
 21
104.818
 31
0.0
  0
LINE
  8
0
 62
     1
 10
47.6691
 20
104.818
 30
0.0
 11
47.6691
 21
90.8678
 31
0.0
  0
LINE
  8
0
 62
     1
 10
47.6691
 20
90.8678
 30
0.0
 11
33.7192
 21
90.8678
 31
0.0
  0
LINE
  8
0
 62
     1
 10
33.7192
 20
90.8678
 30
0.0
 11
33.7192
 21
104.818
 31
0.0
  0
LINE
  8
0
 62
     1
 10
52.7692
 20
104.818
 30
0.0
 11
66.7191
 21
104.818
 31
0.0
  0
LINE
  8
0
 62
     1
 10
66.7191
 20
104.818
 30
0.0
 11
66.7191
 21
90.8678
 31
0.0
  0
LINE
  8
0
 62
     1
 10
66.7191
 20
90.8678
 30
0.0
 11
52.7692
 21
90.8678
 31
0.0
  0
LINE
  8
0
 62
     1
 10
52.7692
 20
90.8678
 30
0.0
 11
52.7692
 21
104.818
 31
0.0
  0
LINE
  8
0
 62
     1
 10
71.8192
 20
104.818
 30
0.0
 11
85.7691
 21
104.818
 31
0.0
  0
LINE
  8
0
 62
     1
 10
85.7691
 20
104.818
 30
0.0
 11
85.7691
 21
90.8678
 31
0.0
  0
LINE
  8
0
 62
     1
 10
85.7691
 20
90.8678
 30
0.0
 11
71.8192
 21
90.8678
 31
0.0
  0
LINE
  8
0
 62
     1
 10
71.8192
 20
90.8678
 30
0.0
 11
71.8192
 21
104.818
 31
0.0
  0
LINE
  8
0
 62
     1
 10
90.8692
 20
104.818
 30
0.0
 11
104.819
 21
104.818
 31
0.0
  0
LINE
  8
0
 62
     1
 10
104.819
 20
104.818
 30
0.0
 11
104.819
 21
90.8678
 31
0.0
  0
LINE
  8
0
 62
     1
 10
104.819
 20
90.8678
 30
0.0
 11
90.8692
 21
90.8678
 31
0.0
  0
LINE
  8
0
 62
     1
 10
90.8692
 20
90.8678
 30
0.0
 11
90.8692
 21
104.818
 31
0.0
  0
LINE
  8
0
 62
     1
 10
109.919
 20
104.818
 30
0.0
 11
123.869
 21
104.818
 31
0.0
  0
LINE
  8
0
 62
     1
 10
123.869
 20
104.818
 30
0.0
 11
123.869
 21
90.8678
 31
0.0
  0
LINE
  8
0
 62
     1
 10
123.869
 20
90.8678
 30
0.0
 11
109.919
 21
90.8678
 31
0.0
  0
LINE
  8
0
 62
     1
 10
109.919
 20
90.8678
 30
0.0
 11
109.919
 21
104.818
 31
0.0
  0
LINE
  8
0
 62
     1
 10
128.969
 20
104.818
 30
0.0
 11
142.919
 21
104.818
 31
0.0
  0
LINE
  8
0
 62
     1
 10
142.919
 20
104.818
 30
0.0
 11
142.919
 21
90.8678
 31
0.0
  0
LINE
  8
0
 62
     1
 10
142.919
 20
90.8678
 30
0.0
 11
128.969
 21
90.8678
 31
0.0
  0
LINE
  8
0
 62
     1
 10
128.969
 20
90.8678
 30
0.0
 11
128.969
 21
104.818
 31
0.0
  0
LINE
  8
0
 62
     1
 10
148.019
 20
104.818
 30
0.0
 11
161.969
 21
104.818
 31
0.0
  0
LINE
  8
0
 62
     1
 10
161.969
 20
104.818
 30
0.0
 11
161.969
 21
90.8678
 31
0.0
  0
LINE
  8
0
 62
     1
 10
161.969
 20
90.8678
 30
0.0
 11
148.019
 21
90.8678
 31
0.0
  0
LINE
  8
0
 62
     1
 10
148.019
 20
90.8678
 30
0.0
 11
148.019
 21
104.818
 31
0.0
  0
LINE
  8
0
 62
     1
 10
167.069
 20
104.818
 30
0.0
 11
181.019
 21
104.818
 31
0.0
  0
LINE
  8
0
 62
     1
 10
181.019
 20
104.818
 30
0.0
 11
181.019
 21
90.8678
 31
0.0
  0
LINE
  8
0
 62
     1
 10
181.019
 20
90.8678
 30
0.0
 11
167.069
 21
90.8678
 31
0.0
  0
LINE
  8
0
 62
     1
 10
167.069
 20
90.8678
 30
0.0
 11
167.069
 21
104.818
 31
0.0
  0
LINE
  8
0
 62
     1
 10
186.119
 20
104.818
 30
0.0
 11
200.069
 21
104.818
 31
0.0
  0
LINE
  8
0
 62
     1
 10
200.069
 20
104.818
 30
0.0
 11
200.069
 21
90.8678
 31
0.0
  0
LINE
  8
0
 62
     1
 10
200.069
 20
90.8678
 30
0.0
 11
186.119
 21
90.8678
 31
0.0
  0
LINE
  8
0
 62
     1
 10
186.119
 20
90.8678
 30
0.0
 11
186.119
 21
104.818
 31
0.0
  0
LINE
  8
0
 62
     1
 10
205.169
 20
104.818
 30
0.0
 11
219.119
 21
104.818
 31
0.0
  0
LINE
  8
0
 62
     1
 10
219.119
 20
104.818
 30
0.0
 11
219.119
 21
90.8678
 31
0.0
  0
LINE
  8
0
 62
     1
 10
219.119
 20
90.8678
 30
0.0
 11
205.169
 21
90.8678
 31
0.0
  0
LINE
  8
0
 62
     1
 10
205.169
 20
90.8678
 30
0.0
 11
205.169
 21
104.818
 31
0.0
  0
LINE
  8
0
 62
     1
 10
224.219
 20
104.818
 30
0.0
 11
238.169
 21
104.818
 31
0.0
  0
LINE
  8
0
 62
     1
 10
238.169
 20
104.818
 30
0.0
 11
238.169
 21
90.8678
 31
0.0
  0
LINE
  8
0
 62
     1
 10
238.169
 20
90.8678
 30
0.0
 11
224.219
 21
90.8678
 31
0.0
  0
LINE
  8
0
 62
     1
 10
224.219
 20
90.8678
 30
0.0
 11
224.219
 21
104.818
 31
0.0
  0
LINE
  8
0
 62
     1
 10
243.269
 20
104.818
 30
0.0
 11
257.219
 21
104.818
 31
0.0
  0
LINE
  8
0
 62
     1
 10
257.219
 20
104.818
 30
0.0
 11
257.219
 21
90.8678
 31
0.0
  0
LINE
  8
0
 62
     1
 10
257.219
 20
90.8678
 30
0.0
 11
243.269
 21
90.8678
 31
0.0
  0
LINE
  8
0
 62
     1
 10
243.269
 20
90.8678
 30
0.0
 11
243.269
 21
104.818
 31
0.0
  0
LINE
  8
0
 62
     1
 10
271.844
 20
104.818
 30
0.0
 11
285.794
 21
104.818
 31
0.0
  0
LINE
  8
0
 62
     1
 10
285.794
 20
104.818
 30
0.0
 11
285.794
 21
90.8678
 31
0.0
  0
LINE
  8
0
 62
     1
 10
285.794
 20
90.8678
 30
0.0
 11
271.844
 21
90.8678
 31
0.0
  0
LINE
  8
0
 62
     1
 10
271.844
 20
90.8678
 30
0.0
 11
271.844
 21
104.818
 31
0.0
  0
LINE
  8
0
 62
     1
 10
305.182
 20
104.818
 30
0.0
 11
319.132
 21
104.818
 31
0.0
  0
LINE
  8
0
 62
     1
 10
319.132
 20
104.818
 30
0.0
 11
319.132
 21
90.8678
 31
0.0
  0
LINE
  8
0
 62
     1
 10
319.132
 20
90.8678
 30
0.0
 11
305.182
 21
90.8678
 31
0.0
  0
LINE
  8
0
 62
     1
 10
305.182
 20
90.8678
 30
0.0
 11
305.182
 21
104.818
 31
0.0
  0
LINE
  8
0
 62
     1
 10
324.232
 20
104.818
 30
0.0
 11
338.182
 21
104.818
 31
0.0
  0
LINE
  8
0
 62
     1
 10
338.182
 20
104.818
 30
0.0
 11
338.182
 21
90.8678
 31
0.0
  0
LINE
  8
0
 62
     1
 10
338.182
 20
90.8678
 30
0.0
 11
324.232
 21
90.8678
 31
0.0
  0
LINE
  8
0
 62
     1
 10
324.232
 20
90.8678
 30
0.0
 11
324.232
 21
104.818
 31
0.0
  0
LINE
  8
0
 62
     1
 10
343.282
 20
104.818
 30
0.0
 11
357.233
 21
104.818
 31
0.0
  0
LINE
  8
0
 62
     1
 10
357.233
 20
104.818
 30
0.0
 11
357.233
 21
90.8678
 31
0.0
  0
LINE
  8
0
 62
     1
 10
357.233
 20
90.8678
 30
0.0
 11
343.282
 21
90.8678
 31
0.0
  0
LINE
  8
0
 62
     1
 10
343.282
 20
90.8678
 30
0.0
 11
343.282
 21
104.818
 31
0.0
  0
LINE
  8
0
 62
     1
 10
14.6692
 20
133.393
 30
0.0
 11
28.6191
 21
133.393
 31
0.0
  0
LINE
  8
0
 62
     1
 10
28.6191
 20
133.393
 30
0.0
 11
28.6191
 21
119.443
 31
0.0
  0
LINE
  8
0
 62
     1
 10
28.6191
 20
119.443
 30
0.0
 11
14.6692
 21
119.443
 31
0.0
  0
LINE
  8
0
 62
     1
 10
14.6692
 20
119.443
 30
0.0
 11
14.6692
 21
133.393
 31
0.0
  0
LINE
  8
0
 62
     1
 10
52.7692
 20
133.393
 30
0.0
 11
66.7191
 21
133.393
 31
0.0
  0
LINE
  8
0
 62
     1
 10
66.7191
 20
133.393
 30
0.0
 11
66.7191
 21
119.443
 31
0.0
  0
LINE
  8
0
 62
     1
 10
66.7191
 20
119.443
 30
0.0
 11
52.7692
 21
119.443
 31
0.0
  0
LINE
  8
0
 62
     1
 10
52.7692
 20
119.443
 30
0.0
 11
52.7692
 21
133.393
 31
0.0
  0
LINE
  8
0
 62
     1
 10
71.8192
 20
133.393
 30
0.0
 11
85.7691
 21
133.393
 31
0.0
  0
LINE
  8
0
 62
     1
 10
85.7691
 20
133.393
 30
0.0
 11
85.7691
 21
119.443
 31
0.0
  0
LINE
  8
0
 62
     1
 10
85.7691
 20
119.443
 30
0.0
 11
71.8192
 21
119.443
 31
0.0
  0
LINE
  8
0
 62
     1
 10
71.8192
 20
119.443
 30
0.0
 11
71.8192
 21
133.393
 31
0.0
  0
LINE
  8
0
 62
     1
 10
90.8692
 20
133.393
 30
0.0
 11
104.819
 21
133.393
 31
0.0
  0
LINE
  8
0
 62
     1
 10
104.819
 20
133.393
 30
0.0
 11
104.819
 21
119.443
 31
0.0
  0
LINE
  8
0
 62
     1
 10
104.819
 20
119.443
 30
0.0
 11
90.8692
 21
119.443
 31
0.0
  0
LINE
  8
0
 62
     1
 10
90.8692
 20
119.443
 30
0.0
 11
90.8692
 21
133.393
 31
0.0
  0
LINE
  8
0
 62
     1
 10
109.919
 20
133.393
 30
0.0
 11
123.869
 21
133.393
 31
0.0
  0
LINE
  8
0
 62
     1
 10
123.869
 20
133.393
 30
0.0
 11
123.869
 21
119.443
 31
0.0
  0
LINE
  8
0
 62
     1
 10
123.869
 20
119.443
 30
0.0
 11
109.919
 21
119.443
 31
0.0
  0
LINE
  8
0
 62
     1
 10
109.919
 20
119.443
 30
0.0
 11
109.919
 21
133.393
 31
0.0
  0
LINE
  8
0
 62
     1
 10
138.494
 20
133.393
 30
0.0
 11
152.444
 21
133.393
 31
0.0
  0
LINE
  8
0
 62
     1
 10
152.444
 20
133.393
 30
0.0
 11
152.444
 21
119.443
 31
0.0
  0
LINE
  8
0
 62
     1
 10
152.444
 20
119.443
 30
0.0
 11
138.494
 21
119.443
 31
0.0
  0
LINE
  8
0
 62
     1
 10
138.494
 20
119.443
 30
0.0
 11
138.494
 21
133.393
 31
0.0
  0
LINE
  8
0
 62
     1
 10
157.544
 20
133.393
 30
0.0
 11
171.494
 21
133.393
 31
0.0
  0
LINE
  8
0
 62
     1
 10
171.494
 20
133.393
 30
0.0
 11
171.494
 21
119.443
 31
0.0
  0
LINE
  8
0
 62
     1
 10
171.494
 20
119.443
 30
0.0
 11
157.544
 21
119.443
 31
0.0
  0
LINE
  8
0
 62
     1
 10
157.544
 20
119.443
 30
0.0
 11
157.544
 21
133.393
 31
0.0
  0
LINE
  8
0
 62
     1
 10
176.594
 20
133.393
 30
0.0
 11
190.544
 21
133.393
 31
0.0
  0
LINE
  8
0
 62
     1
 10
190.544
 20
133.393
 30
0.0
 11
190.544
 21
119.443
 31
0.0
  0
LINE
  8
0
 62
     1
 10
190.544
 20
119.443
 30
0.0
 11
176.594
 21
119.443
 31
0.0
  0
LINE
  8
0
 62
     1
 10
176.594
 20
119.443
 30
0.0
 11
176.594
 21
133.393
 31
0.0
  0
LINE
  8
0
 62
     1
 10
195.644
 20
133.393
 30
0.0
 11
209.594
 21
133.393
 31
0.0
  0
LINE
  8
0
 62
     1
 10
209.594
 20
133.393
 30
0.0
 11
209.594
 21
119.443
 31
0.0
  0
LINE
  8
0
 62
     1
 10
209.594
 20
119.443
 30
0.0
 11
195.644
 21
119.443
 31
0.0
  0
LINE
  8
0
 62
     1
 10
195.644
 20
119.443
 30
0.0
 11
195.644
 21
133.393
 31
0.0
  0
LINE
  8
0
 62
     1
 10
224.219
 20
133.393
 30
0.0
 11
238.169
 21
133.393
 31
0.0
  0
LINE
  8
0
 62
     1
 10
238.169
 20
133.393
 30
0.0
 11
238.169
 21
119.443
 31
0.0
  0
LINE
  8
0
 62
     1
 10
238.169
 20
119.443
 30
0.0
 11
224.219
 21
119.443
 31
0.0
  0
LINE
  8
0
 62
     1
 10
224.219
 20
119.443
 30
0.0
 11
224.219
 21
133.393
 31
0.0
  0
LINE
  8
0
 62
     1
 10
243.269
 20
133.393
 30
0.0
 11
257.219
 21
133.393
 31
0.0
  0
LINE
  8
0
 62
     1
 10
257.219
 20
133.393
 30
0.0
 11
257.219
 21
119.443
 31
0.0
  0
LINE
  8
0
 62
     1
 10
257.219
 20
119.443
 30
0.0
 11
243.269
 21
119.443
 31
0.0
  0
LINE
  8
0
 62
     1
 10
243.269
 20
119.443
 30
0.0
 11
243.269
 21
133.393
 31
0.0
  0
LINE
  8
0
 62
     1
 10
262.319
 20
133.393
 30
0.0
 11
276.269
 21
133.393
 31
0.0
  0
LINE
  8
0
 62
     1
 10
276.269
 20
133.393
 30
0.0
 11
276.269
 21
119.443
 31
0.0
  0
LINE
  8
0
 62
     1
 10
276.269
 20
119.443
 30
0.0
 11
262.319
 21
119.443
 31
0.0
  0
LINE
  8
0
 62
     1
 10
262.319
 20
119.443
 30
0.0
 11
262.319
 21
133.393
 31
0.0
  0
LINE
  8
0
 62
     1
 10
281.369
 20
133.393
 30
0.0
 11
295.319
 21
133.393
 31
0.0
  0
LINE
  8
0
 62
     1
 10
295.319
 20
133.393
 30
0.0
 11
295.319
 21
119.443
 31
0.0
  0
LINE
  8
0
 62
     1
 10
295.319
 20
119.443
 30
0.0
 11
281.369
 21
119.443
 31
0.0
  0
LINE
  8
0
 62
     1
 10
281.369
 20
119.443
 30
0.0
 11
281.369
 21
133.393
 31
0.0
  0
LINE
  8
0
 62
     1
 10
305.182
 20
133.393
 30
0.0
 11
319.132
 21
133.393
 31
0.0
  0
LINE
  8
0
 62
     1
 10
319.132
 20
133.393
 30
0.0
 11
319.132
 21
119.443
 31
0.0
  0
LINE
  8
0
 62
     1
 10
319.132
 20
119.443
 30
0.0
 11
305.182
 21
119.443
 31
0.0
  0
LINE
  8
0
 62
     1
 10
305.182
 20
119.443
 30
0.0
 11
305.182
 21
133.393
 31
0.0
  0
LINE
  8
0
 62
     1
 10
324.232
 20
133.393
 30
0.0
 11
338.182
 21
133.393
 31
0.0
  0
LINE
  8
0
 62
     1
 10
338.182
 20
133.393
 30
0.0
 11
338.182
 21
119.443
 31
0.0
  0
LINE
  8
0
 62
     1
 10
338.182
 20
119.443
 30
0.0
 11
324.232
 21
119.443
 31
0.0
  0
LINE
  8
0
 62
     1
 10
324.232
 20
119.443
 30
0.0
 11
324.232
 21
133.393
 31
0.0
  0
LINE
  8
0
 62
     1
 10
343.282
 20
133.393
 30
0.0
 11
357.233
 21
133.393
 31
0.0
  0
LINE
  8
0
 62
     1
 10
357.233
 20
133.393
 30
0.0
 11
357.233
 21
119.443
 31
0.0
  0
LINE
  8
0
 62
     1
 10
357.233
 20
119.443
 30
0.0
 11
343.282
 21
119.443
 31
0.0
  0
LINE
  8
0
 62
     1
 10
343.282
 20
119.443
 30
0.0
 11
343.282
 21
133.393
 31
0.0
  0
LINE
  8
0
 62
     1
 10
125.552
 20
143.345
 30
0.0
 11
125.138
 21
143.137
 31
0.0
  0
LINE
  8
0
 62
     1
 10
125.138
 20
143.137
 30
0.0
 11
124.815
 21
142.809
 31
0.0
  0
LINE
  8
0
 62
     1
 10
124.815
 20
142.809
 30
0.0
 11
124.604
 21
142.398
 31
0.0
  0
LINE
  8
0
 62
     1
 10
124.604
 20
142.398
 30
0.0
 11
124.532
 21
141.942
 31
0.0
  0
LINE
  8
0
 62
     1
 10
124.532
 20
141.942
 30
0.0
 11
124.604
 21
141.487
 31
0.0
  0
LINE
  8
0
 62
     1
 10
124.604
 20
141.487
 30
0.0
 11
124.815
 21
141.077
 31
0.0
  0
LINE
  8
0
 62
     1
 10
124.815
 20
141.077
 30
0.0
 11
125.138
 21
140.75
 31
0.0
  0
LINE
  8
0
 62
     1
 10
125.138
 20
140.75
 30
0.0
 11
125.552
 21
140.541
 31
0.0
  0
LINE
  8
0
 62
     1
 10
125.552
 20
140.541
 30
0.0
 11
126.007
 21
140.468
 31
0.0
  0
LINE
  8
0
 62
     1
 10
126.007
 20
140.468
 30
0.0
 11
126.463
 21
140.541
 31
0.0
  0
LINE
  8
0
 62
     1
 10
126.463
 20
140.541
 30
0.0
 11
126.873
 21
140.75
 31
0.0
  0
LINE
  8
0
 62
     1
 10
126.873
 20
140.75
 30
0.0
 11
127.201
 21
141.077
 31
0.0
  0
LINE
  8
0
 62
     1
 10
127.201
 20
141.077
 30
0.0
 11
127.409
 21
141.487
 31
0.0
  0
LINE
  8
0
 62
     1
 10
127.409
 20
141.487
 30
0.0
 11
127.482
 21
141.942
 31
0.0
  0
LINE
  8
0
 62
     1
 10
127.482
 20
141.942
 30
0.0
 11
127.409
 21
142.398
 31
0.0
  0
LINE
  8
0
 62
     1
 10
127.409
 20
142.398
 30
0.0
 11
127.201
 21
142.809
 31
0.0
  0
LINE
  8
0
 62
     1
 10
127.201
 20
142.809
 30
0.0
 11
126.873
 21
143.137
 31
0.0
  0
LINE
  8
0
 62
     1
 10
126.873
 20
143.137
 30
0.0
 11
126.463
 21
143.345
 31
0.0
  0
LINE
  8
0
 62
     1
 10
126.463
 20
143.345
 30
0.0
 11
126.007
 21
143.417
 31
0.0
  0
LINE
  8
0
 62
     1
 10
126.007
 20
143.417
 30
0.0
 11
125.552
 21
143.345
 31
0.0
  0
LINE
  8
0
 62
     1
 10
245.438
 20
143.345
 30
0.0
 11
245.027
 21
143.137
 31
0.0
  0
LINE
  8
0
 62
     1
 10
245.027
 20
143.137
 30
0.0
 11
244.703
 21
142.809
 31
0.0
  0
LINE
  8
0
 62
     1
 10
244.703
 20
142.809
 30
0.0
 11
244.492
 21
142.398
 31
0.0
  0
LINE
  8
0
 62
     1
 10
244.492
 20
142.398
 30
0.0
 11
244.42
 21
141.942
 31
0.0
  0
LINE
  8
0
 62
     1
 10
244.42
 20
141.942
 30
0.0
 11
244.492
 21
141.487
 31
0.0
  0
LINE
  8
0
 62
     1
 10
244.492
 20
141.487
 30
0.0
 11
244.703
 21
141.077
 31
0.0
  0
LINE
  8
0
 62
     1
 10
244.703
 20
141.077
 30
0.0
 11
245.027
 21
140.75
 31
0.0
  0
LINE
  8
0
 62
     1
 10
245.027
 20
140.75
 30
0.0
 11
245.438
 21
140.541
 31
0.0
  0
LINE
  8
0
 62
     1
 10
245.438
 20
140.541
 30
0.0
 11
245.894
 21
140.468
 31
0.0
  0
LINE
  8
0
 62
     1
 10
245.894
 20
140.468
 30
0.0
 11
246.35
 21
140.541
 31
0.0
  0
LINE
  8
0
 62
     1
 10
246.35
 20
140.541
 30
0.0
 11
246.761
 21
140.75
 31
0.0
  0
LINE
  8
0
 62
     1
 10
246.761
 20
140.75
 30
0.0
 11
247.088
 21
141.077
 31
0.0
  0
LINE
  8
0
 62
     1
 10
247.088
 20
141.077
 30
0.0
 11
247.297
 21
141.487
 31
0.0
  0
LINE
  8
0
 62
     1
 10
247.297
 20
141.487
 30
0.0
 11
247.37
 21
141.942
 31
0.0
  0
LINE
  8
0
 62
     1
 10
247.37
 20
141.942
 30
0.0
 11
247.297
 21
142.398
 31
0.0
  0
LINE
  8
0
 62
     1
 10
247.297
 20
142.398
 30
0.0
 11
247.088
 21
142.809
 31
0.0
  0
LINE
  8
0
 62
     1
 10
247.088
 20
142.809
 30
0.0
 11
246.761
 21
143.137
 31
0.0
  0
LINE
  8
0
 62
     1
 10
246.761
 20
143.137
 30
0.0
 11
246.35
 21
143.345
 31
0.0
  0
LINE
  8
0
 62
     1
 10
246.35
 20
143.345
 30
0.0
 11
245.894
 21
143.417
 31
0.0
  0
LINE
  8
0
 62
     1
 10
245.894
 20
143.417
 30
0.0
 11
245.438
 21
143.345
 31
0.0
  0
LINE
  8
0
 62
     1
 10
365.326
 20
143.345
 30
0.0
 11
364.917
 21
143.137
 31
0.0
  0
LINE
  8
0
 62
     1
 10
364.917
 20
143.137
 30
0.0
 11
364.589
 21
142.809
 31
0.0
  0
LINE
  8
0
 62
     1
 10
364.589
 20
142.809
 30
0.0
 11
364.381
 21
142.398
 31
0.0
  0
LINE
  8
0
 62
     1
 10
364.381
 20
142.398
 30
0.0
 11
364.307
 21
141.942
 31
0.0
  0
LINE
  8
0
 62
     1
 10
364.307
 20
141.942
 30
0.0
 11
364.381
 21
141.487
 31
0.0
  0
LINE
  8
0
 62
     1
 10
364.381
 20
141.487
 30
0.0
 11
364.589
 21
141.077
 31
0.0
  0
LINE
  8
0
 62
     1
 10
364.589
 20
141.077
 30
0.0
 11
364.917
 21
140.75
 31
0.0
  0
LINE
  8
0
 62
     1
 10
364.917
 20
140.75
 30
0.0
 11
365.326
 21
140.541
 31
0.0
  0
LINE
  8
0
 62
     1
 10
365.326
 20
140.541
 30
0.0
 11
365.781
 21
140.468
 31
0.0
  0
LINE
  8
0
 62
     1
 10
365.781
 20
140.468
 30
0.0
 11
366.24
 21
140.541
 31
0.0
  0
LINE
  8
0
 62
     1
 10
366.24
 20
140.541
 30
0.0
 11
366.649
 21
140.75
 31
0.0
  0
LINE
  8
0
 62
     1
 10
366.649
 20
140.75
 30
0.0
 11
366.977
 21
141.077
 31
0.0
  0
LINE
  8
0
 62
     1
 10
366.977
 20
141.077
 30
0.0
 11
367.185
 21
141.487
 31
0.0
  0
LINE
  8
0
 62
     1
 10
367.185
 20
141.487
 30
0.0
 11
367.259
 21
141.942
 31
0.0
  0
LINE
  8
0
 62
     1
 10
367.259
 20
141.942
 30
0.0
 11
367.185
 21
142.398
 31
0.0
  0
LINE
  8
0
 62
     1
 10
367.185
 20
142.398
 30
0.0
 11
366.977
 21
142.809
 31
0.0
  0
LINE
  8
0
 62
     1
 10
366.977
 20
142.809
 30
0.0
 11
366.649
 21
143.137
 31
0.0
  0
LINE
  8
0
 62
     1
 10
366.649
 20
143.137
 30
0.0
 11
366.24
 21
143.345
 31
0.0
  0
LINE
  8
0
 62
     1
 10
366.24
 20
143.345
 30
0.0
 11
365.781
 21
143.417
 31
0.0
  0
LINE
  8
0
 62
     1
 10
365.781
 20
143.417
 30
0.0
 11
365.326
 21
143.345
 31
0.0
  0
LINE
  8
0
 62
     1
 10
5.66374
 20
143.345
 30
0.0
 11
5.25307
 21
143.137
 31
0.0
  0
LINE
  8
0
 62
     1
 10
5.25307
 20
143.137
 30
0.0
 11
4.9251
 21
142.809
 31
0.0
  0
LINE
  8
0
 62
     1
 10
4.9251
 20
142.809
 30
0.0
 11
4.71703
 21
142.398
 31
0.0
  0
LINE
  8
0
 62
     1
 10
4.71703
 20
142.398
 30
0.0
 11
4.644
 21
141.942
 31
0.0
  0
LINE
  8
0
 62
     1
 10
4.644
 20
141.942
 30
0.0
 11
4.71703
 21
141.487
 31
0.0
  0
LINE
  8
0
 62
     1
 10
4.71703
 20
141.487
 30
0.0
 11
4.9251
 21
141.077
 31
0.0
  0
LINE
  8
0
 62
     1
 10
4.9251
 20
141.077
 30
0.0
 11
5.25307
 21
140.75
 31
0.0
  0
LINE
  8
0
 62
     1
 10
5.25307
 20
140.75
 30
0.0
 11
5.66374
 21
140.541
 31
0.0
  0
LINE
  8
0
 62
     1
 10
5.66374
 20
140.541
 30
0.0
 11
6.11851
 21
140.468
 31
0.0
  0
LINE
  8
0
 62
     1
 10
6.11851
 20
140.468
 30
0.0
 11
6.57461
 21
140.541
 31
0.0
  0
LINE
  8
0
 62
     1
 10
6.57461
 20
140.541
 30
0.0
 11
6.98528
 21
140.75
 31
0.0
  0
LINE
  8
0
 62
     1
 10
6.98528
 20
140.75
 30
0.0
 11
7.31326
 21
141.077
 31
0.0
  0
LINE
  8
0
 62
     1
 10
7.31326
 20
141.077
 30
0.0
 11
7.52133
 21
141.487
 31
0.0
  0
LINE
  8
0
 62
     1
 10
7.52133
 20
141.487
 30
0.0
 11
7.59435
 21
141.942
 31
0.0
  0
LINE
  8
0
 62
     1
 10
7.59435
 20
141.942
 30
0.0
 11
7.52133
 21
142.398
 31
0.0
  0
LINE
  8
0
 62
     1
 10
7.52133
 20
142.398
 30
0.0
 11
7.31326
 21
142.809
 31
0.0
  0
LINE
  8
0
 62
     1
 10
7.31326
 20
142.809
 30
0.0
 11
6.98528
 21
143.137
 31
0.0
  0
LINE
  8
0
 62
     1
 10
6.98528
 20
143.137
 30
0.0
 11
6.57461
 21
143.345
 31
0.0
  0
LINE
  8
0
 62
     1
 10
6.57461
 20
143.345
 30
0.0
 11
6.11851
 21
143.417
 31
0.0
  0
LINE
  8
0
 62
     1
 10
6.11851
 20
143.417
 30
0.0
 11
5.66374
 21
143.345
 31
0.0
  0
ENDSEC
  0
EOF
