  0
SECTION
  2
HEADER
  9
$ACADVER
  1
AC1009
  9
$EXTMIN
 10
0.0
 20
0.0
 30
0.0
  9
$EXTMAX
 10
1000.0
 20
1000.0
 30
0.0
  9
$FILLMODE
 70
 0
  9
$SPLFRAME
 70
 1
  0
ENDSEC
  0
SECTION
  2
TABLES
  0
TABLE
  2
LAYER
 70
1
  0
LAYER
  2
0
 70
     0
 62
     7
  6
CONTINUOUS
  0
ENDTAB
  0
ENDSEC
  0
SECTION
  2
ENTITIES
  0
LINE
  8
0
 62
     1
 10
362.807
 20
147.967
 30
0.0
 11
363.513
 21
147.941
 31
0.0
  0
LINE
  8
0
 62
     1
 10
363.513
 20
147.941
 30
0.0
 11
364.215
 21
147.857
 31
0.0
  0
LINE
  8
0
 62
     1
 10
364.215
 20
147.857
 30
0.0
 11
364.91
 21
147.719
 31
0.0
  0
LINE
  8
0
 62
     1
 10
364.91
 20
147.719
 30
0.0
 11
365.591
 21
147.527
 31
0.0
  0
LINE
  8
0
 62
     1
 10
365.591
 20
147.527
 30
0.0
 11
366.254
 21
147.282
 31
0.0
  0
LINE
  8
0
 62
     1
 10
366.254
 20
147.282
 30
0.0
 11
366.896
 21
146.987
 31
0.0
  0
LINE
  8
0
 62
     1
 10
366.896
 20
146.987
 30
0.0
 11
367.51
 21
146.641
 31
0.0
  0
LINE
  8
0
 62
     1
 10
367.51
 20
146.641
 30
0.0
 11
368.099
 21
146.25
 31
0.0
  0
LINE
  8
0
 62
     1
 10
368.099
 20
146.25
 30
0.0
 11
368.653
 21
145.812
 31
0.0
  0
LINE
  8
0
 62
     1
 10
368.653
 20
145.812
 30
0.0
 11
369.171
 21
145.331
 31
0.0
  0
LINE
  8
0
 62
     1
 10
369.171
 20
145.331
 30
0.0
 11
369.651
 21
144.812
 31
0.0
  0
LINE
  8
0
 62
     1
 10
369.651
 20
144.812
 30
0.0
 11
370.089
 21
144.259
 31
0.0
  0
LINE
  8
0
 62
     1
 10
370.089
 20
144.259
 30
0.0
 11
370.48
 21
143.67
 31
0.0
  0
LINE
  8
0
 62
     1
 10
370.48
 20
143.67
 30
0.0
 11
370.826
 21
143.053
 31
0.0
  0
LINE
  8
0
 62
     1
 10
370.826
 20
143.053
 30
0.0
 11
371.122
 21
142.412
 31
0.0
  0
LINE
  8
0
 62
     1
 10
371.122
 20
142.412
 30
0.0
 11
371.369
 21
141.749
 31
0.0
  0
LINE
  8
0
 62
     1
 10
371.369
 20
141.749
 30
0.0
 11
371.56
 21
141.07
 31
0.0
  0
LINE
  8
0
 62
     1
 10
371.56
 20
141.07
 30
0.0
 11
371.697
 21
140.375
 31
0.0
  0
LINE
  8
0
 62
     1
 10
371.697
 20
140.375
 30
0.0
 11
371.778
 21
139.674
 31
0.0
  0
LINE
  8
0
 62
     1
 10
371.778
 20
139.674
 30
0.0
 11
371.807
 21
138.967
 31
0.0
  0
LINE
  8
0
 62
     1
 10
371.807
 20
138.967
 30
0.0
 11
371.807
 21
9.09091
 31
0.0
  0
LINE
  8
0
 62
     1
 10
371.807
 20
9.09091
 30
0.0
 11
371.778
 21
8.38535
 31
0.0
  0
LINE
  8
0
 62
     1
 10
371.778
 20
8.38535
 30
0.0
 11
371.697
 21
7.68396
 31
0.0
  0
LINE
  8
0
 62
     1
 10
371.697
 20
7.68396
 30
0.0
 11
371.56
 21
6.99079
 31
0.0
  0
LINE
  8
0
 62
     1
 10
371.56
 20
6.99079
 30
0.0
 11
371.369
 21
6.31003
 31
0.0
  0
LINE
  8
0
 62
     1
 10
371.369
 20
6.31003
 30
0.0
 11
371.122
 21
5.6472
 31
0.0
  0
LINE
  8
0
 62
     1
 10
371.122
 20
5.6472
 30
0.0
 11
370.826
 21
5.00641
 31
0.0
  0
LINE
  8
0
 62
     1
 10
370.826
 20
5.00641
 30
0.0
 11
370.48
 21
4.38905
 31
0.0
  0
LINE
  8
0
 62
     1
 10
370.48
 20
4.38905
 30
0.0
 11
370.089
 21
3.80062
 31
0.0
  0
LINE
  8
0
 62
     1
 10
370.089
 20
3.80062
 30
0.0
 11
369.651
 21
3.24666
 31
0.0
  0
LINE
  8
0
 62
     1
 10
369.651
 20
3.24666
 30
0.0
 11
369.171
 21
2.72852
 31
0.0
  0
LINE
  8
0
 62
     1
 10
369.171
 20
2.72852
 30
0.0
 11
368.653
 21
2.24758
 31
0.0
  0
LINE
  8
0
 62
     1
 10
368.653
 20
2.24758
 30
0.0
 11
368.099
 21
1.81074
 31
0.0
  0
LINE
  8
0
 62
     1
 10
368.099
 20
1.81074
 30
0.0
 11
367.51
 21
1.418
 31
0.0
  0
LINE
  8
0
 62
     1
 10
367.51
 20
1.418
 30
0.0
 11
366.896
 21
1.07211
 31
0.0
  0
LINE
  8
0
 62
     1
 10
366.896
 20
1.07211
 30
0.0
 11
366.254
 21
0.777215
 31
0.0
  0
LINE
  8
0
 62
     1
 10
366.254
 20
0.777215
 30
0.0
 11
365.591
 21
0.531922
 31
0.0
  0
LINE
  8
0
 62
     1
 10
365.591
 20
0.531922
 30
0.0
 11
364.91
 21
0.340376
 31
0.0
  0
LINE
  8
0
 62
     1
 10
364.91
 20
0.340376
 30
0.0
 11
364.215
 21
0.202572
 31
0.0
  0
LINE
  8
0
 62
     1
 10
364.215
 20
0.202572
 30
0.0
 11
363.513
 21
0.118511
 31
0.0
  0
LINE
  8
0
 62
     1
 10
363.513
 20
0.118511
 30
0.0
 11
362.807
 21
0.0909507
 31
0.0
  0
LINE
  8
0
 62
     1
 10
362.807
 20
0.0909507
 30
0.0
 11
9.09507
 21
0.0909507
 31
0.0
  0
LINE
  8
0
 62
     1
 10
9.09507
 20
0.0909507
 30
0.0
 11
8.3881
 21
0.118511
 31
0.0
  0
LINE
  8
0
 62
     1
 10
8.3881
 20
0.118511
 30
0.0
 11
7.68671
 21
0.202572
 31
0.0
  0
LINE
  8
0
 62
     1
 10
7.68671
 20
0.202572
 30
0.0
 11
6.99216
 21
0.340376
 31
0.0
  0
LINE
  8
0
 62
     1
 10
6.99216
 20
0.340376
 30
0.0
 11
6.31278
 21
0.531922
 31
0.0
  0
LINE
  8
0
 62
     1
 10
6.31278
 20
0.531922
 30
0.0
 11
5.64995
 21
0.777215
 31
0.0
  0
LINE
  8
0
 62
     1
 10
5.64995
 20
0.777215
 30
0.0
 11
5.00916
 21
1.07211
 31
0.0
  0
LINE
  8
0
 62
     1
 10
5.00916
 20
1.07211
 30
0.0
 11
4.3918
 21
1.418
 31
0.0
  0
LINE
  8
0
 62
     1
 10
4.3918
 20
1.418
 30
0.0
 11
3.8034
 21
1.81074
 31
0.0
  0
LINE
  8
0
 62
     1
 10
3.8034
 20
1.81074
 30
0.0
 11
3.24942
 21
2.24758
 31
0.0
  0
LINE
  8
0
 62
     1
 10
3.24942
 20
2.24758
 30
0.0
 11
2.73127
 21
2.72852
 31
0.0
  0
LINE
  8
0
 62
     1
 10
2.73127
 20
2.72852
 30
0.0
 11
2.25034
 21
3.24666
 31
0.0
  0
LINE
  8
0
 62
     1
 10
2.25034
 20
3.24666
 30
0.0
 11
1.81212
 21
3.80062
 31
0.0
  0
LINE
  8
0
 62
     1
 10
1.81212
 20
3.80062
 30
0.0
 11
1.42076
 21
4.38905
 31
0.0
  0
LINE
  8
0
 62
     1
 10
1.42076
 20
4.38905
 30
0.0
 11
1.07487
 21
5.00641
 31
0.0
  0
LINE
  8
0
 62
     1
 10
1.07487
 20
5.00641
 30
0.0
 11
0.77997
 21
5.6472
 31
0.0
  0
LINE
  8
0
 62
     1
 10
0.77997
 20
5.6472
 30
0.0
 11
0.534681
 21
6.31003
 31
0.0
  0
LINE
  8
0
 62
     1
 10
0.534681
 20
6.31003
 30
0.0
 11
0.343131
 21
6.99079
 31
0.0
  0
LINE
  8
0
 62
     1
 10
0.343131
 20
6.99079
 30
0.0
 11
0.205328
 21
7.68396
 31
0.0
  0
LINE
  8
0
 62
     1
 10
0.205328
 20
7.68396
 30
0.0
 11
0.121267
 21
8.38535
 31
0.0
  0
LINE
  8
0
 62
     1
 10
0.121267
 20
8.38535
 30
0.0
 11
0.0937066
 21
9.09228
 31
0.0
  0
LINE
  8
0
 62
     1
 10
0.0937066
 20
9.09228
 30
0.0
 11
0.0950846
 21
138.967
 31
0.0
  0
LINE
  8
0
 62
     1
 10
0.0950846
 20
138.967
 30
0.0
 11
0.121267
 21
139.674
 31
0.0
  0
LINE
  8
0
 62
     1
 10
0.121267
 20
139.674
 30
0.0
 11
0.205328
 21
140.375
 31
0.0
  0
LINE
  8
0
 62
     1
 10
0.205328
 20
140.375
 30
0.0
 11
0.343131
 21
141.07
 31
0.0
  0
LINE
  8
0
 62
     1
 10
0.343131
 20
141.07
 30
0.0
 11
0.534681
 21
141.749
 31
0.0
  0
LINE
  8
0
 62
     1
 10
0.534681
 20
141.749
 30
0.0
 11
0.77997
 21
142.412
 31
0.0
  0
LINE
  8
0
 62
     1
 10
0.77997
 20
142.412
 30
0.0
 11
1.07487
 21
143.053
 31
0.0
  0
LINE
  8
0
 62
     1
 10
1.07487
 20
143.053
 30
0.0
 11
1.42076
 21
143.67
 31
0.0
  0
LINE
  8
0
 62
     1
 10
1.42076
 20
143.67
 30
0.0
 11
1.81212
 21
144.259
 31
0.0
  0
LINE
  8
0
 62
     1
 10
1.81212
 20
144.259
 30
0.0
 11
2.25034
 21
144.812
 31
0.0
  0
LINE
  8
0
 62
     1
 10
2.25034
 20
144.812
 30
0.0
 11
2.73127
 21
145.331
 31
0.0
  0
LINE
  8
0
 62
     1
 10
2.73127
 20
145.331
 30
0.0
 11
3.24942
 21
145.812
 31
0.0
  0
LINE
  8
0
 62
     1
 10
3.24942
 20
145.812
 30
0.0
 11
3.8034
 21
146.25
 31
0.0
  0
LINE
  8
0
 62
     1
 10
3.8034
 20
146.25
 30
0.0
 11
4.3918
 21
146.641
 31
0.0
  0
LINE
  8
0
 62
     1
 10
4.3918
 20
146.641
 30
0.0
 11
5.00916
 21
146.987
 31
0.0
  0
LINE
  8
0
 62
     1
 10
5.00916
 20
146.987
 30
0.0
 11
5.64995
 21
147.282
 31
0.0
  0
LINE
  8
0
 62
     1
 10
5.64995
 20
147.282
 30
0.0
 11
6.31278
 21
147.527
 31
0.0
  0
LINE
  8
0
 62
     1
 10
6.31278
 20
147.527
 30
0.0
 11
6.99216
 21
147.719
 31
0.0
  0
LINE
  8
0
 62
     1
 10
6.99216
 20
147.719
 30
0.0
 11
7.68671
 21
147.857
 31
0.0
  0
LINE
  8
0
 62
     1
 10
7.68671
 20
147.857
 30
0.0
 11
8.3881
 21
147.941
 31
0.0
  0
LINE
  8
0
 62
     1
 10
8.3881
 20
147.941
 30
0.0
 11
9.09507
 21
147.968
 31
0.0
  0
LINE
  8
0
 62
     1
 10
9.09507
 20
147.968
 30
0.0
 11
362.807
 21
147.967
 31
0.0
  0
LINE
  8
0
 62
     1
 10
365.326
 20
7.51858
 30
0.0
 11
364.917
 21
7.31188
 31
0.0
  0
LINE
  8
0
 62
     1
 10
364.917
 20
7.31188
 30
0.0
 11
364.589
 21
6.98253
 31
0.0
  0
LINE
  8
0
 62
     1
 10
364.589
 20
6.98253
 30
0.0
 11
364.381
 21
6.57186
 31
0.0
  0
LINE
  8
0
 62
     1
 10
364.381
 20
6.57186
 30
0.0
 11
364.307
 21
6.11572
 31
0.0
  0
LINE
  8
0
 62
     1
 10
364.307
 20
6.11572
 30
0.0
 11
364.381
 21
5.66099
 31
0.0
  0
LINE
  8
0
 62
     1
 10
364.381
 20
5.66099
 30
0.0
 11
364.589
 21
5.25032
 31
0.0
  0
LINE
  8
0
 62
     1
 10
364.589
 20
5.25032
 30
0.0
 11
364.917
 21
4.92372
 31
0.0
  0
LINE
  8
0
 62
     1
 10
364.917
 20
4.92372
 30
0.0
 11
365.326
 21
4.71428
 31
0.0
  0
LINE
  8
0
 62
     1
 10
365.326
 20
4.71428
 30
0.0
 11
365.781
 21
4.64125
 31
0.0
  0
LINE
  8
0
 62
     1
 10
365.781
 20
4.64125
 30
0.0
 11
366.24
 21
4.71428
 31
0.0
  0
LINE
  8
0
 62
     1
 10
366.24
 20
4.71428
 30
0.0
 11
366.649
 21
4.92372
 31
0.0
  0
LINE
  8
0
 62
     1
 10
366.649
 20
4.92372
 30
0.0
 11
366.977
 21
5.25032
 31
0.0
  0
LINE
  8
0
 62
     1
 10
366.977
 20
5.25032
 30
0.0
 11
367.185
 21
5.66099
 31
0.0
  0
LINE
  8
0
 62
     1
 10
367.185
 20
5.66099
 30
0.0
 11
367.259
 21
6.11572
 31
0.0
  0
LINE
  8
0
 62
     1
 10
367.259
 20
6.11572
 30
0.0
 11
367.185
 21
6.57186
 31
0.0
  0
LINE
  8
0
 62
     1
 10
367.185
 20
6.57186
 30
0.0
 11
366.977
 21
6.98253
 31
0.0
  0
LINE
  8
0
 62
     1
 10
366.977
 20
6.98253
 30
0.0
 11
366.649
 21
7.31188
 31
0.0
  0
LINE
  8
0
 62
     1
 10
366.649
 20
7.31188
 30
0.0
 11
366.24
 21
7.51858
 31
0.0
  0
LINE
  8
0
 62
     1
 10
366.24
 20
7.51858
 30
0.0
 11
365.781
 21
7.5916
 31
0.0
  0
LINE
  8
0
 62
     1
 10
365.781
 20
7.5916
 30
0.0
 11
365.326
 21
7.51858
 31
0.0
  0
LINE
  8
0
 62
     1
 10
245.438
 20
7.51858
 30
0.0
 11
245.027
 21
7.31188
 31
0.0
  0
LINE
  8
0
 62
     1
 10
245.027
 20
7.31188
 30
0.0
 11
244.703
 21
6.98253
 31
0.0
  0
LINE
  8
0
 62
     1
 10
244.703
 20
6.98253
 30
0.0
 11
244.492
 21
6.57186
 31
0.0
  0
LINE
  8
0
 62
     1
 10
244.492
 20
6.57186
 30
0.0
 11
244.42
 21
6.11572
 31
0.0
  0
LINE
  8
0
 62
     1
 10
244.42
 20
6.11572
 30
0.0
 11
244.492
 21
5.66099
 31
0.0
  0
LINE
  8
0
 62
     1
 10
244.492
 20
5.66099
 30
0.0
 11
244.703
 21
5.25032
 31
0.0
  0
LINE
  8
0
 62
     1
 10
244.703
 20
5.25032
 30
0.0
 11
245.027
 21
4.92372
 31
0.0
  0
LINE
  8
0
 62
     1
 10
245.027
 20
4.92372
 30
0.0
 11
245.438
 21
4.71428
 31
0.0
  0
LINE
  8
0
 62
     1
 10
245.438
 20
4.71428
 30
0.0
 11
245.894
 21
4.64125
 31
0.0
  0
LINE
  8
0
 62
     1
 10
245.894
 20
4.64125
 30
0.0
 11
246.35
 21
4.71428
 31
0.0
  0
LINE
  8
0
 62
     1
 10
246.35
 20
4.71428
 30
0.0
 11
246.761
 21
4.92372
 31
0.0
  0
LINE
  8
0
 62
     1
 10
246.761
 20
4.92372
 30
0.0
 11
247.088
 21
5.25032
 31
0.0
  0
LINE
  8
0
 62
     1
 10
247.088
 20
5.25032
 30
0.0
 11
247.297
 21
5.66099
 31
0.0
  0
LINE
  8
0
 62
     1
 10
247.297
 20
5.66099
 30
0.0
 11
247.37
 21
6.11572
 31
0.0
  0
LINE
  8
0
 62
     1
 10
247.37
 20
6.11572
 30
0.0
 11
247.297
 21
6.57186
 31
0.0
  0
LINE
  8
0
 62
     1
 10
247.297
 20
6.57186
 30
0.0
 11
247.088
 21
6.98253
 31
0.0
  0
LINE
  8
0
 62
     1
 10
247.088
 20
6.98253
 30
0.0
 11
246.761
 21
7.31188
 31
0.0
  0
LINE
  8
0
 62
     1
 10
246.761
 20
7.31188
 30
0.0
 11
246.35
 21
7.51858
 31
0.0
  0
LINE
  8
0
 62
     1
 10
246.35
 20
7.51858
 30
0.0
 11
245.894
 21
7.5916
 31
0.0
  0
LINE
  8
0
 62
     1
 10
245.894
 20
7.5916
 30
0.0
 11
245.438
 21
7.51858
 31
0.0
  0
LINE
  8
0
 62
     1
 10
125.552
 20
7.51858
 30
0.0
 11
125.138
 21
7.31188
 31
0.0
  0
LINE
  8
0
 62
     1
 10
125.138
 20
7.31188
 30
0.0
 11
124.815
 21
6.98253
 31
0.0
  0
LINE
  8
0
 62
     1
 10
124.815
 20
6.98253
 30
0.0
 11
124.604
 21
6.57186
 31
0.0
  0
LINE
  8
0
 62
     1
 10
124.604
 20
6.57186
 30
0.0
 11
124.532
 21
6.11572
 31
0.0
  0
LINE
  8
0
 62
     1
 10
124.532
 20
6.11572
 30
0.0
 11
124.604
 21
5.66099
 31
0.0
  0
LINE
  8
0
 62
     1
 10
124.604
 20
5.66099
 30
0.0
 11
124.815
 21
5.25032
 31
0.0
  0
LINE
  8
0
 62
     1
 10
124.815
 20
5.25032
 30
0.0
 11
125.138
 21
4.92372
 31
0.0
  0
LINE
  8
0
 62
     1
 10
125.138
 20
4.92372
 30
0.0
 11
125.552
 21
4.71428
 31
0.0
  0
LINE
  8
0
 62
     1
 10
125.552
 20
4.71428
 30
0.0
 11
126.007
 21
4.64125
 31
0.0
  0
LINE
  8
0
 62
     1
 10
126.007
 20
4.64125
 30
0.0
 11
126.463
 21
4.71428
 31
0.0
  0
LINE
  8
0
 62
     1
 10
126.463
 20
4.71428
 30
0.0
 11
126.873
 21
4.92372
 31
0.0
  0
LINE
  8
0
 62
     1
 10
126.873
 20
4.92372
 30
0.0
 11
127.201
 21
5.25032
 31
0.0
  0
LINE
  8
0
 62
     1
 10
127.201
 20
5.25032
 30
0.0
 11
127.409
 21
5.66099
 31
0.0
  0
LINE
  8
0
 62
     1
 10
127.409
 20
5.66099
 30
0.0
 11
127.482
 21
6.11572
 31
0.0
  0
LINE
  8
0
 62
     1
 10
127.482
 20
6.11572
 30
0.0
 11
127.409
 21
6.57186
 31
0.0
  0
LINE
  8
0
 62
     1
 10
127.409
 20
6.57186
 30
0.0
 11
127.201
 21
6.98253
 31
0.0
  0
LINE
  8
0
 62
     1
 10
127.201
 20
6.98253
 30
0.0
 11
126.873
 21
7.31188
 31
0.0
  0
LINE
  8
0
 62
     1
 10
126.873
 20
7.31188
 30
0.0
 11
126.463
 21
7.51858
 31
0.0
  0
LINE
  8
0
 62
     1
 10
126.463
 20
7.51858
 30
0.0
 11
126.007
 21
7.5916
 31
0.0
  0
LINE
  8
0
 62
     1
 10
126.007
 20
7.5916
 30
0.0
 11
125.552
 21
7.51858
 31
0.0
  0
LINE
  8
0
 62
     1
 10
5.66374
 20
7.51858
 30
0.0
 11
5.25307
 21
7.31188
 31
0.0
  0
LINE
  8
0
 62
     1
 10
5.25307
 20
7.31188
 30
0.0
 11
4.9251
 21
6.98253
 31
0.0
  0
LINE
  8
0
 62
     1
 10
4.9251
 20
6.98253
 30
0.0
 11
4.71703
 21
6.57186
 31
0.0
  0
LINE
  8
0
 62
     1
 10
4.71703
 20
6.57186
 30
0.0
 11
4.644
 21
6.11572
 31
0.0
  0
LINE
  8
0
 62
     1
 10
4.644
 20
6.11572
 30
0.0
 11
4.71703
 21
5.66099
 31
0.0
  0
LINE
  8
0
 62
     1
 10
4.71703
 20
5.66099
 30
0.0
 11
4.9251
 21
5.25032
 31
0.0
  0
LINE
  8
0
 62
     1
 10
4.9251
 20
5.25032
 30
0.0
 11
5.25307
 21
4.92372
 31
0.0
  0
LINE
  8
0
 62
     1
 10
5.25307
 20
4.92372
 30
0.0
 11
5.66374
 21
4.71428
 31
0.0
  0
LINE
  8
0
 62
     1
 10
5.66374
 20
4.71428
 30
0.0
 11
6.11851
 21
4.64125
 31
0.0
  0
LINE
  8
0
 62
     1
 10
6.11851
 20
4.64125
 30
0.0
 11
6.57461
 21
4.71428
 31
0.0
  0
LINE
  8
0
 62
     1
 10
6.57461
 20
4.71428
 30
0.0
 11
6.98528
 21
4.92372
 31
0.0
  0
LINE
  8
0
 62
     1
 10
6.98528
 20
4.92372
 30
0.0
 11
7.31326
 21
5.25032
 31
0.0
  0
LINE
  8
0
 62
     1
 10
7.31326
 20
5.25032
 30
0.0
 11
7.52133
 21
5.66099
 31
0.0
  0
LINE
  8
0
 62
     1
 10
7.52133
 20
5.66099
 30
0.0
 11
7.59435
 21
6.11572
 31
0.0
  0
LINE
  8
0
 62
     1
 10
7.59435
 20
6.11572
 30
0.0
 11
7.52133
 21
6.57186
 31
0.0
  0
LINE
  8
0
 62
     1
 10
7.52133
 20
6.57186
 30
0.0
 11
7.31326
 21
6.98253
 31
0.0
  0
LINE
  8
0
 62
     1
 10
7.31326
 20
6.98253
 30
0.0
 11
6.98528
 21
7.31188
 31
0.0
  0
LINE
  8
0
 62
     1
 10
6.98528
 20
7.31188
 30
0.0
 11
6.57461
 21
7.51858
 31
0.0
  0
LINE
  8
0
 62
     1
 10
6.57461
 20
7.51858
 30
0.0
 11
6.11851
 21
7.5916
 31
0.0
  0
LINE
  8
0
 62
     1
 10
6.11851
 20
7.5916
 30
0.0
 11
5.66374
 21
7.51858
 31
0.0
  0
LINE
  8
0
 62
     1
 10
12.1171
 20
107.369
 30
0.0
 11
12.1171
 21
88.3186
 31
0.0
  0
LINE
  8
0
 62
     1
 10
12.1171
 20
88.3186
 30
0.0
 11
12.1185
 21
88.3186
 31
0.0
  0
LINE
  8
0
 62
     1
 10
12.1185
 20
88.3186
 30
0.0
 11
12.1185
 21
69.2686
 31
0.0
  0
LINE
  8
0
 62
     1
 10
12.1185
 20
69.2686
 30
0.0
 11
12.1171
 21
69.2686
 31
0.0
  0
LINE
  8
0
 62
     1
 10
12.1171
 20
69.2686
 30
0.0
 11
12.1171
 21
31.1685
 31
0.0
  0
LINE
  8
0
 62
     1
 10
12.1171
 20
31.1685
 30
0.0
 11
12.1185
 21
31.1685
 31
0.0
  0
LINE
  8
0
 62
     1
 10
12.1185
 20
31.1685
 30
0.0
 11
12.1185
 21
12.1157
 31
0.0
  0
LINE
  8
0
 62
     1
 10
12.1185
 20
12.1157
 30
0.0
 11
297.87
 21
12.1157
 31
0.0
  0
LINE
  8
0
 62
     1
 10
297.87
 20
12.1157
 30
0.0
 11
297.87
 21
31.1685
 31
0.0
  0
LINE
  8
0
 62
     1
 10
297.87
 20
31.1685
 30
0.0
 11
297.871
 21
31.1685
 31
0.0
  0
LINE
  8
0
 62
     1
 10
297.871
 20
31.1685
 30
0.0
 11
297.871
 21
107.369
 31
0.0
  0
LINE
  8
0
 62
     1
 10
297.871
 20
107.369
 30
0.0
 11
12.1171
 21
107.369
 31
0.0
  0
LINE
  8
0
 62
     1
 10
302.631
 20
107.369
 30
0.0
 11
359.784
 21
107.369
 31
0.0
  0
LINE
  8
0
 62
     1
 10
359.784
 20
107.369
 30
0.0
 11
359.784
 21
12.1157
 31
0.0
  0
LINE
  8
0
 62
     1
 10
359.784
 20
12.1157
 30
0.0
 11
302.631
 21
12.1157
 31
0.0
  0
LINE
  8
0
 62
     1
 10
302.631
 20
12.1157
 30
0.0
 11
302.631
 21
107.369
 31
0.0
  0
LINE
  8
0
 62
     1
 10
12.1171
 20
135.945
 30
0.0
 11
31.1699
 21
135.945
 31
0.0
  0
LINE
  8
0
 62
     1
 10
31.1699
 20
135.945
 30
0.0
 11
31.1699
 21
116.892
 31
0.0
  0
LINE
  8
0
 62
     1
 10
31.1699
 20
116.892
 30
0.0
 11
12.1171
 21
116.892
 31
0.0
  0
LINE
  8
0
 62
     1
 10
12.1171
 20
116.892
 30
0.0
 11
12.1171
 21
135.945
 31
0.0
  0
LINE
  8
0
 62
     1
 10
50.2186
 20
135.945
 30
0.0
 11
126.421
 21
135.945
 31
0.0
  0
LINE
  8
0
 62
     1
 10
126.421
 20
135.945
 30
0.0
 11
126.421
 21
116.892
 31
0.0
  0
LINE
  8
0
 62
     1
 10
126.421
 20
116.892
 30
0.0
 11
50.2186
 21
116.892
 31
0.0
  0
LINE
  8
0
 62
     1
 10
50.2186
 20
116.892
 30
0.0
 11
50.2186
 21
135.945
 31
0.0
  0
LINE
  8
0
 62
     1
 10
135.944
 20
135.945
 30
0.0
 11
212.146
 21
135.945
 31
0.0
  0
LINE
  8
0
 62
     1
 10
212.146
 20
135.945
 30
0.0
 11
212.146
 21
116.892
 31
0.0
  0
LINE
  8
0
 62
     1
 10
212.146
 20
116.892
 30
0.0
 11
135.944
 21
116.892
 31
0.0
  0
LINE
  8
0
 62
     1
 10
135.944
 20
116.892
 30
0.0
 11
135.944
 21
135.945
 31
0.0
  0
LINE
  8
0
 62
     1
 10
221.669
 20
135.945
 30
0.0
 11
297.871
 21
135.945
 31
0.0
  0
LINE
  8
0
 62
     1
 10
297.871
 20
135.945
 30
0.0
 11
297.871
 21
116.892
 31
0.0
  0
LINE
  8
0
 62
     1
 10
297.871
 20
116.892
 30
0.0
 11
221.669
 21
116.892
 31
0.0
  0
LINE
  8
0
 62
     1
 10
221.669
 20
116.892
 30
0.0
 11
221.669
 21
135.945
 31
0.0
  0
LINE
  8
0
 62
     1
 10
302.631
 20
135.945
 30
0.0
 11
359.784
 21
135.945
 31
0.0
  0
LINE
  8
0
 62
     1
 10
359.784
 20
135.945
 30
0.0
 11
359.784
 21
116.892
 31
0.0
  0
LINE
  8
0
 62
     1
 10
359.784
 20
116.892
 30
0.0
 11
302.631
 21
116.892
 31
0.0
  0
LINE
  8
0
 62
     1
 10
302.631
 20
116.892
 30
0.0
 11
302.631
 21
135.945
 31
0.0
  0
LINE
  8
0
 62
     1
 10
125.552
 20
143.345
 30
0.0
 11
125.138
 21
143.137
 31
0.0
  0
LINE
  8
0
 62
     1
 10
125.138
 20
143.137
 30
0.0
 11
124.815
 21
142.809
 31
0.0
  0
LINE
  8
0
 62
     1
 10
124.815
 20
142.809
 30
0.0
 11
124.604
 21
142.398
 31
0.0
  0
LINE
  8
0
 62
     1
 10
124.604
 20
142.398
 30
0.0
 11
124.532
 21
141.942
 31
0.0
  0
LINE
  8
0
 62
     1
 10
124.532
 20
141.942
 30
0.0
 11
124.604
 21
141.487
 31
0.0
  0
LINE
  8
0
 62
     1
 10
124.604
 20
141.487
 30
0.0
 11
124.815
 21
141.077
 31
0.0
  0
LINE
  8
0
 62
     1
 10
124.815
 20
141.077
 30
0.0
 11
125.138
 21
140.75
 31
0.0
  0
LINE
  8
0
 62
     1
 10
125.138
 20
140.75
 30
0.0
 11
125.552
 21
140.541
 31
0.0
  0
LINE
  8
0
 62
     1
 10
125.552
 20
140.541
 30
0.0
 11
126.007
 21
140.468
 31
0.0
  0
LINE
  8
0
 62
     1
 10
126.007
 20
140.468
 30
0.0
 11
126.463
 21
140.541
 31
0.0
  0
LINE
  8
0
 62
     1
 10
126.463
 20
140.541
 30
0.0
 11
126.873
 21
140.75
 31
0.0
  0
LINE
  8
0
 62
     1
 10
126.873
 20
140.75
 30
0.0
 11
127.201
 21
141.077
 31
0.0
  0
LINE
  8
0
 62
     1
 10
127.201
 20
141.077
 30
0.0
 11
127.409
 21
141.487
 31
0.0
  0
LINE
  8
0
 62
     1
 10
127.409
 20
141.487
 30
0.0
 11
127.482
 21
141.942
 31
0.0
  0
LINE
  8
0
 62
     1
 10
127.482
 20
141.942
 30
0.0
 11
127.409
 21
142.398
 31
0.0
  0
LINE
  8
0
 62
     1
 10
127.409
 20
142.398
 30
0.0
 11
127.201
 21
142.809
 31
0.0
  0
LINE
  8
0
 62
     1
 10
127.201
 20
142.809
 30
0.0
 11
126.873
 21
143.137
 31
0.0
  0
LINE
  8
0
 62
     1
 10
126.873
 20
143.137
 30
0.0
 11
126.463
 21
143.345
 31
0.0
  0
LINE
  8
0
 62
     1
 10
126.463
 20
143.345
 30
0.0
 11
126.007
 21
143.417
 31
0.0
  0
LINE
  8
0
 62
     1
 10
126.007
 20
143.417
 30
0.0
 11
125.552
 21
143.345
 31
0.0
  0
LINE
  8
0
 62
     1
 10
245.438
 20
143.345
 30
0.0
 11
245.027
 21
143.137
 31
0.0
  0
LINE
  8
0
 62
     1
 10
245.027
 20
143.137
 30
0.0
 11
244.703
 21
142.809
 31
0.0
  0
LINE
  8
0
 62
     1
 10
244.703
 20
142.809
 30
0.0
 11
244.492
 21
142.398
 31
0.0
  0
LINE
  8
0
 62
     1
 10
244.492
 20
142.398
 30
0.0
 11
244.42
 21
141.942
 31
0.0
  0
LINE
  8
0
 62
     1
 10
244.42
 20
141.942
 30
0.0
 11
244.492
 21
141.487
 31
0.0
  0
LINE
  8
0
 62
     1
 10
244.492
 20
141.487
 30
0.0
 11
244.703
 21
141.077
 31
0.0
  0
LINE
  8
0
 62
     1
 10
244.703
 20
141.077
 30
0.0
 11
245.027
 21
140.75
 31
0.0
  0
LINE
  8
0
 62
     1
 10
245.027
 20
140.75
 30
0.0
 11
245.438
 21
140.541
 31
0.0
  0
LINE
  8
0
 62
     1
 10
245.438
 20
140.541
 30
0.0
 11
245.894
 21
140.468
 31
0.0
  0
LINE
  8
0
 62
     1
 10
245.894
 20
140.468
 30
0.0
 11
246.35
 21
140.541
 31
0.0
  0
LINE
  8
0
 62
     1
 10
246.35
 20
140.541
 30
0.0
 11
246.761
 21
140.75
 31
0.0
  0
LINE
  8
0
 62
     1
 10
246.761
 20
140.75
 30
0.0
 11
247.088
 21
141.077
 31
0.0
  0
LINE
  8
0
 62
     1
 10
247.088
 20
141.077
 30
0.0
 11
247.297
 21
141.487
 31
0.0
  0
LINE
  8
0
 62
     1
 10
247.297
 20
141.487
 30
0.0
 11
247.37
 21
141.942
 31
0.0
  0
LINE
  8
0
 62
     1
 10
247.37
 20
141.942
 30
0.0
 11
247.297
 21
142.398
 31
0.0
  0
LINE
  8
0
 62
     1
 10
247.297
 20
142.398
 30
0.0
 11
247.088
 21
142.809
 31
0.0
  0
LINE
  8
0
 62
     1
 10
247.088
 20
142.809
 30
0.0
 11
246.761
 21
143.137
 31
0.0
  0
LINE
  8
0
 62
     1
 10
246.761
 20
143.137
 30
0.0
 11
246.35
 21
143.345
 31
0.0
  0
LINE
  8
0
 62
     1
 10
246.35
 20
143.345
 30
0.0
 11
245.894
 21
143.417
 31
0.0
  0
LINE
  8
0
 62
     1
 10
245.894
 20
143.417
 30
0.0
 11
245.438
 21
143.345
 31
0.0
  0
LINE
  8
0
 62
     1
 10
365.326
 20
143.345
 30
0.0
 11
364.917
 21
143.137
 31
0.0
  0
LINE
  8
0
 62
     1
 10
364.917
 20
143.137
 30
0.0
 11
364.589
 21
142.809
 31
0.0
  0
LINE
  8
0
 62
     1
 10
364.589
 20
142.809
 30
0.0
 11
364.381
 21
142.398
 31
0.0
  0
LINE
  8
0
 62
     1
 10
364.381
 20
142.398
 30
0.0
 11
364.307
 21
141.942
 31
0.0
  0
LINE
  8
0
 62
     1
 10
364.307
 20
141.942
 30
0.0
 11
364.381
 21
141.487
 31
0.0
  0
LINE
  8
0
 62
     1
 10
364.381
 20
141.487
 30
0.0
 11
364.589
 21
141.077
 31
0.0
  0
LINE
  8
0
 62
     1
 10
364.589
 20
141.077
 30
0.0
 11
364.917
 21
140.75
 31
0.0
  0
LINE
  8
0
 62
     1
 10
364.917
 20
140.75
 30
0.0
 11
365.326
 21
140.541
 31
0.0
  0
LINE
  8
0
 62
     1
 10
365.326
 20
140.541
 30
0.0
 11
365.781
 21
140.468
 31
0.0
  0
LINE
  8
0
 62
     1
 10
365.781
 20
140.468
 30
0.0
 11
366.24
 21
140.541
 31
0.0
  0
LINE
  8
0
 62
     1
 10
366.24
 20
140.541
 30
0.0
 11
366.649
 21
140.75
 31
0.0
  0
LINE
  8
0
 62
     1
 10
366.649
 20
140.75
 30
0.0
 11
366.977
 21
141.077
 31
0.0
  0
LINE
  8
0
 62
     1
 10
366.977
 20
141.077
 30
0.0
 11
367.185
 21
141.487
 31
0.0
  0
LINE
  8
0
 62
     1
 10
367.185
 20
141.487
 30
0.0
 11
367.259
 21
141.942
 31
0.0
  0
LINE
  8
0
 62
     1
 10
367.259
 20
141.942
 30
0.0
 11
367.185
 21
142.398
 31
0.0
  0
LINE
  8
0
 62
     1
 10
367.185
 20
142.398
 30
0.0
 11
366.977
 21
142.809
 31
0.0
  0
LINE
  8
0
 62
     1
 10
366.977
 20
142.809
 30
0.0
 11
366.649
 21
143.137
 31
0.0
  0
LINE
  8
0
 62
     1
 10
366.649
 20
143.137
 30
0.0
 11
366.24
 21
143.345
 31
0.0
  0
LINE
  8
0
 62
     1
 10
366.24
 20
143.345
 30
0.0
 11
365.781
 21
143.417
 31
0.0
  0
LINE
  8
0
 62
     1
 10
365.781
 20
143.417
 30
0.0
 11
365.326
 21
143.345
 31
0.0
  0
LINE
  8
0
 62
     1
 10
5.66374
 20
143.345
 30
0.0
 11
5.25307
 21
143.137
 31
0.0
  0
LINE
  8
0
 62
     1
 10
5.25307
 20
143.137
 30
0.0
 11
4.9251
 21
142.809
 31
0.0
  0
LINE
  8
0
 62
     1
 10
4.9251
 20
142.809
 30
0.0
 11
4.71703
 21
142.398
 31
0.0
  0
LINE
  8
0
 62
     1
 10
4.71703
 20
142.398
 30
0.0
 11
4.644
 21
141.942
 31
0.0
  0
LINE
  8
0
 62
     1
 10
4.644
 20
141.942
 30
0.0
 11
4.71703
 21
141.487
 31
0.0
  0
LINE
  8
0
 62
     1
 10
4.71703
 20
141.487
 30
0.0
 11
4.9251
 21
141.077
 31
0.0
  0
LINE
  8
0
 62
     1
 10
4.9251
 20
141.077
 30
0.0
 11
5.25307
 21
140.75
 31
0.0
  0
LINE
  8
0
 62
     1
 10
5.25307
 20
140.75
 30
0.0
 11
5.66374
 21
140.541
 31
0.0
  0
LINE
  8
0
 62
     1
 10
5.66374
 20
140.541
 30
0.0
 11
6.11851
 21
140.468
 31
0.0
  0
LINE
  8
0
 62
     1
 10
6.11851
 20
140.468
 30
0.0
 11
6.57461
 21
140.541
 31
0.0
  0
LINE
  8
0
 62
     1
 10
6.57461
 20
140.541
 30
0.0
 11
6.98528
 21
140.75
 31
0.0
  0
LINE
  8
0
 62
     1
 10
6.98528
 20
140.75
 30
0.0
 11
7.31326
 21
141.077
 31
0.0
  0
LINE
  8
0
 62
     1
 10
7.31326
 20
141.077
 30
0.0
 11
7.52133
 21
141.487
 31
0.0
  0
LINE
  8
0
 62
     1
 10
7.52133
 20
141.487
 30
0.0
 11
7.59435
 21
141.942
 31
0.0
  0
LINE
  8
0
 62
     1
 10
7.59435
 20
141.942
 30
0.0
 11
7.52133
 21
142.398
 31
0.0
  0
LINE
  8
0
 62
     1
 10
7.52133
 20
142.398
 30
0.0
 11
7.31326
 21
142.809
 31
0.0
  0
LINE
  8
0
 62
     1
 10
7.31326
 20
142.809
 30
0.0
 11
6.98528
 21
143.137
 31
0.0
  0
LINE
  8
0
 62
     1
 10
6.98528
 20
143.137
 30
0.0
 11
6.57461
 21
143.345
 31
0.0
  0
LINE
  8
0
 62
     1
 10
6.57461
 20
143.345
 30
0.0
 11
6.11851
 21
143.417
 31
0.0
  0
LINE
  8
0
 62
     1
 10
6.11851
 20
143.417
 30
0.0
 11
5.66374
 21
143.345
 31
0.0
  0
ENDSEC
  0
EOF
